<svg version="1.1" id="Layer_1" xmlns="http://www.w3.org/2000/svg" x="0" y="0" viewBox="0 0 64 64" xml:space="preserve">
<title>Horologist</title>
  <style>
    .st0{fill:#38646b}.st1{fill:#f2efe9}
  </style>
  <path class="st0" d="M1 32a31 31 0 1 1 62 0 31 31 0 0 1-62 0z"/>
  <path class="st1" d="M10.5 32a21.5 21.5 0 1 1 43 0 21.5 21.5 0 0 1-43 0z"/>
  <path class="st0" d="M12.9 32a19.1 19.1 0 1 1 38.2 0 19.1 19.1 0 0 1-38.2 0z"/>
  <path class="st1" d="M32 35c-1.6 0-3-1.3-3-3s1.3-3 3-3 3 1.3 3 3-1.4 3-3 3z"/>
  <path class="st1" d="M32 33H21c-.5 0-1-.4-1-1s.4-1 1-1h11c.5 0 1 .4 1 1 0 .5-.5 1-1 1z"/>
  <path class="st1" d="M32 33a1 1 0 0 1-.7-.3 1 1 0 0 1 0-1.4l7.8-7.8c.4-.4 1-.4 1.4 0s.4 1 0 1.4l-7.8 7.8a1 1 0 0 1-.7.3zm0-18.2c-.7 0-1.2.6-1.2 1.2 0 .7.6 1.2 1.2 1.2.7 0 1.2-.6 1.2-1.2 0-.7-.5-1.2-1.2-1.2zm0 32c-.7 0-1.2.6-1.2 1.2s.6 1.2 1.2 1.2c.7 0 1.2-.6 1.2-1.2s-.5-1.2-1.2-1.2zm16-16c-.7 0-1.2.6-1.2 1.2 0 .7.6 1.2 1.2 1.2s1.2-.6 1.2-1.2c0-.7-.5-1.2-1.2-1.2zm-32 0c-.7 0-1.2.6-1.2 1.2 0 .7.6 1.2 1.2 1.2.7 0 1.2-.6 1.2-1.2 0-.7-.5-1.2-1.2-1.2zm27.3-11.4c-.7 0-1.2.6-1.2 1.2s.6 1.2 1.2 1.2 1.2-.6 1.2-1.2-.5-1.2-1.2-1.2zM20.7 42.1c-.7 0-1.2.6-1.2 1.2s.6 1.2 1.2 1.2 1.2-.6 1.2-1.2-.5-1.2-1.2-1.2zm22.6 0c-.7 0-1.2.6-1.2 1.2s.6 1.2 1.2 1.2 1.2-.6 1.2-1.2-.5-1.2-1.2-1.2zM20.7 19.4c-.7 0-1.2.6-1.2 1.2s.6 1.2 1.2 1.2 1.2-.6 1.2-1.2-.5-1.2-1.2-1.2z"/>
</svg>