<svg xmlns="http://www.w3.org/2000/svg" viewBox="0 0 512 512" width="128" height="128">
  <path fill="#48A1AF" d="M7.9 256C7.9 119 119 7.9 256 7.9S504.1 119 504.1 256 393 504.1 256 504.1 7.9 393 7.9 256z"/>
  <path fill="#FFF" d="M83.9 256c0-95 77-172.1 172.1-172.1 95 0 172.1 77 172.1 172.1 0 95-77 172.1-172.1 172.1-95 0-172.1-77.1-172.1-172.1z"/>
  <path fill="#48A1AF" d="M102.9 256c0-84.6 68.6-153.1 153.1-153.1 84.6 0 153.1 68.5 153.1 153.1S340.5 409.1 256 409.1c-84.6 0-153.1-68.5-153.1-153.1z"/>
  <path fill="#FFF" d="M256 279.6c-13 0-23.6-10.6-23.6-23.6s10.6-23.6 23.6-23.6c13 0 23.6 10.6 23.6 23.6S269 279.6 256 279.6z"/>
  <path fill="#FFF" d="M256 263.7h-88.2c-4.2 0-7.7-3.4-7.7-7.7s3.4-7.7 7.7-7.7H256c4.2 0 7.7 3.4 7.7 7.7s-3.5 7.7-7.7 7.7z"/>
  <path fill="#FFF" d="M256 263.7c-2 0-3.9-.8-5.4-2.3-3-3-3-7.9 0-10.9l62.4-62.4c3-3 7.9-3 10.9 0s3 7.9 0 10.9l-62.4 62.4c-1.6 1.5-3.5 2.3-5.5 2.3zm0-145.7a10 10 0 1 0 0 20 10 10 0 1 0 0-20zm0 256a10 10 0 1 0 0 20 10 10 0 1 0 0-20zm128-128a10 10 0 1 0 0 20 10 10 0 1 0 0-20zm-256 0a10 10 0 1 0 0 20 10 10 0 1 0 0-20zm218.5-90.5a10 10 0 1 0 0 20 10 10 0 1 0 0-20zm-181 181a10 10 0 1 0 0 20 10 10 0 1 0 0-20zm181 0a10 10 0 1 0 0 20 10 10 0 1 0 0-20zm-181-181a10 10 0 1 0 0 20 10 10 0 1 0 0-20z"/>
</svg>