<svg xmlns="http://www.w3.org/2000/svg" viewBox="0 0 438.3 79.7">
  <title>Horologist</title>
  <description>Making digital time mechanical</description>
  <path d="M0 .7h3.9v22H34V.7h4v50.4h-4V26.3H4V51H0V.7Zm94.5 24.9c0 13.7-7.4 26.2-23 26.2-14.1 0-22.4-11.4-22.4-25.9S57.1 0 72.1 0c13.8 0 22.4 10.9 22.4 25.6Zm-41.2.1c0 11.6 6.4 22.5 18.5 22.5 13 0 18.5-10.6 18.5-22.6s-6.2-22-18.4-22c-13 0-18.6 10.7-18.6 22.1Zm56.2 1.9V51h-4V.7h18.1c10 0 15.2 5.3 15.2 13.3 0 6.4-3.8 10.5-9.4 11.8 5.2 1.2 8.6 4.6 8.6 13.2v1.9c0 3.5-.3 8.3.7 10.2h-4c-1-2.1-.7-6.2-.7-10.5v-1.3c0-8.3-2.5-11.7-12.1-11.7h-12.4Zm0-3.6h12.2c8.8 0 13-3.3 13-10 0-6.2-4-9.7-12-9.7h-13.2V24Zm83.6 1.6c0 13.7-7.3 26.2-22.9 26.2-14.2 0-22.5-11.4-22.5-25.9s8-25.9 23-25.9c13.8 0 22.4 10.9 22.4 25.6Zm-41.2.1c0 11.6 6.4 22.5 18.5 22.5 13 0 18.5-10.6 18.5-22.6s-6.2-22-18.3-22c-13 0-18.7 10.7-18.7 22.1Zm52.3-25h3.9v46.8h27l-.7 3.6h-30.2V.7Zm79.6 24.9c0 13.7-7.4 26.2-23 26.2-14.1 0-22.4-11.4-22.4-25.9s8-25.9 23-25.9c13.8 0 22.4 10.9 22.4 25.6Zm-41.2.1c0 11.6 6.4 22.5 18.5 22.5 13 0 18.5-10.6 18.5-22.6s-6.2-22-18.4-22c-13 0-18.6 10.7-18.6 22.1Zm91.1 25.4h-3.2c-.3-.6-.4-3.2-.5-8-1.8 3.4-5.8 8.6-16.3 8.6-14.5 0-21.9-11-21.9-25.4 0-15 8-26.3 22.7-26.3 10.9 0 18 5.7 19.7 15h-4c-2-7.2-7-11.4-15.8-11.4-12.6 0-18.4 9.8-18.4 22.5 0 11.6 5.5 22 17.9 22s16-8.2 16-19.4v-.6h-16.2v-3.6h20v26.6ZM350.6.7v50.4h-3.9V.7h4Zm14.5 36.9c1.5 6.7 6 10.7 14.3 10.7 9.2 0 12.7-4.7 12.7-10.1s-2.5-9.3-13.6-12c-10.7-2.6-15.3-6.1-15.3-13.4C363.3 6.2 368.1 0 379 0s15.7 6.8 16.4 12.9h-4c-1.2-5.4-4.7-9.3-12.6-9.3-7.3 0-11.3 3.4-11.3 9s3.3 7.7 12.6 10c14.2 3.6 16.3 9.2 16.3 15.3 0 7.4-5.4 13.8-17 13.8-12.7 0-17.3-7.3-18.2-14h4Zm52.2-33.3h-17V.7h38v3.6h-17v46.8h-4V4.3Z"/>
  <path d="M167.8 27.4h16.8v1.3h-16.8v-1.3Z"/>
  <path d="M169.8 15.6V29h-1.3V15.5M57.3 72.8v-7.1c-.6 2-3.6 9.2-5.4 13.8h-1.1C49.4 76 46.3 68 45.6 65.7l.1 7.6v6.2h-1.1V64.8h1.7c2 5 4.5 11.7 5 13.3h.1l5.3-13.3h1.7v14.7h-1.1v-6.7Zm6.7 1.7-1.8 5H61l5.4-14.7h1.4l5.6 14.7h-1.2l-2-5h-6.1Zm5.9-1.1L67 65.9l-2.6 7.5h5.4Zm6.1-8.6h1.1v7.7l8-7.7h1.6L80 71.1l7 8.4h-1.5l-6.4-7.7-2 1.9v5.8H76V64.8Zm14.3 0v14.7H89V64.8h1.2Zm4.3 14.7V64.8h1.7l8.6 13.4-.1-6.7v-6.7h1.1v14.7h-1.5L95.7 66v13.5h-1.1Zm26.8 0h-1l-.1-2.3c-.5 1-1.7 2.5-4.8 2.5-4.2 0-6.3-3.2-6.3-7.4 0-4.4 2.3-7.7 6.6-7.7 3.2 0 5.3 1.7 5.7 4.4h-1.1c-.6-2-2.1-3.3-4.7-3.3-3.6 0-5.3 2.8-5.3 6.6 0 3.3 1.6 6.4 5.2 6.4s4.7-2.4 4.7-5.7v-.2h-4.7v-1h5.8v7.7Zm9.1-14.7h4.8c4 0 6.9 2.8 6.9 7.3s-2.8 7.4-6.9 7.4h-4.8V64.8Zm1.1 13.7h3.6c3.8 0 5.8-2.7 5.8-6.4 0-3.2-1.8-6.2-5.8-6.2h-3.6v12.6Zm15-13.7v14.7h-1.2V64.8h1.2ZM162 79.5h-1v-2.3c-.6 1-1.8 2.5-4.8 2.5-4.3 0-6.4-3.2-6.4-7.4 0-4.4 2.3-7.7 6.6-7.7 3.2 0 5.3 1.7 5.7 4.4H161c-.6-2-2-3.3-4.6-3.3-3.7 0-5.4 2.8-5.4 6.6 0 3.3 1.6 6.4 5.2 6.4s4.7-2.4 4.7-5.7v-.2h-4.7v-1h5.8v7.7Zm5-14.7v14.7h-1.2V64.8h1.1Zm7.2 1.1h-5v-1h11.1v1h-5v13.6h-1.1V66Zm8.1 8.6-1.8 5h-1.2l5.4-14.7h1.4l5.6 14.7h-1.2l-2-5h-6.1Zm5.9-1.1-2.8-7.5-2.6 7.5h5.4Zm6.1-8.6h1.1v13.7h8l-.3 1h-8.8V64.8Zm19.9 1.1h-5v-1h11.1v1h-5v13.6h-1.1V66Zm9.4-1.1v14.7h-1.1V64.8h1.1Zm17.1 8v-7.1c-.6 2-3.6 9.2-5.4 13.8H234c-1.4-3.6-4.5-11.6-5.1-13.8v13.8h-1V64.8h1.7c2 5 4.5 11.7 5 13.3l5.4-13.3h1.7v14.7h-1.1v-6.7Zm14.1-.5h-7.5v6.2h8.2l-.2 1h-9.2V64.8h9v1h-7.8v5.5h7.5v1Zm21.8.5v-7.1c-.6 2-3.6 9.2-5.5 13.8h-1c-1.5-3.6-4.6-11.6-5.2-13.8v13.8h-1V64.8h1.6c2 5 4.6 11.7 5.1 13.3l5.4-13.3h1.7v14.7h-1.1v-6.7Zm14-.5h-7.5v6.2h8.3l-.2 1H282V64.8h9v1h-7.9v5.5h7.5v1Zm14.7 3.3a5.5 5.5 0 0 1-5.6 4.1c-4.2 0-6.4-3.4-6.4-7.5s2.2-7.6 6.5-7.6c3.1 0 5 1.8 5.5 4.2h-1.1c-.7-1.9-2-3.1-4.5-3.1-3.6 0-5.2 3.3-5.2 6.5s1.5 6.5 5.3 6.5c2.4 0 3.6-1.3 4.3-3h1.2Zm3.1-10.8h1.2v6.4h8.8v-6.4h1.1v14.7h-1.1v-7.2h-8.8v7.2h-1.2V64.8Zm16.8 9.7-1.9 5h-1.1l5.4-14.7h1.3l5.6 14.7h-1.2l-1.9-5h-6.2Zm5.8-1.1c-1.6-4.4-2.5-6.5-2.7-7.5l-2.7 7.5h5.4Zm6.2 6.1V64.8h1.6c2.3 3.6 7.7 11.8 8.6 13.4V64.8h1.1v14.7h-1.6L338.3 66v13.5h-1.1ZM354 64.8v14.7h-1.2V64.8h1.2Zm15.2 10.8a5.5 5.5 0 0 1-5.6 4.1c-4.2 0-6.4-3.4-6.4-7.5s2.2-7.6 6.5-7.6c3.1 0 5 1.8 5.5 4.2H368c-.7-1.9-2-3.1-4.5-3.1-3.6 0-5.2 3.3-5.2 6.5s1.5 6.5 5.3 6.5c2.4 0 3.6-1.3 4.3-3h1.2Zm4.5-1.1-1.9 5h-1.1l5.4-14.7h1.3l5.6 14.7h-1.2l-2-5h-6.1Zm5.8-1.1-2.8-7.5c-.3 1.2-1.3 3.8-2.6 7.5h5.4Zm6.1-8.6h1.2v13.7h7.9l-.2 1h-8.9V64.8Z"/>
  <path fill="none" stroke="#000" stroke-miterlimit="10" d="M34 72.9H0m438-.5h-34"/>
</svg>