<svg xmlns="http://www.w3.org/2000/svg" version="1.1" x="0" y="0" viewBox="0 0 250 250" xml:space="preserve">
  <g id="buttons">
    <path id="chronograph-primary-btn" class="chronograph-st0" d="M230.3 40.6l-15.5 15.5c-1.9 1.9-5.1 1.9-7.1 0l-11.4-11.4c-1.9-1.9-1.9-5.1 0-7.1l15.5-15.5c1.9-1.9 5.1-1.9 7.1 0l11.4 11.4C232.3 35.4 232.3 38.6 230.3 40.6z"/>
    <path id="chronograph-secondary-btn" class="chronograph-st0" d="M211.9 230.3l-15.5-15.5c-1.9-1.9-1.9-5.1 0-7.1l11.4-11.4c1.9-1.9 5.1-1.9 7.1 0l15.5 15.5c1.9 1.9 1.9 5.1 0 7.1l-11.4 11.4C217 232.2 213.8 232.2 211.9 230.3z"/>
    <path id="chronograph-tertiary-btn" class="chronograph-st0" d="M54.9 215.9l-15.5 15.5c-1.9 1.9-5.1 1.9-7.1 0L21 220.1c-1.9-1.9-1.9-5.1 0-7.1l15.5-15.5c1.9-1.9 5.1-1.9 7.1 0l11.4 11.4C56.9 210.8 56.9 214 54.9 215.9z"/>
  </g>
  <path class="chronograph-st1" d="M125 245C58.8 245 5 191.2 5 125S58.8 5 125 5s120 53.8 120 120S191.2 245 125 245z"/>
  <path d="M125 10c30.7 0 59.6 12 81.3 33.7S240 94.3 240 125s-12 59.6-33.7 81.3S155.7 240 125 240s-59.6-12-81.3-33.7S10 155.7 10 125s12-59.6 33.7-81.3S94.3 10 125 10M125 0C56 0 0 56 0 125s56 125 125 125 125-56 125-125S194 0 125 0L125 0z"/>
  <line class="chronograph-st2" x1="125.3" y1="0.2" x2="125.3" y2="29.2"/>
  <line class="chronograph-st2" x1="125.3" y1="220.8" x2="125.3" y2="249.8"/>
  <line class="chronograph-st2" x1="187.7" y1="17" x2="173.2" y2="42.1"/>
  <line class="chronograph-st2" x1="77.4" y1="207.9" x2="62.9" y2="233"/>
  <line class="chronograph-st2" x1="233.4" y1="62.6" x2="208.2" y2="77.1"/>
  <line class="chronograph-st2" x1="42.4" y1="172.9" x2="17.3" y2="187.4"/>
  <line class="chronograph-st2" x1="250.1" y1="125" x2="221.1" y2="125"/>
  <line class="chronograph-st2" x1="29.6" y1="125" x2="0.6" y2="125"/>
  <line class="chronograph-st2" x1="233.4" y1="187.4" x2="208.2" y2="172.9"/>
  <line class="chronograph-st2" x1="42.4" y1="77.1" x2="17.3" y2="62.6"/>
  <line class="chronograph-st2" x1="187.7" y1="233" x2="173.2" y2="207.9"/>
  <line class="chronograph-st2" x1="77.4" y1="42.1" x2="62.9" y2="17"/>
  <circle class="chronograph-st3" cx="77.4" cy="125" r="25.9"/>
  <circle class="chronograph-st3" cx="173.2" cy="125" r="25.9"/>
  <circle class="chronograph-st3" cx="125" cy="187.4" r="25.9"/>
  <g id="chronograph-hands">
    <rect id="chrono-lap-hand" x="124" y="15.2" class="chronograph-st4" width="2" height="110"/>
    <line id="chrono-tenth-hand" class="chronograph-st5" x1="77.4" y1="124" x2="77.4" y2="99.1"/>
    <line id="chrono-second-hand" class="chronograph-st6" x1="77.4" y1="124" x2="77.4" y2="99.1"/>
    <line id="chrono-minute-hand" class="chronograph-st6" x1="173.2" y1="124" x2="173.2" y2="99.1"/>
    <line id="chrono-hour-hand" class="chronograph-st6" x1="125.3" y1="186.4" x2="125.3" y2="161.5"/>
  </g>
  <rect id="chronograph-second-hand" x="124" y="15.2" class="chronograph-st7 primary-center" width="2" height="110"/>
  <rect id="chronograph-minute-hand" x="123" y="15.2" class="chronograph-st0 primary-center" width="4" height="110"/>
  <rect id="chronograph-hour-hand" x="121.5" y="46.3" class="primary-center" width="7" height="79"/>
</svg>
