<svg xmlns="http://www.w3.org/2000/svg" version="1.1" x="0" y="0" viewBox="0 0 618 618" xml:space="preserve">
  <g id="buttons">
    <path id="grande-primary-button" d="M556.3 93.5L516 133.8c-7.8 7.8-20.5 7.8-28.3 0l-17-17c-7.8-7.8-7.8-20.5 0-28.3L511 48.2c7.8-7.8 20.5-7.8 28.3 0l17 17C564.1 73 564.1 85.7 556.3 93.5z"/>
    <path id="grande-secondary-button" d="M511 566.8l-40.3-40.3c-7.8-7.8-7.8-20.5 0-28.3l17-17c7.8-7.8 20.5-7.8 28.3 0l40.3 40.3c7.8 7.8 7.8 20.5 0 28.3l-17 17C531.5 574.6 518.8 574.6 511 566.8z"/>
    <path id="grande-repeater-button" d="M61.7 521.5l40.3-40.3c7.8-7.8 20.5-7.8 28.3 0l17 17c7.8 7.8 7.8 20.5 0 28.3L107 566.8c-7.8 7.8-20.5 7.8-28.3 0l-17-17C53.9 542 53.9 529.3 61.7 521.5z"/>
  </g>
  <g>
    <path class="grande-st0" d="M309 608c-79.9 0-155-31.1-211.4-87.6S10 388.9 10 309c0-79.9 31.1-155 87.6-211.4S229.1 10 309 10c79.9 0 155 31.1 211.4 87.6S608 229.1 608 309c0 79.9-31.1 155-87.6 211.4S388.9 608 309 608z"/>
    <path d="M309 20c39 0 76.9 7.6 112.5 22.7 34.4 14.6 65.3 35.4 91.9 61.9 26.5 26.5 47.4 57.5 61.9 91.9C590.4 232.1 598 270 598 309s-7.6 76.9-22.7 112.5c-14.6 34.4-35.4 65.3-61.9 91.9 -26.5 26.5-57.5 47.4-91.9 61.9C385.9 590.4 348 598 309 598s-76.9-7.6-112.5-22.7c-34.4-14.6-65.3-35.4-91.9-61.9 -26.5-26.5-47.4-57.5-61.9-91.9C27.6 385.9 20 348 20 309s7.6-76.9 22.7-112.5c14.6-34.4 35.4-65.3 61.9-91.9s57.5-47.4 91.9-61.9C232.1 27.6 270 20 309 20M309 0C138.3 0 0 138.3 0 309s138.3 309 309 309 309-138.3 309-309S479.7 0 309 0L309 0z"/>
  </g>
  <g>
    <polygon class="grande-st1" points="312 19 309 127 306 19 "/>
    <polygon class="grande-st1" points="306 599 309 491 312 599 "/>
    <polygon class="grande-st1" points="599 312 491 309 599 306 "/>
    <polygon class="grande-st1" points="19 306 127 309 19 312 "/>
    <polygon class="grande-st1" points="561.6 166.6 466.6 218 558.6 161.4 "/>
    <polygon class="grande-st1" points="56.4 451.4 151.4 400 59.4 456.6 "/>
    <polygon class="grande-st1" points="456.6 59.4 400 151.4 451.4 56.4 "/>
    <polygon class="grande-st1" points="161.4 558.6 218 466.6 166.6 561.6 "/>
    <polygon class="grande-st1" points="166.6 56.4 218 151.4 161.4 59.4 "/>
    <polygon class="grande-st1" points="451.4 561.6 400 466.6 456.6 558.6 "/>
    <polygon class="grande-st1" points="59.4 161.4 151.4 218 56.4 166.6 "/>
    <polygon class="grande-st1" points="558.6 456.6 466.6 400 561.6 451.4 "/>
  </g>
  <g>
    <g id="grande-day-disc" class="grande-top-center">
      <circle class="grande-st2" cx="309" cy="179" r="114"/>
      <path d="M285.8 89l3.3-0.3c0.2 1.1 0.6 1.9 1.2 2.4 0.6 0.5 1.4 0.8 2.4 0.8 1.1 0 1.9-0.2 2.4-0.7 0.5-0.5 0.8-1 0.8-1.6 0-0.4-0.1-0.7-0.3-1 -0.2-0.3-0.6-0.5-1.2-0.7 -0.4-0.1-1.3-0.4-2.7-0.7 -1.8-0.4-3.1-1-3.8-1.6 -1-0.9-1.5-2-1.5-3.3 0-0.8 0.2-1.6 0.7-2.4 0.5-0.7 1.2-1.3 2.1-1.7s2-0.6 3.3-0.6c2.1 0 3.7 0.5 4.7 1.4 1.1 0.9 1.6 2.1 1.7 3.7l-3.4 0.1c-0.1-0.9-0.5-1.5-0.9-1.8 -0.5-0.4-1.2-0.6-2.1-0.6 -1 0-1.7 0.2-2.3 0.6 -0.4 0.3-0.5 0.6-0.5 1 0 0.4 0.2 0.7 0.5 1 0.4 0.4 1.4 0.7 3.1 1.1 1.6 0.4 2.8 0.8 3.6 1.2s1.4 1 1.8 1.7c0.4 0.7 0.7 1.6 0.7 2.6 0 1-0.3 1.8-0.8 2.7 -0.5 0.8-1.3 1.4-2.2 1.9 -1 0.4-2.2 0.6-3.6 0.6 -2.1 0-3.7-0.5-4.8-1.5C286.7 92.3 286 90.9 285.8 89z"/>
      <path d="M302.1 77.8l3.4 0 0 9c0 1.4 0 2.4 0.1 2.8 0.1 0.7 0.5 1.2 1 1.6 0.5 0.4 1.3 0.6 2.2 0.6 1 0 1.7-0.2 2.2-0.6 0.5-0.4 0.8-0.9 0.9-1.4 0.1-0.6 0.1-1.5 0.1-2.8l0-9.2 3.4 0 0 8.7c0 2-0.1 3.4-0.3 4.2 -0.2 0.8-0.5 1.5-1 2.1 -0.5 0.6-1.1 1-2 1.4 -0.8 0.3-1.9 0.5-3.2 0.5 -1.6 0-2.8-0.2-3.6-0.5 -0.8-0.4-1.5-0.8-1.9-1.4 -0.5-0.6-0.8-1.2-0.9-1.8 -0.2-1-0.3-2.4-0.3-4.2L302.1 77.8z"/>
      <path d="M318.9 94.4l0-16.6 3.3 0 6.8 11.1 0-11.1 3.1 0 0 16.6 -3.4 0L322 83.6l0 10.8L318.9 94.4z"/>
      <path d="M359.6 106.7l13-10.3 3.1 3.9 -7 9.4 10.7-4.7 3.1 3.9 -13 10.4 -1.9-2.4 10.2-8.1 -12.3 5.6 -2-2.5 8.2-10.7 -10.2 8.1L359.6 106.7z"/>
      <path d="M377.6 116.2c1.3-1.1 2.6-1.7 3.8-2.1 0.9-0.2 1.8-0.3 2.7-0.2 0.9 0.1 1.8 0.3 2.5 0.7 1 0.5 1.9 1.3 2.7 2.4 1.5 1.9 2.2 3.9 1.9 6 -0.3 2.1-1.5 4-3.6 5.7 -2.1 1.7-4.2 2.4-6.3 2.2 -2.1-0.2-3.9-1.2-5.4-3.2 -1.5-1.9-2.2-3.9-1.9-6C374.4 119.7 375.5 117.9 377.6 116.2zM379.8 118.8c-1.5 1.2-2.3 2.4-2.5 3.7 -0.2 1.3 0.1 2.4 0.9 3.5 0.8 1 1.9 1.6 3.2 1.7 1.3 0.1 2.7-0.5 4.2-1.7 1.5-1.2 2.3-2.4 2.5-3.6 0.2-1.2-0.1-2.4-1-3.5 -0.9-1.1-1.9-1.7-3.2-1.7C382.7 117.1 381.3 117.7 379.8 118.8z"/>
      <path d="M382.9 136l13-10.3 2 2.5 -4.4 12.2 8.7-6.9 1.9 2.4 -13 10.4 -2.1-2.6 4.3-12 -8.5 6.8L382.9 136z"/>
      <path d="M395.3 180.9l13.4 3.1 1.1-4.8 2.7 0.6 -2.9 12.9 -2.7-0.6 1.1-4.8 -13.4-3.1L395.3 180.9z"/>
      <path d="M409.2 194.7l-0.7 3.3 -8.8-2c-1.4-0.3-2.3-0.5-2.7-0.5 -0.7 0-1.3 0.2-1.8 0.6 -0.5 0.4-0.9 1.1-1.1 2 -0.2 0.9-0.2 1.7 0.1 2.2 0.3 0.6 0.7 0.9 1.2 1.2 0.5 0.2 1.4 0.5 2.7 0.8l9 2 -0.7 3.3 -8.5-1.9c-1.9-0.4-3.3-0.8-4.1-1.2 -0.8-0.4-1.4-0.8-1.8-1.4 -0.4-0.6-0.7-1.3-0.9-2.2 -0.1-0.9-0.1-1.9 0.2-3.2 0.4-1.5 0.8-2.7 1.3-3.4 0.5-0.7 1.1-1.2 1.8-1.6 0.7-0.3 1.3-0.5 2-0.5 1 0 2.4 0.2 4.2 0.6L409.2 194.7z"/>
      <path d="M389.3 207.4l16.2 3.7 -2.7 12 -2.7-0.6 2-8.7 -3.6-0.8 -1.9 8.1 -2.7-0.6 1.9-8.1 -4.4-1 -2.1 9 -2.7-0.6L389.3 207.4z"/>
      <path d="M366 245.4l10.8 13.2 -3.1 1.5 -7.2-9.2 2.2 11.6 -3.6 1.7 -7.7-9.2 2.7 11.6 -3 1.5 -3.6-16.7 3.2-1.5 8.4 9.7 -2.4-12.6L366 245.4z"/>
      <path d="M348.5 253.9l7.2 15 -11.1 5.3 -1.2-2.5 8.1-3.9 -1.6-3.3 -7.5 3.6 -1.2-2.5 7.5-3.6 -2-4.1 -8.4 4 -1.2-2.5L348.5 253.9z"/>
      <path d="M341.7 275.5l-5.5 2.7c-1.2 0.6-2.2 1-3 1.1 -1 0.2-2 0.1-2.9-0.3s-1.8-0.9-2.6-1.7c-0.8-0.8-1.5-1.9-2.2-3.3 -0.6-1.2-1-2.4-1.1-3.4 -0.1-1.3 0-2.4 0.3-3.4 0.3-0.8 0.8-1.5 1.5-2.2 0.6-0.5 1.4-1.1 2.5-1.6l5.7-2.7L341.7 275.5zM337.5 274.5l-4.8-9.9 -2.3 1.1c-0.8 0.4-1.4 0.7-1.8 1 -0.4 0.4-0.7 0.8-0.9 1.2 -0.2 0.4-0.2 1.1-0.1 1.8 0.1 0.8 0.5 1.7 1 2.9 0.6 1.2 1.1 2 1.6 2.5 0.5 0.5 1 0.9 1.6 1 0.5 0.2 1.1 0.2 1.7 0 0.5-0.1 1.3-0.5 2.5-1.1L337.5 274.5z"/>
      <path d="M288.5 263l-6 12.4 4.4 2.1 -1.2 2.5 -11.9-5.7 1.2-2.5 4.4 2.1 6-12.4L288.5 263z"/>
      <path d="M279.1 258.5l-7.2 15 -3-1.5 2.8-5.9 -5.9-2.8 -2.8 5.9 -3-1.5 7.2-15 3 1.5 -3.1 6.5 5.9 2.8 3.1-6.5L279.1 258.5z"/>
      <path d="M256.8 266.2l-3-1.5 3.9-8.1c0.6-1.3 1-2.1 1.1-2.6 0.2-0.7 0.1-1.3-0.2-1.9 -0.3-0.6-0.9-1.1-1.7-1.5 -0.9-0.4-1.6-0.5-2.2-0.4 -0.6 0.1-1.1 0.4-1.4 0.9 -0.3 0.5-0.8 1.3-1.4 2.5l-4 8.3 -3-1.5 3.8-7.9c0.9-1.8 1.6-3 2.1-3.7 0.5-0.7 1.1-1.1 1.8-1.4 0.7-0.3 1.5-0.4 2.3-0.4 0.9 0.1 1.9 0.4 3.1 0.9 1.4 0.7 2.4 1.4 3 2.1 0.6 0.7 1 1.4 1.1 2.1 0.2 0.7 0.2 1.4 0 2.1 -0.2 1-0.7 2.3-1.5 3.9L256.8 266.2z"/>
      <path d="M230.2 213.9l-16.2 3.7 -2.5-11.1 2.7-0.6 1.8 7.8 3.8-0.9 -1.5-6.8 2.7-0.6 1.5 6.8 6.9-1.6L230.2 213.9z"/>
      <path d="M227.1 200.1l-16.2 3.7 -1.6-6.9c-0.4-1.7-0.5-3-0.4-3.9 0.1-0.9 0.5-1.6 1.1-2.2 0.6-0.6 1.4-1.1 2.4-1.3 1.2-0.3 2.3-0.1 3.3 0.4 1 0.5 1.7 1.5 2.2 2.9 0.3-0.8 0.6-1.5 1-2.1 0.4-0.6 1.1-1.4 2.2-2.5l2.7-2.7 0.9 3.9 -3 3.2c-1.1 1.1-1.7 1.9-2 2.3 -0.3 0.4-0.4 0.8-0.4 1.1 0 0.4 0 0.9 0.2 1.7l0.2 0.7 6.8-1.5L227.1 200.1zM217 199l-0.6-2.4c-0.4-1.6-0.6-2.5-0.9-2.9s-0.5-0.6-0.9-0.8c-0.4-0.1-0.8-0.2-1.3-0.1 -0.5 0.1-1 0.4-1.2 0.7s-0.4 0.8-0.4 1.4c0 0.3 0.2 1.1 0.5 2.4l0.6 2.5L217 199z"/>
      <path d="M223.4 183.9l-16.2 3.7 -0.7-3.3 16.2-3.7L223.4 183.9z"/>
      <path d="M225.5 139.4l1.8-2.7c1 0.5 1.9 0.7 2.6 0.6 0.8-0.1 1.5-0.6 2.1-1.4 0.7-0.8 1-1.6 1-2.3 0-0.7-0.3-1.3-0.7-1.6 -0.3-0.2-0.6-0.4-1-0.4 -0.4 0-0.8 0.2-1.3 0.5 -0.3 0.2-1.1 0.8-2.2 1.6 -1.5 1.1-2.7 1.8-3.6 1.9 -1.3 0.2-2.5-0.1-3.6-0.9 -0.7-0.5-1.1-1.2-1.4-2 -0.3-0.8-0.3-1.7 0-2.7 0.3-0.9 0.8-1.9 1.6-2.9 1.3-1.6 2.6-2.6 4-2.8 1.4-0.3 2.7 0.1 3.9 1l-2 2.7c-0.8-0.4-1.4-0.6-2-0.4 -0.6 0.1-1.2 0.6-1.8 1.3 -0.6 0.8-0.9 1.5-1 2.2 0 0.4 0.1 0.8 0.5 1.1 0.3 0.2 0.7 0.3 1.1 0.2 0.5-0.1 1.5-0.7 2.8-1.7 1.3-1 2.4-1.7 3.2-2.1 0.8-0.4 1.6-0.5 2.5-0.4 0.8 0.1 1.7 0.5 2.5 1.1 0.7 0.6 1.3 1.4 1.6 2.3 0.3 0.9 0.3 1.9 0 2.9 -0.3 1-0.9 2.1-1.8 3.2 -1.3 1.6-2.7 2.6-4.2 2.9C228.6 140.7 227.1 140.3 225.5 139.4z"/>
      <path d="M249.2 118.3l-2.3 2.9 -3.9-1.2 -4.1 5.2 2.1 3.4 -2.2 2.8 -8.9-15.4 2.2-2.8L249.2 118.3zM240.3 119l-6.2-2.1 3.4 5.6L240.3 119z"/>
      <path d="M251.6 115.3l-10.8-8.6 -3.1 3.8 -2.2-1.8 8.2-10.3 2.2 1.8 -3.1 3.8 10.8 8.6L251.6 115.3z"/>
    </g>
    <path class="grande-st0" d="M309 65c-63 0-114 51.1-114 114 0 63 51.1 114 114 114s114-51.1 114-114S371.9 65 309 65zM346.8 100.4h-75.6V72.1h75.6V100.4z"/>
    <path d="M346.5 73v26h-75V73H346.5M348.5 71h-79v30h79V71L348.5 71z"/>
  </g>
  <g>
    <g id="grande-date-disc" class="grande-date-center">
      <circle class="grande-st2" cx="256.6" cy="218.3" r="107.2"/>
      <path d="M213 139.5l-2 1.2 -4.4-7.6c-0.3 1.1-0.9 2.1-1.7 3l-1.1-1.8c0.4-0.5 0.8-1.1 1.1-2 0.3-0.8 0.4-1.6 0.3-2.4l1.6-0.9L213 139.5z"/>
      <path d="M182.2 168.6l1.1-2c0.5 0.3 1 0.4 1.4 0.3 0.4-0.1 0.8-0.3 1-0.6 0.3-0.4 0.4-0.8 0.3-1.3 -0.1-0.5-0.4-0.9-0.9-1.3 -0.5-0.3-0.9-0.5-1.4-0.5 -0.5 0-0.8 0.3-1.1 0.6 -0.2 0.2-0.3 0.6-0.5 1l-1.4-1.3c0.4-0.5 0.6-1 0.5-1.4 0-0.4-0.2-0.8-0.6-1.1 -0.3-0.2-0.7-0.3-1-0.3 -0.3 0-0.6 0.2-0.9 0.6 -0.2 0.3-0.3 0.7-0.3 1.1 0.1 0.4 0.3 0.8 0.7 1.1l-1.6 1.5c-0.5-0.6-0.8-1.1-1-1.6 -0.2-0.5-0.2-1-0.1-1.6 0.1-0.6 0.4-1.1 0.8-1.7 0.7-0.9 1.5-1.4 2.5-1.5 0.8-0.1 1.5 0.1 2.1 0.5 0.9 0.6 1.2 1.6 1 2.9 0.5-0.5 1.1-0.7 1.8-0.7 0.7 0 1.3 0.2 1.9 0.6 0.9 0.6 1.3 1.5 1.5 2.6 0.1 1.1-0.1 2.1-0.8 3 -0.7 0.9-1.5 1.4-2.4 1.6C184 169.2 183.1 169.1 182.2 168.6z"/>
      <path d="M166.3 201l0.3-2.3c0.5 0.1 1 0 1.3-0.3 0.4-0.2 0.6-0.6 0.7-1 0.1-0.5 0-0.9-0.3-1.3 -0.3-0.4-0.8-0.7-1.6-0.9 -0.7-0.2-1.3-0.1-1.7 0.1 -0.4 0.2-0.7 0.6-0.8 1.1 -0.2 0.6 0 1.3 0.4 2l-0.7 1.8 -5.8-2.6 1.4-6 2.1 0.5 -1 4.3 1.9 0.8c-0.1-0.6-0.1-1.1 0-1.6 0.2-1 0.8-1.8 1.7-2.3 0.9-0.5 1.9-0.6 3.1-0.4 1 0.2 1.8 0.7 2.4 1.5 0.9 1 1.1 2.2 0.8 3.6 -0.3 1.1-0.8 1.9-1.5 2.4C168.2 200.9 167.3 201.1 166.3 201z"/>
      <path d="M159.4 239.5l-2.1 0.4 -1.3-7.8 1.7-0.3c0.7 0.5 1.8 1 3.1 1.5s2.7 0.8 4.1 0.9c1.4 0.1 2.6 0.1 3.7-0.1l0.4 2.2c-1.7 0.2-3.4 0.2-5.2-0.2 -1.8-0.4-3.5-0.9-5-1.8L159.4 239.5z"/>
      <path d="M180.8 271.7l-1.4-1.8c0.4-0.3 0.6-0.6 0.6-0.9 0.1-0.3 0-0.6-0.2-0.9 -0.3-0.4-0.7-0.6-1.2-0.7 -0.6 0-1.4 0.3-2.7 0.9 0.9 0.1 1.6 0.6 2 1.3 0.5 0.8 0.7 1.7 0.4 2.7 -0.2 1-0.9 1.8-1.8 2.4 -1 0.7-2.1 0.9-3.1 0.7 -1-0.2-1.8-0.8-2.5-1.7 -0.7-1-0.8-2.1-0.4-3.3 0.4-1.2 1.5-2.4 3.3-3.5 1.9-1.2 3.4-1.7 4.7-1.6 1.3 0.2 2.3 0.8 3 1.9 0.5 0.8 0.7 1.6 0.6 2.3C181.9 270.3 181.5 271 180.8 271.7zM173.6 270c-0.6 0.4-1 0.9-1.2 1.4 -0.2 0.5-0.1 1 0.1 1.3 0.2 0.4 0.6 0.6 1 0.6 0.4 0.1 1-0.1 1.6-0.5 0.7-0.4 1.1-0.9 1.2-1.3 0.1-0.5 0.1-0.9-0.2-1.3 -0.2-0.4-0.6-0.6-1.1-0.7C174.7 269.5 174.2 269.7 173.6 270z"/>
      <path d="M206.8 295.1l1.9 1.3 -4.9 7.3c1.1-0.2 2.3-0.1 3.5 0.2l-1.2 1.7c-0.6-0.2-1.4-0.2-2.3-0.2 -0.9 0.1-1.7 0.3-2.3 0.8l-1.6-1.1L206.8 295.1z"/>
      <path d="M201.2 291.4l1.9 1.3 -4.9 7.3c1.1-0.2 2.3-0.1 3.5 0.2l-1.2 1.7c-0.6-0.2-1.4-0.2-2.3-0.2 -0.9 0.1-1.7 0.3-2.3 0.8l-1.6-1.1L201.2 291.4z"/>
      <path d="M243.1 307.9l2.3 0.4 -1.6 8.6c1-0.6 2.1-1 3.3-1.2l-0.4 2.1c-0.6 0.1-1.3 0.3-2.1 0.7 -0.8 0.4-1.4 1-1.8 1.6l-1.9-0.3L243.1 307.9z"/>
      <path d="M240.9 310.8l-2.3-0.1c0-0.6-0.1-1-0.3-1.4 -0.3-0.4-0.6-0.6-1-0.7 -0.5-0.1-0.9 0-1.3 0.3 -0.4 0.3-0.6 0.7-0.8 1.4 -0.1 0.6 0 1.1 0.2 1.5 0.2 0.4 0.6 0.6 1 0.7 0.3 0.1 0.7 0.1 1.1 0l-0.6 1.8c-0.6-0.1-1.1-0.1-1.5 0.1 -0.4 0.2-0.6 0.6-0.7 1 -0.1 0.4 0 0.7 0.2 1 0.2 0.3 0.5 0.5 0.9 0.5 0.4 0.1 0.7 0 1.1-0.2 0.3-0.2 0.6-0.6 0.7-1.1l2 0.8c-0.3 0.7-0.6 1.2-1 1.6 -0.4 0.4-0.9 0.6-1.4 0.8 -0.6 0.1-1.2 0.2-1.8 0 -1.1-0.2-2-0.7-2.5-1.6 -0.4-0.7-0.6-1.4-0.5-2.1 0.2-1 0.9-1.8 2.2-2.2 -0.7-0.3-1.1-0.7-1.5-1.3 -0.3-0.6-0.4-1.2-0.3-2 0.2-1 0.7-1.9 1.6-2.5 0.9-0.6 1.9-0.8 3.1-0.6 1.1 0.2 1.9 0.7 2.5 1.4C240.7 308.9 241 309.8 240.9 310.8z"/>
      <path d="M279.7 305.9l2.3-0.5 1.9 8.5c0.7-1 1.5-1.7 2.5-2.4l0.5 2.1c-0.5 0.3-1.1 0.8-1.7 1.5 -0.6 0.7-0.9 1.4-1 2.2l-1.8 0.4L279.7 305.9z"/>
      <path d="M278.6 309.4l-2.2 0.7c-0.2-0.5-0.5-0.9-0.8-1.1 -0.4-0.2-0.8-0.3-1.2-0.2 -0.5 0.1-0.8 0.4-1.1 0.8 -0.2 0.5-0.3 1.1-0.1 1.8 0.2 0.7 0.4 1.2 0.9 1.5 0.4 0.3 0.9 0.4 1.4 0.3 0.6-0.1 1.2-0.6 1.6-1.3l1.9-0.1 0.2 6.4 -6 1.3 -0.5-2.1 4.3-1 -0.1-2.1c-0.4 0.4-0.9 0.6-1.5 0.7 -1 0.2-1.9 0-2.8-0.5 -0.9-0.6-1.4-1.4-1.7-2.6 -0.2-1-0.1-1.9 0.3-2.8 0.5-1.2 1.5-2 2.9-2.3 1.1-0.2 2-0.1 2.9 0.3C277.6 307.7 278.2 308.4 278.6 309.4z"/>
      <path d="M311.2 288.8l1.9-1.4 5.1 7.1c0.2-1.1 0.7-2.2 1.4-3.2l1.2 1.7c-0.4 0.5-0.7 1.2-0.9 2.1s-0.3 1.7-0.1 2.4l-1.5 1.1L311.2 288.8z"/>
      <path d="M315.5 297.8l1.3 1.7 -6.4 4.6 -1-1.4c0.2-0.9 0.2-2 0-3.4 -0.2-1.4-0.5-2.7-1-4 -0.5-1.3-1.1-2.4-1.7-3.3l1.8-1.3c0.9 1.4 1.7 3 2.2 4.8 0.5 1.8 0.7 3.6 0.6 5.3L315.5 297.8z"/>
      <path d="M335.4 261.5l1.2-2 7.5 4.5c-0.2-1.1-0.2-2.3 0-3.5l1.8 1.1c-0.1 0.6-0.2 1.4-0.1 2.3 0.1 0.9 0.4 1.6 0.9 2.3l-1 1.6L335.4 261.5z"/>
      <path d="M336.8 264.5l-0.9 2.1c-0.4-0.2-0.8-0.2-1.1-0.2 -0.3 0.1-0.6 0.3-0.8 0.6 -0.2 0.4-0.3 0.9-0.1 1.4 0.2 0.5 0.9 1.2 2 2 -0.3-0.8-0.2-1.6 0.3-2.4 0.5-0.8 1.2-1.3 2.2-1.5 1-0.2 2 0 3 0.6 1.1 0.6 1.7 1.5 2 2.5 0.3 1 0.1 2-0.5 3 -0.6 1.1-1.6 1.7-2.8 1.9 -1.2 0.2-2.8-0.3-4.6-1.4 -1.9-1.1-3.1-2.3-3.5-3.5 -0.4-1.2-0.3-2.4 0.4-3.5 0.5-0.8 1.1-1.3 1.8-1.6C335 264.1 335.9 264.1 336.8 264.5zM338.4 271.6c0.6 0.4 1.2 0.5 1.8 0.5s0.9-0.3 1.1-0.7c0.2-0.4 0.3-0.8 0.1-1.2 -0.1-0.4-0.5-0.8-1.2-1.2 -0.7-0.4-1.2-0.6-1.7-0.5 -0.5 0.1-0.8 0.3-1.1 0.7 -0.2 0.4-0.3 0.8-0.1 1.2C337.5 270.9 337.9 271.3 338.4 271.6z"/>
      <path d="M347.3 231.6l-2.1-0.3 1.1-8.1c0.8 0.2 1.5 0.6 2.2 1.1 0.7 0.5 1.5 1.5 2.5 3 0.8 1.2 1.4 1.9 1.7 2.2 0.4 0.4 0.9 0.6 1.3 0.7 0.5 0.1 0.9 0 1.2-0.3 0.3-0.2 0.5-0.6 0.6-1.1 0.1-0.5 0-0.9-0.3-1.2 -0.3-0.3-0.7-0.6-1.4-0.7l0.5-2.3c1.2 0.3 2.1 0.9 2.5 1.7 0.5 0.8 0.6 1.7 0.5 2.8 -0.2 1.2-0.6 2.1-1.3 2.7 -0.7 0.6-1.6 0.8-2.5 0.7 -0.5-0.1-1-0.2-1.5-0.5 -0.5-0.3-0.9-0.6-1.4-1.1 -0.3-0.3-0.8-0.9-1.3-1.7 -0.6-0.8-0.9-1.3-1.1-1.6 -0.2-0.2-0.4-0.4-0.6-0.6L347.3 231.6z"/>
      <path d="M344.4 237.1l0.3-2.3 8.7 1.2c-0.7-0.9-1.1-2-1.3-3.2l2.1 0.3c0.1 0.6 0.4 1.3 0.8 2.1 0.5 0.8 1 1.3 1.7 1.7l-0.3 1.9L344.4 237.1z"/>
      <path d="M345.8 193.9l-2.1 0.6 -2.2-7.8c0.8-0.1 1.6-0.1 2.4 0.1 0.8 0.2 2 0.8 3.5 1.7 1.2 0.7 2 1.2 2.4 1.3 0.5 0.2 1 0.2 1.5 0.1 0.5-0.1 0.8-0.4 1-0.7 0.2-0.3 0.2-0.7 0.1-1.2 -0.1-0.5-0.4-0.8-0.7-1 -0.4-0.2-0.9-0.2-1.5-0.1l-0.4-2.3c1.3-0.2 2.3 0 3 0.5 0.7 0.6 1.2 1.4 1.5 2.4 0.3 1.2 0.3 2.1-0.2 3 -0.4 0.8-1.1 1.4-2 1.6 -0.5 0.1-1.1 0.2-1.6 0.1 -0.5-0.1-1.1-0.2-1.7-0.5 -0.4-0.2-1.1-0.5-1.9-1.1 -0.8-0.5-1.4-0.9-1.7-1 -0.3-0.1-0.5-0.2-0.7-0.3L345.8 193.9z"/>
      <path d="M346.8 193.4l0.9 2.1c-0.5 0.2-0.9 0.5-1.1 0.9 -0.2 0.4-0.3 0.8-0.1 1.2 0.1 0.5 0.4 0.8 0.8 1 0.4 0.2 1 0.2 1.5 0.1 0.6-0.2 1-0.4 1.2-0.8 0.2-0.4 0.3-0.8 0.2-1.2 -0.1-0.3-0.2-0.6-0.5-1l1.9-0.3c0.2 0.6 0.4 1 0.8 1.3s0.8 0.3 1.2 0.2c0.4-0.1 0.7-0.3 0.8-0.6 0.2-0.3 0.2-0.6 0.1-1 -0.1-0.4-0.3-0.7-0.7-0.9 -0.3-0.2-0.8-0.3-1.3-0.2l-0.2-2.2c0.7-0.1 1.4 0 1.9 0.2 0.5 0.2 0.9 0.5 1.3 0.9 0.4 0.5 0.7 1 0.8 1.6 0.3 1.1 0.2 2.1-0.3 2.9 -0.4 0.7-1 1.2-1.7 1.4 -1 0.3-2-0.1-2.9-1 0 0.7-0.1 1.3-0.5 1.9 -0.4 0.5-0.9 0.9-1.6 1.1 -1 0.3-2 0.1-2.9-0.4 -0.9-0.5-1.5-1.4-1.9-2.5 -0.3-1.1-0.2-2 0.2-2.9C345.1 194.4 345.8 193.8 346.8 193.4z"/>
      <path d="M329.1 160.5l-1.7 1.3 -5.1-6.4c0.7-0.4 1.5-0.7 2.3-0.8 0.8-0.1 2.1 0 3.9 0.2 1.4 0.2 2.3 0.3 2.8 0.3 0.6 0 1-0.2 1.4-0.5 0.4-0.3 0.6-0.7 0.7-1.1 0-0.4-0.1-0.8-0.4-1.2 -0.3-0.4-0.7-0.6-1.1-0.6s-0.9 0.1-1.4 0.5l-1.3-2c1.1-0.7 2.1-0.9 3-0.7 0.9 0.2 1.7 0.8 2.4 1.6 0.7 0.9 1.1 1.9 1 2.8s-0.5 1.7-1.2 2.3c-0.4 0.3-0.9 0.6-1.4 0.7 -0.5 0.2-1.1 0.2-1.8 0.2 -0.5 0-1.2-0.1-2.2-0.2 -1-0.2-1.6-0.2-1.9-0.3 -0.3 0-0.6 0-0.8 0L329.1 160.5z"/>
      <path d="M329.8 159.9l1.6 1.7c-0.4 0.4-0.6 0.8-0.6 1.2 0 0.4 0.1 0.8 0.3 1.2 0.3 0.4 0.7 0.6 1.2 0.6 0.5 0 1.1-0.2 1.7-0.7 0.6-0.5 0.9-0.9 1-1.4 0.1-0.5 0-0.9-0.4-1.4 -0.4-0.5-1-0.8-1.8-0.8l-1-1.6 5.7-3 3.8 4.8 -1.7 1.4 -2.7-3.4 -1.8 1c0.5 0.2 1 0.6 1.3 1 0.6 0.8 0.9 1.7 0.8 2.7 -0.1 1-0.7 1.9-1.6 2.7 -0.8 0.6-1.7 1-2.6 1 -1.3 0.1-2.4-0.5-3.3-1.6 -0.7-0.9-1-1.8-1-2.7C328.7 161.4 329.1 160.6 329.8 159.9z"/>
      <path d="M300.2 136.7l-1 1.9 -7.2-3.8c0.5-0.7 1.1-1.2 1.8-1.7 0.7-0.4 2-0.9 3.7-1.3 1.4-0.4 2.3-0.6 2.6-0.8 0.5-0.3 0.9-0.6 1.1-1 0.2-0.5 0.3-0.9 0.2-1.3 -0.1-0.4-0.4-0.7-0.8-0.9 -0.4-0.2-0.8-0.3-1.2-0.2 -0.4 0.1-0.8 0.5-1.1 1l-1.9-1.3c0.7-1.1 1.5-1.7 2.4-1.8 0.9-0.1 1.8 0 2.8 0.5 1.1 0.6 1.7 1.3 2 2.2 0.3 0.9 0.2 1.8-0.2 2.6 -0.3 0.5-0.6 0.9-1 1.2 -0.4 0.3-0.9 0.7-1.5 0.9 -0.4 0.2-1.1 0.4-2.1 0.6 -1 0.2-1.6 0.4-1.9 0.5 -0.3 0.1-0.5 0.2-0.7 0.3L300.2 136.7z"/>
      <path d="M303.7 129.9l1-1.9 7 3.7 -0.8 1.5c-0.9 0.3-1.9 0.8-3.1 1.5 -1.2 0.7-2.2 1.6-3.2 2.7 -1 1-1.7 2-2.2 3l-2-1.1c0.8-1.5 1.9-2.8 3.3-4 1.4-1.2 2.9-2.2 4.5-2.9L303.7 129.9z"/>
      <path d="M264.8 124.9l-0.2 2.1 -8.1-0.7c0.2-0.8 0.5-1.6 1-2.2 0.5-0.7 1.5-1.6 2.9-2.7 1.1-0.9 1.8-1.5 2.1-1.8 0.4-0.4 0.6-0.9 0.6-1.4 0-0.5-0.1-0.9-0.3-1.2 -0.3-0.3-0.6-0.5-1.1-0.5 -0.5 0-0.9 0.1-1.2 0.3 -0.3 0.3-0.5 0.7-0.6 1.4l-2.3-0.4c0.2-1.3 0.8-2.1 1.5-2.6 0.8-0.5 1.7-0.7 2.8-0.6 1.2 0.1 2.1 0.5 2.7 1.2 0.6 0.7 0.9 1.5 0.8 2.5 0 0.5-0.2 1.1-0.4 1.5 -0.2 0.5-0.6 1-1.1 1.5 -0.3 0.3-0.9 0.8-1.6 1.4 -0.8 0.6-1.3 1-1.5 1.2 -0.2 0.2-0.4 0.4-0.5 0.6L264.8 124.9z"/>
      <path d="M264.7 124.2l2.3-0.1c0 0.5 0.1 0.8 0.3 1 0.2 0.2 0.5 0.4 0.9 0.4 0.5 0 0.9-0.1 1.3-0.6 0.4-0.4 0.7-1.3 0.9-2.7 -0.6 0.6-1.4 0.9-2.3 0.8 -0.9-0.1-1.7-0.5-2.4-1.3 -0.6-0.8-0.9-1.8-0.8-2.9 0.1-1.2 0.6-2.2 1.3-2.9 0.8-0.7 1.7-1 2.9-0.9 1.2 0.1 2.2 0.7 2.9 1.7 0.7 1 1 2.6 0.8 4.8 -0.2 2.2-0.7 3.8-1.6 4.7 -0.9 0.9-2 1.3-3.3 1.2 -0.9-0.1-1.7-0.4-2.2-1C265.1 126 264.8 125.2 264.7 124.2zM270.4 119.6c0.1-0.7-0.1-1.3-0.4-1.8 -0.3-0.4-0.7-0.7-1.1-0.7 -0.4 0-0.8 0.1-1.1 0.4 -0.3 0.3-0.5 0.9-0.6 1.6 -0.1 0.8 0 1.4 0.3 1.8 0.3 0.4 0.6 0.6 1.1 0.6 0.4 0 0.8-0.1 1.2-0.4C270.1 120.8 270.3 120.3 270.4 119.6z"/>
      <path d="M220.8 133l2-1c0.2 0.5 0.6 0.9 1 1.1 0.4 0.2 0.8 0.2 1.2 0.1 0.5-0.2 0.8-0.4 1-0.9 0.2-0.4 0.2-1 0-1.6 -0.2-0.6-0.5-0.9-0.9-1.2 -0.4-0.2-0.8-0.3-1.3-0.1 -0.3 0.1-0.6 0.3-1 0.5l-0.4-1.9c0.6-0.2 1-0.5 1.2-0.8 0.2-0.4 0.3-0.8 0.1-1.3 -0.1-0.4-0.3-0.7-0.7-0.8 -0.3-0.2-0.6-0.2-1 0 -0.4 0.1-0.7 0.4-0.8 0.7 -0.2 0.3-0.2 0.8-0.1 1.3l-2.1 0.3c-0.1-0.7-0.1-1.4 0.1-1.9 0.1-0.5 0.4-1 0.9-1.4 0.4-0.4 1-0.7 1.6-0.9 1.1-0.4 2.1-0.3 2.9 0.2 0.7 0.4 1.2 0.9 1.4 1.6 0.3 1 0 2-0.9 3 0.7-0.1 1.3 0.1 1.9 0.4 0.6 0.4 1 0.9 1.2 1.6 0.3 1 0.2 2-0.3 2.9 -0.5 1-1.3 1.6-2.4 2 -1 0.3-2 0.3-2.9 0C221.9 134.6 221.2 133.9 220.8 133z"/>
      <path d="M234.8 131.7l-2.2 0.7 -2.7-8.3c-0.6 1-1.3 1.9-2.3 2.6l-0.7-2c0.5-0.4 1-0.9 1.5-1.7 0.5-0.7 0.8-1.5 0.8-2.3l1.8-0.6L234.8 131.7z"/>
      <circle cx="194.1" cy="148.3" r="2.5"/>
      <circle cx="172.1" cy="178.9" r="2.5"/>
      <circle cx="163" cy="215.5" r="2.5"/>
      <circle cx="168.7" cy="253.4" r="2.5"/>
      <circle cx="188.2" cy="286" r="2.5"/>
      <circle cx="220" cy="309.2" r="2.5"/>
      <circle cx="258.5" cy="315.2" r="2.5"/>
      <circle cx="296.5" cy="306.9" r="2.5"/>
      <circle cx="327.9" cy="283.9" r="2.5"/>
      <circle cx="347.8" cy="250.7" r="2.5"/>
      <circle cx="352.2" cy="212.3" r="2.5"/>
      <circle cx="343" cy="174.5" r="2.5"/>
      <circle cx="318.9" cy="144.1" r="2.5"/>
      <circle cx="284.5" cy="125.4" r="2.5"/>
      <circle cx="245.3" cy="123.6" r="2.5"/>
    </g>
    <path class="grande-st0" d="M256.6 111.1c-12.6 0-24.7 2.2-36 6.2l10.9 18.9 -33.3 19.2 -10.9-18.9c-23.2 19.7-37.9 49-37.9 81.8 0 59.2 48 107.2 107.2 107.1 59.2 0 107.2-48 107.1-107.2C363.8 159.1 315.8 111.1 256.6 111.1z"/>
    <path d="M218.3 117.3l10.5 18.1L199 152.7l-10.5-18.1L218.3 117.3M219.1 114.6l-33.3 19.2 12.5 21.6 33.3-19.2L219.1 114.6 219.1 114.6z"/>
  </g>
  <g>
    <g id="grande-month-disc" class="grande-month-center">
      <ellipse transform="matrix(0.8659 -0.5002 0.5002 0.8659 -65.6742 208.986)" class="grande-st2" cx="357" cy="227" rx="114" ry="114"/>
      <path d="M398.7 131.2l2.6 1.5 -4.8 8.2c-0.6 1.1-1.2 1.9-1.7 2.3 -0.7 0.6-1.5 1-2.4 1 -0.9 0.1-1.9-0.2-3-0.8 -1.3-0.7-2.1-1.7-2.3-2.8 -0.3-1.1 0-2.4 0.8-3.8l2.6 1.1c-0.4 0.8-0.6 1.4-0.6 1.8 0 0.6 0.3 1.1 0.9 1.4 0.6 0.3 1.1 0.4 1.5 0.2s1-0.8 1.6-1.9L398.7 131.2z"/>
      <path d="M407 153.4l-2.9-1.7 0.6-3.6 -5.2-3 -2.8 2.3 -2.8-1.6 12.6-10.1 2.8 1.6L407 153.4zM405.2 145.4l1-5.9 -4.5 3.8L405.2 145.4z"/>
      <path d="M407.1 153.4l7.5-13 2.6 1.5 0.3 11.8 5-8.7 2.4 1.4 -7.5 13 -2.6-1.5 -0.3-11.5 -4.9 8.5L407.1 153.4z"/>
      <path d="M424 168.1l13-7.5 5.2 8.9 -2.2 1.3 -3.6-6.3 -3.1 1.8 3.1 5.4 -2.2 1.3 -3.1-5.4 -5.5 3.2L424 168.1z"/>
      <path d="M429.6 177.9l13-7.5 5.6 9.7 -2.2 1.3 -4.1-7 -2.9 1.7 3.8 6.5 -2.2 1.3 -3.8-6.5 -3.5 2 4.2 7.3 -2.2 1.3L429.6 177.9z"/>
      <path d="M448.8 181.1l3 5.2c0.6 1 1 1.8 1.2 2.4 0.2 0.6 0.3 1.1 0.2 1.7s-0.2 1.1-0.5 1.6c-0.3 0.5-0.7 1-1.3 1.3 -0.6 0.4-1.3 0.5-2 0.5 -0.7 0-1.3-0.3-1.9-0.7 0.2 0.9 0.2 1.8-0.1 2.5 -0.3 0.7-0.8 1.3-1.6 1.8 -0.6 0.3-1.2 0.5-2 0.6 -0.7 0-1.4-0.1-2-0.4s-1.2-0.8-1.6-1.4c-0.3-0.4-0.9-1.5-1.9-3.1l-2.6-4.4L448.8 181.1zM443 188l-3.5 2 1.4 2.4c0.5 0.9 0.9 1.5 1.1 1.8 0.3 0.3 0.7 0.6 1.1 0.7 0.4 0.1 0.9 0 1.3-0.3 0.4-0.2 0.7-0.5 0.8-0.9s0.2-0.7 0.1-1.2c-0.1-0.4-0.5-1.2-1.2-2.4L443 188zM448.2 185l-3 1.7 1 1.7c0.6 1 1 1.7 1.1 1.9 0.3 0.4 0.7 0.7 1.1 0.8 0.4 0.1 0.8 0 1.2-0.2 0.4-0.2 0.7-0.5 0.8-0.9 0.1-0.4 0.1-0.8-0.1-1.3 -0.1-0.3-0.5-1-1.3-2.3L448.2 185z"/>
      <path d="M445.2 206.2h15v4.5l-10.3 2.7 10.3 2.7v4.6h-15v-2.8H457l-11.8-3V212l11.8-3h-11.8V206.2z"/>
      <path d="M445.2 235.7v-3.3l3.4-1.3v-6l-3.4-1.2v-3.2l15 5.9v3.2L445.2 235.7zM451.2 230.1l5.6-2.1 -5.6-2V230.1z"/>
      <path d="M445.2 235.8h15v6.4c0 1.6-0.1 2.8-0.4 3.5 -0.3 0.7-0.8 1.3-1.4 1.7s-1.5 0.7-2.4 0.7c-1.1 0-2.1-0.3-2.8-1s-1.2-1.7-1.4-3c-0.4 0.7-0.8 1.2-1.3 1.6s-1.3 1-2.4 1.7l-2.9 1.8v-3.6l3.3-2.2c1.2-0.8 1.9-1.3 2.2-1.6s0.5-0.6 0.6-0.9c0.1-0.3 0.2-0.8 0.2-1.5v-0.6h-6.3V235.8zM453.9 238.8v2.2c0 1.5 0.1 2.4 0.2 2.7s0.3 0.6 0.6 0.9 0.7 0.3 1.1 0.3c0.5 0 0.9-0.1 1.2-0.4 0.3-0.3 0.5-0.7 0.6-1.1 0-0.2 0.1-1 0.1-2.2v-2.4H453.9z"/>
      <path d="M436.7 268.8l1.7-2.9 3.6 0.6 3-5.2 -2.3-2.8 1.6-2.8 10.1 12.6 -1.6 2.8L436.7 268.8zM444.6 266.9l5.9 1 -3.8-4.5L444.6 266.9z"/>
      <path d="M436.7 268.8l13 7.5 -2.4 4.2c-0.9 1.6-1.6 2.6-2 3 -0.6 0.6-1.4 1-2.4 1.1 -0.9 0.1-1.9-0.1-3-0.7 -0.8-0.5-1.4-1-1.8-1.6 -0.4-0.6-0.6-1.2-0.6-1.8 -0.1-0.6 0-1.2 0.2-1.7 0.2-0.7 0.7-1.6 1.4-2.8l1-1.7 -4.9-2.8L436.7 268.8zM445.9 277.7l-3.7-2.1 -0.8 1.4c-0.6 1-0.9 1.8-1 2.2s0 0.8 0.2 1.2c0.2 0.4 0.5 0.7 0.8 0.9 0.5 0.3 0.9 0.4 1.4 0.3s0.9-0.3 1.2-0.7c0.2-0.3 0.6-0.9 1.2-1.8L445.9 277.7z"/>
      <path d="M430.4 279.6l13 7.5 -3.2 5.5c-0.8 1.4-1.5 2.3-2.1 2.8 -0.6 0.5-1.3 0.8-2.1 0.8s-1.6-0.2-2.4-0.6c-1-0.6-1.6-1.3-1.9-2.3 -0.3-0.9-0.2-2 0.3-3.3 -0.7 0.4-1.3 0.6-1.9 0.8 -0.6 0.1-1.6 0.2-3 0.3l-3.5 0.1 1.8-3.1 3.9-0.3c1.4-0.1 2.3-0.2 2.7-0.3s0.7-0.3 1-0.5c0.3-0.2 0.6-0.6 0.9-1.2l0.3-0.5 -5.4-3.1L430.4 279.6zM436.4 286.6l-1.1 1.9c-0.7 1.3-1.1 2.1-1.2 2.5 -0.1 0.4 0 0.7 0.1 1.1s0.4 0.6 0.8 0.8c0.4 0.3 0.9 0.3 1.3 0.3 0.4-0.1 0.8-0.3 1.1-0.7 0.2-0.2 0.5-0.8 1.2-1.9l1.2-2.1L436.4 286.6z"/>
      <path d="M417.9 296.5l7.5 13 -3.9 2.3 -7.5-7.5 2.8 10.2 -3.9 2.3 -7.5-13 2.4-1.4 5.9 10.2 -3.3-11.7 2.5-1.5 8.5 8.8 -5.9-10.2L417.9 296.5z"/>
      <path d="M392.4 311.2l2.9-1.7 2.8 2.3 5.2-3 -0.6-3.6 2.8-1.6 2.4 15.9 -2.8 1.6L392.4 311.2zM400.2 313.6l4.6 3.8 -1-5.8L400.2 313.6z"/>
      <path d="M390.6 312.2l3.2 5.5 9.1 4.8 -3.1 1.8 -6-3.4 0 6.9 -3 1.7 0.4-10.3 -3.2-5.5L390.6 312.2z"/>
      <path d="M370.3 332.7h-3v-9.5c0-1.2 0.1-2.2 0.3-2.9 0.3-0.9 0.8-1.6 1.6-2.1s1.8-0.8 3.1-0.8c1.5 0 2.6 0.4 3.4 1.2 0.8 0.8 1.2 2 1.2 3.7l-2.9 0.3c0-0.9-0.2-1.5-0.4-1.8 -0.3-0.5-0.8-0.8-1.5-0.8 -0.7 0-1.2 0.2-1.4 0.6s-0.4 1.2-0.4 2.4V332.7z"/>
      <path d="M365.6 332.7h-3v-8.1c0-1.3 0-2.1-0.1-2.5 -0.1-0.6-0.4-1.1-0.9-1.5s-1.2-0.6-2-0.6c-0.9 0-1.5 0.2-1.9 0.5 -0.4 0.4-0.7 0.8-0.8 1.3s-0.1 1.4-0.1 2.6v8.3h-3v-7.9c0-1.8 0.1-3.1 0.2-3.8s0.5-1.4 0.9-1.9c0.4-0.5 1-0.9 1.8-1.2 0.7-0.3 1.7-0.5 2.9-0.5 1.4 0 2.5 0.2 3.3 0.5 0.7 0.3 1.3 0.8 1.8 1.3 0.4 0.5 0.7 1.1 0.9 1.7 0.2 0.9 0.3 2.1 0.3 3.8V332.7z"/>
      <path d="M352 317.7v15h-3l-6.2-10v10H340v-15h3l6.1 9.8v-9.8H352z"/>
      <path d="M312.7 324.3l-2.6-1.5 4.8-8.2c0.6-1.1 1.2-1.9 1.7-2.3 0.7-0.6 1.5-1 2.4-1 0.9-0.1 1.9 0.2 3 0.8 1.3 0.7 2.1 1.7 2.3 2.8 0.3 1.1 0 2.4-0.8 3.8l-2.6-1.1c0.4-0.8 0.6-1.4 0.6-1.8 0-0.6-0.3-1.1-0.9-1.4 -0.6-0.3-1.1-0.4-1.5-0.2s-1 0.8-1.6 1.9L312.7 324.3z"/>
      <path d="M308.6 321.9l-2.6-1.5 4.1-7.1c0.6-1.1 1-1.9 1.2-2.2 0.2-0.6 0.2-1.2-0.1-1.7 -0.2-0.6-0.7-1.1-1.5-1.5 -0.7-0.4-1.4-0.6-2-0.5 -0.6 0.1-1 0.3-1.3 0.7 -0.3 0.4-0.8 1.1-1.4 2.1l-4.2 7.2 -2.6-1.5 3.9-6.8c0.9-1.6 1.6-2.6 2.1-3.2 0.5-0.6 1.1-1 1.7-1.2 0.6-0.2 1.4-0.3 2.1-0.2 0.8 0.1 1.7 0.5 2.7 1.1 1.2 0.7 2.1 1.4 2.6 2.1 0.5 0.7 0.8 1.3 0.9 2 0.1 0.7 0.1 1.3-0.1 1.9 -0.3 0.8-0.8 2-1.6 3.5L308.6 321.9z"/>
      <path d="M304.3 302.1l-7.5 12.9 -2.6-1.5 6.2-10.7 -6.5-3.8 1.3-2.2L304.3 302.1z"/>
      <path d="M281.7 276.7l1.7 2.9 -2.3 2.8 3 5.2 3.6-0.6 1.6 2.8 -15.9 2.4 -1.6-2.8L281.7 276.7zM279.3 284.5l-3.8 4.6 5.8-1L279.3 284.5z"/>
      <path d="M268.6 284.2l-1.5-2.6 7.1-4.1c1.1-0.6 1.8-1.1 2.1-1.4 0.5-0.4 0.7-0.9 0.8-1.5 0.1-0.6-0.1-1.3-0.5-2 -0.4-0.7-0.9-1.2-1.4-1.4 -0.5-0.2-1-0.2-1.5 0s-1.2 0.6-2.3 1.2l-7.2 4.2 -1.5-2.6 6.8-3.9c1.6-0.9 2.7-1.5 3.4-1.7 0.7-0.2 1.4-0.3 2.1-0.2 0.7 0.1 1.3 0.4 1.9 0.9s1.2 1.2 1.8 2.3c0.7 1.2 1.1 2.3 1.2 3.1 0.1 0.8 0 1.5-0.2 2.2 -0.2 0.6-0.6 1.2-1 1.6 -0.6 0.6-1.7 1.3-3.2 2.2L268.6 284.2z"/>
      <path d="M266.6 261.6l-2.2 1.3 -3.3-5.7 5.2-3c0.9 0.2 1.8 0.8 2.8 1.6 1 0.8 1.8 1.8 2.4 2.8 0.8 1.4 1.2 2.7 1.2 4.1 0 1.3-0.4 2.6-1.1 3.7 -0.8 1.1-1.8 2-3 2.8 -1.4 0.8-2.7 1.2-4.1 1.2s-2.7-0.3-3.9-1.1c-0.9-0.6-1.7-1.5-2.4-2.7 -0.9-1.6-1.3-3.1-1.2-4.4 0.2-1.3 0.8-2.4 1.8-3.4l2 2.3c-0.5 0.6-0.8 1.2-0.9 1.9 -0.1 0.7 0.1 1.5 0.5 2.2 0.7 1.1 1.6 1.9 2.7 2.1 1.1 0.3 2.4 0 3.8-0.9 1.5-0.9 2.5-1.9 2.9-3 0.4-1.1 0.2-2.3-0.4-3.4 -0.3-0.6-0.7-1-1.3-1.5 -0.5-0.4-1.1-0.8-1.6-1l-1.7 1L266.6 261.6z"/>
      <path d="M264.3 246l-0.3-3c1-0.2 1.7-0.5 2.2-1.1 0.5-0.5 0.7-1.3 0.7-2.2 0-1-0.2-1.7-0.6-2.2 -0.4-0.5-0.9-0.7-1.5-0.7 -0.4 0-0.7 0.1-0.9 0.3 -0.2 0.2-0.5 0.6-0.7 1.1 -0.1 0.4-0.3 1.2-0.7 2.4 -0.4 1.6-0.9 2.8-1.5 3.4 -0.8 0.9-1.8 1.4-3 1.4 -0.8 0-1.5-0.2-2.1-0.7 -0.7-0.4-1.2-1.1-1.5-1.9 -0.3-0.8-0.5-1.8-0.5-3 0-1.9 0.4-3.3 1.2-4.3 0.8-1 1.9-1.5 3.3-1.5l0.1 3c-0.8 0.1-1.3 0.4-1.7 0.8 -0.3 0.4-0.5 1.1-0.5 1.9 0 0.9 0.2 1.6 0.5 2.1 0.2 0.3 0.5 0.5 0.9 0.5 0.4 0 0.7-0.2 0.9-0.5 0.3-0.4 0.7-1.3 1-2.8s0.7-2.6 1.1-3.3c0.4-0.7 0.9-1.3 1.5-1.7 0.6-0.4 1.4-0.6 2.4-0.6 0.9 0 1.7 0.2 2.4 0.7s1.3 1.2 1.7 2c0.4 0.9 0.5 2 0.5 3.3 0 1.9-0.4 3.4-1.3 4.4S266 245.8 264.3 246z"/>
      <path d="M269.2 232.8h-15v-11.1h2.5v8.1h3.3v-7.5h2.5v7.5h4.1v-8.4h2.5V232.8z"/>
      <path d="M269.2 220.3h-15v-4.9c0-1.8 0.1-3 0.2-3.6 0.2-0.9 0.7-1.6 1.5-2.2s1.7-0.9 2.9-0.9c0.9 0 1.7 0.2 2.3 0.5s1.1 0.8 1.5 1.3c0.4 0.5 0.6 1 0.7 1.6 0.1 0.7 0.2 1.8 0.2 3.1v2h5.7V220.3zM256.7 217.3h4.3v-1.7c0-1.2-0.1-2-0.2-2.4s-0.4-0.7-0.7-0.9c-0.3-0.2-0.7-0.3-1.2-0.3 -0.5 0-1 0.2-1.4 0.5s-0.6 0.7-0.7 1.2c-0.1 0.4-0.1 1.1-0.1 2.2V217.3z"/>
      <path d="M264.2 195.2c-1.3-0.8-2.3-1.6-3-2.5 -0.5-0.7-0.9-1.4-1.1-2.2 -0.2-0.8-0.3-1.6-0.2-2.4 0.1-1 0.5-2 1.1-3.1 1.1-1.9 2.6-3.1 4.4-3.6 1.9-0.5 3.8-0.1 6 1.1 2.1 1.2 3.4 2.7 3.9 4.6 0.5 1.8 0.2 3.7-0.9 5.6 -1.1 1.9-2.6 3.1-4.4 3.6C268.3 196.8 266.3 196.4 264.2 195.2zM265.7 192.5c1.5 0.9 2.8 1.2 3.9 0.9 1.2-0.2 2-0.9 2.6-1.9 0.6-1 0.7-2.1 0.4-3.2 -0.4-1.1-1.3-2.1-2.8-3 -1.5-0.9-2.8-1.2-3.9-0.9 -1.1 0.2-2 0.9-2.6 2 -0.6 1.1-0.8 2.2-0.4 3.3C263.3 190.6 264.2 191.6 265.7 192.5z"/>
      <path d="M278.4 174.5l2.3-2.1c1.2 1.2 1.9 2.5 2 3.8 0.2 1.3-0.2 2.7-1 4.1 -1 1.7-2.4 2.8-4.2 3.2 -1.8 0.4-3.8 0.1-5.8-1.1 -2.2-1.3-3.5-2.8-4.1-4.6s-0.3-3.6 0.8-5.5c0.9-1.6 2.1-2.6 3.7-3.1 0.9-0.3 2-0.3 3.2 0.1l-0.9 3c-0.8-0.2-1.5-0.2-2.2 0 -0.7 0.3-1.2 0.7-1.6 1.4 -0.6 1-0.7 1.9-0.3 2.9 0.3 1 1.3 1.9 2.8 2.8 1.6 1 3 1.3 4 1.1 1-0.2 1.8-0.8 2.4-1.7 0.4-0.7 0.5-1.4 0.4-2.2S279.2 175.3 278.4 174.5z"/>
      <path d="M286.8 170.9l-10.8-6.2 -2.2 3.9 -2.2-1.3 6-10.3 2.2 1.3 -2.2 3.9 10.8 6.2L286.8 170.9z"/>
      <path d="M295.6 159.9l-7.5-13 2.6-1.5 10.3 5.6 -5-8.7 2.4-1.4 7.5 13 -2.6 1.5 -10.2-5.5 4.9 8.5L295.6 159.9z"/>
      <path d="M303.1 147c-0.8-1.3-1.2-2.6-1.3-3.7 -0.1-0.8 0-1.7 0.2-2.5 0.2-0.8 0.5-1.5 1-2.1 0.6-0.8 1.4-1.5 2.5-2.1 1.9-1.1 3.8-1.4 5.6-0.9 1.8 0.5 3.4 1.8 4.6 4 1.2 2.1 1.6 4.1 1.1 5.9 -0.5 1.8-1.6 3.3-3.6 4.4 -1.9 1.1-3.8 1.4-5.6 0.9C305.8 150.4 304.3 149.1 303.1 147zM305.7 145.4c0.9 1.5 1.8 2.4 3 2.8 1.1 0.4 2.2 0.2 3.3-0.4s1.7-1.5 1.9-2.6c0.2-1.1-0.1-2.5-1-4 -0.9-1.5-1.8-2.4-2.9-2.8 -1.1-0.4-2.2-0.2-3.2 0.4 -1.1 0.6-1.7 1.5-2 2.6S304.8 143.9 305.7 145.4z"/>
      <path d="M323.4 143.9l-12.2-10.3 2.9-1.6 8.9 7.7 -2.4-11.5 2.8-1.6 2.9 15.7L323.4 143.9z"/>
      <path d="M337.7 120.7h5.5c1.3 0 2.2 0.1 2.9 0.3 0.9 0.3 1.6 0.7 2.3 1.4s1.1 1.5 1.4 2.4c0.3 1 0.5 2.1 0.5 3.6 0 1.2-0.2 2.3-0.5 3.2 -0.4 1.1-0.9 2-1.6 2.7 -0.5 0.5-1.2 0.9-2.1 1.2 -0.7 0.2-1.6 0.3-2.7 0.3h-5.7V120.7zM340.8 123.2v10h2.3c0.8 0 1.5 0 1.8-0.1 0.5-0.1 0.9-0.3 1.2-0.6 0.3-0.3 0.6-0.8 0.8-1.5 0.2-0.7 0.3-1.6 0.3-2.8s-0.1-2.1-0.3-2.7 -0.5-1.1-0.9-1.5 -0.8-0.6-1.4-0.7c-0.4-0.1-1.3-0.1-2.5-0.1H340.8z"/>
      <path d="M351.3 135.7v-15h11.1v2.5h-8.1v3.3h7.5v2.5h-7.5v4.1h8.4v2.5H351.3z"/>
      <path d="M373.4 130.2l2.9 0.9c-0.5 1.6-1.2 2.9-2.3 3.7 -1 0.8-2.4 1.2-4 1.2 -2 0-3.6-0.7-4.9-2 -1.3-1.4-1.9-3.2-1.9-5.6 0-2.5 0.6-4.4 1.9-5.8 1.3-1.4 3-2.1 5.1-2.1 1.8 0 3.3 0.5 4.5 1.6 0.7 0.6 1.2 1.6 1.5 2.8l-3 0.7c-0.2-0.8-0.5-1.4-1.1-1.8 -0.6-0.5-1.2-0.7-2.1-0.7 -1.1 0-2 0.4-2.7 1.2 -0.7 0.8-1 2.1-1 3.9 0 1.9 0.3 3.3 1 4.1s1.6 1.2 2.7 1.2c0.8 0 1.5-0.3 2.1-0.8S373.1 131.3 373.4 130.2z"/>
    </g>
    <path class="grande-st0" d="M455.7 170c-5.9-10.2-13.1-19.1-21.2-26.6l-13.9 24.1 -44.3-25.6 13.8-24c-29.1-8.8-61.6-6-90.1 10.4 -54.5 31.5-73.2 101.2-41.7 155.7s101.2 73.2 155.7 41.7C468.5 294.2 487.2 224.5 455.7 170z"/>
    <path class="grande-st0" d="M403 122.7l21.5 12.4C417.8 130.2 410.5 126 403 122.7z"/>
    <path d="M391.9 118.6l40.9 23.6 -13 22.5 -40.9-23.6L391.9 118.6M391.2 115.9l-15 26 44.3 25.6 15-26L391.2 115.9 391.2 115.9z"/>
  </g>
  <g>
    <circle class="grande-st3" cx="309.5" cy="407.5" r="70.5"/>
    <g id="grande-moonphase-disc" class="grande-bottom-center">
      <circle id="moonphase-dial" class="grande-st4" cx="309.5" cy="407.5" r="70.5"/>
      <circle id="moon" class="grande-st5" cx="309" cy="446" r="27.5"/>
      <g id="grande-stars">
        <circle class="grande-st6" cx="266" cy="430" r="3"/>
        <circle class="grande-st6" cx="258" cy="420" r="3"/>
        <circle class="grande-st6" cx="258" cy="446" r="3"/>
        <circle class="grande-st6" cx="271" cy="456" r="3"/>
        <circle class="grande-st6" cx="271" cy="406" r="3"/>
        <circle class="grande-st6" cx="243" cy="408" r="3"/>
        <ellipse transform="matrix(0.2851 -0.9585 0.9585 0.2851 -167.8973 517.6776)" class="grande-st6" cx="263.1" cy="371.4" rx="3" ry="3"/>
        <ellipse transform="matrix(0.2851 -0.9585 0.9585 0.2851 -175.827 530.7775)" class="grande-st6" cx="267.9" cy="383.3" rx="3" ry="3"/>
        <ellipse transform="matrix(0.2851 -0.9585 0.9585 0.2851 -146.641 520.0665)" class="grande-st6" cx="275.3" cy="358.3" rx="3" ry="3"/>
        <ellipse transform="matrix(0.2851 -0.9585 0.9585 0.2851 -157.6412 542.8142)" class="grande-st6" cx="285.1" cy="377.1" rx="3" ry="3"/>
        <ellipse transform="matrix(0.2851 -0.9585 0.9585 0.2851 -196.8979 521.952)" class="grande-st6" cx="251.5" cy="393" rx="3" ry="3"/>
        <ellipse transform="matrix(0.2851 -0.9585 0.9585 0.2851 -183.118 552.559)" class="grande-st6" cx="278.9" cy="399" rx="3" ry="3"/>
        <ellipse transform="matrix(0.8038 -0.5949 0.5949 0.8038 -151.1364 244.9986)" class="grande-st6" cx="295.9" cy="351.6" rx="3" ry="3"/>
        <ellipse transform="matrix(0.9401 -0.341 0.341 0.9401 -108.4461 132.5537)" class="grande-st6" cx="322.8" cy="374.8" rx="3" ry="3"/>
        <ellipse transform="matrix(0.9401 -0.341 0.341 0.9401 -106.8259 128.4262)" class="grande-st6" cx="311.9" cy="368.1" rx="3" ry="3"/>
        <ellipse transform="matrix(0.9401 -0.341 0.341 0.9401 -114.6294 132.9149)" class="grande-st6" cx="320.8" cy="392.5" rx="3" ry="3"/>
        <ellipse transform="matrix(0.9401 -0.341 0.341 0.9401 -112.6063 125.8835)" class="grande-st6" cx="301.8" cy="383.3" rx="3" ry="3"/>
        <ellipse transform="matrix(0.9401 -0.341 0.341 0.9401 -100.3797 129.911)" class="grande-st6" cx="319.3" cy="350.5" rx="3" ry="3"/>
        <ellipse transform="matrix(0.6386 -0.7695 0.7695 0.6386 -152.1865 402.1884)" class="grande-st6" cx="352.1" cy="363.1" rx="3" ry="3"/>
        <ellipse transform="matrix(0.8315 -0.5555 0.5555 0.8315 -147.0961 249.0636)" class="grande-st6" cx="337" cy="367" rx="3" ry="3"/>
        <ellipse transform="matrix(0.8315 -0.5555 0.5555 0.8315 -156.4323 269.1021)" class="grande-st6" cx="365.4" cy="392.4" rx="3" ry="3"/>
        <ellipse transform="matrix(0.8315 -0.5555 0.5555 0.8315 -154.3497 259.1504)" class="grande-st6" cx="350" cy="384" rx="3" ry="3"/>
        <ellipse transform="matrix(5.552572e-02 -0.9985 0.9985 5.552572e-02 -61.9629 760.4957)" class="grande-st6" cx="371" cy="413" rx="3" ry="3"/>
        <ellipse transform="matrix(0.3379 -0.9412 0.9412 0.3379 -170.9466 602.9161)" class="grande-st6" cx="343" cy="423" rx="3" ry="3"/>
        <ellipse transform="matrix(0.3379 -0.9412 0.9412 0.3379 -159.0186 611.5703)" class="grande-st6" cx="355.2" cy="418.8" rx="3" ry="3"/>
        <ellipse transform="matrix(0.3379 -0.9412 0.9412 0.3379 -166.9529 582.7219)" class="grande-st6" cx="330.7" cy="410" rx="3" ry="3"/>
        <ellipse transform="matrix(0.3379 -0.9412 0.9412 0.3379 -146.0182 595.0937)" class="grande-st6" cx="349.9" cy="401.3" rx="3" ry="3"/>
        <ellipse transform="matrix(0.3379 -0.9412 0.9412 0.3379 -169.1704 631.0712)" class="grande-st6" cx="363.9" cy="435.8" rx="3" ry="3"/>
        <ellipse transform="matrix(0.9401 -0.341 0.341 0.9401 -119.5465 126.4004)" class="grande-st6" cx="299.8" cy="403.3" rx="3" ry="3"/>
        <ellipse transform="matrix(0.3379 -0.9412 0.9412 0.3379 -191.5159 635.6772)" class="grande-st6" cx="356" cy="454" rx="3" ry="3"/>
        <ellipse transform="matrix(0.3379 -0.9412 0.9412 0.3379 -187.5222 615.483)" class="grande-st6" cx="343.7" cy="441" rx="3" ry="3"/>
        <ellipse transform="matrix(0.3379 -0.9412 0.9412 0.3379 -212.0766 626.0808)" class="grande-st6" cx="338.9" cy="463.8" rx="3" ry="3"/>
      </g>
    </g>
    <g id="grande-moonphase-mask">
      <path class="grande-st7" d="M261.6 459.7C261.6 459.7 261.6 459.7 261.6 459.7 261.6 459.7 261.6 459.7 261.6 459.7z"/>
      <path class="grande-st7" d="M258.8 456.9c0.2 0.2 0.4 0.4 0.6 0.6C259.2 457.4 259 457.2 258.8 456.9z"/>
      <path class="grande-st7" d="M263.9 461.7c0.2 0.2 0.5 0.4 0.7 0.6C264.4 462.1 264.1 461.9 263.9 461.7z"/>
      <path class="grande-st7" d="M269.6 466C269.6 466 269.6 466 269.6 466 269.6 466 269.6 466 269.6 466z"/>
      <path class="grande-st7" d="M266.4 463.6c0.2 0.2 0.5 0.4 0.7 0.6C266.9 464 266.6 463.8 266.4 463.6z"/>
      <path class="grande-st7" d="M245.7 438.6c-0.1-0.3-0.3-0.6-0.4-0.8C245.4 438 245.6 438.3 245.7 438.6z"/>
      <path class="grande-st7" d="M252.7 450c-0.2-0.2-0.4-0.5-0.5-0.7C252.4 449.5 252.5 449.7 252.7 450z"/>
      <path class="grande-st7" d="M250.9 447.4c-0.2-0.3-0.4-0.5-0.5-0.8C250.5 446.9 250.7 447.1 250.9 447.4z"/>
      <path class="grande-st7" d="M272.2 467.6c0.3 0.2 0.5 0.3 0.8 0.5C272.7 467.9 272.4 467.8 272.2 467.6z"/>
      <path class="grande-st7" d="M248.7 444.1C248.7 444.1 248.7 444.1 248.7 444.1 248.7 444.1 248.7 444.1 248.7 444.1z"/>
      <path class="grande-st7" d="M247.2 441.4c-0.1-0.3-0.3-0.5-0.4-0.8C246.9 440.9 247 441.1 247.2 441.4z"/>
      <path class="grande-st7" d="M244 434.9c5.4 1.3 11.1 2.1 17 2.1 18.3 0 35-7 47.5-18.4C321 430 337.7 437 356 437c6.2 0 12.3-0.8 18.1-2.3 -0.2 0.4-0.4 0.9-0.6 1.3 3.9-8.7 6-18.3 6-28.5 0-38.9-31.6-70.5-70.5-70.5s-70.5 31.6-70.5 70.5C238.5 417.3 240.5 426.6 244 434.9 244.1 435 244 435 244 434.9z"/>
      <path class="grande-st7" d="M294.2 476.4c0.3 0.1 0.6 0.1 0.9 0.2C294.8 476.6 294.5 476.5 294.2 476.4z"/>
      <path class="grande-st7" d="M298.3 477.2C298.3 477.2 298.3 477.2 298.3 477.2 298.3 477.2 298.3 477.2 298.3 477.2z"/>
      <path class="grande-st7" d="M301.4 477.6c0.3 0 0.6 0.1 0.9 0.1C302.1 477.7 301.8 477.6 301.4 477.6z"/>
      <path class="grande-st7" d="M254.6 452.4C254.6 452.4 254.6 452.4 254.6 452.4 254.6 452.4 254.6 452.4 254.6 452.4z"/>
      <path class="grande-st7" d="M304.8 477.9c0.3 0 0.6 0 1 0.1C305.4 477.9 305.1 477.9 304.8 477.9z"/>
      <path class="grande-st7" d="M284.2 473.5c0.3 0.1 0.6 0.2 0.9 0.3C284.8 473.7 284.5 473.6 284.2 473.5z"/>
      <path class="grande-st7" d="M278.4 471C278.4 471 278.4 471.1 278.4 471 278.4 471.1 278.4 471 278.4 471z"/>
      <path class="grande-st7" d="M281.2 472.3c0.3 0.1 0.6 0.2 0.8 0.4C281.8 472.6 281.5 472.4 281.2 472.3z"/>
      <path class="grande-st7" d="M288 474.8C288 474.8 288 474.8 288 474.8 288 474.8 288 474.8 288 474.8z"/>
      <path class="grande-st7" d="M274.9 469.2c0.3 0.1 0.5 0.3 0.8 0.4C275.4 469.5 275.2 469.4 274.9 469.2z"/>
      <path class="grande-st7" d="M291 475.7c0.3 0.1 0.6 0.2 0.9 0.2C291.6 475.8 291.3 475.8 291 475.7z"/>
      <path class="grande-st7" d="M360.6 455.5c0.3-0.3 0.6-0.7 0.9-1C361.3 454.8 361 455.1 360.6 455.5z"/>
      <path class="grande-st7" d="M358.6 457.6c0.3-0.3 0.6-0.6 0.9-0.9C359.2 457 358.9 457.3 358.6 457.6z"/>
      <path class="grande-st7" d="M322.9 476.6c0.3-0.1 0.6-0.1 0.9-0.2C323.5 476.5 323.2 476.6 322.9 476.6z"/>
      <path class="grande-st7" d="M312.3 477.9c0.3 0 0.6 0 1-0.1C312.9 477.9 312.6 477.9 312.3 477.9z"/>
      <path class="grande-st7" d="M315.6 477.7c0.3 0 0.6-0.1 1-0.1C316.3 477.6 315.9 477.7 315.6 477.7z"/>
      <path class="grande-st7" d="M319.6 477.2c0.1 0 0.1 0 0.2 0C319.7 477.2 319.7 477.2 319.6 477.2z"/>
      <path class="grande-st7" d="M372.2 438.8c0.2-0.5 0.5-0.9 0.7-1.4C372.6 437.9 372.4 438.3 372.2 438.8z"/>
      <path class="grande-st7" d="M362.7 453.1c0.3-0.4 0.7-0.8 1-1.2C363.4 452.4 363.1 452.7 362.7 453.1z"/>
      <path class="grande-st7" d="M365.2 450c0.3-0.4 0.6-0.8 0.8-1.2C365.8 449.3 365.5 449.6 365.2 450z"/>
      <path class="grande-st7" d="M368.7 445c0.3-0.5 0.6-1 0.9-1.5C369.3 444 369 444.5 368.7 445z"/>
      <path class="grande-st7" d="M370.8 441.5c0.2-0.4 0.5-0.9 0.7-1.3C371.2 440.6 371 441 370.8 441.5z"/>
      <path class="grande-st7" d="M367 447.6c0.3-0.4 0.6-0.8 0.8-1.2C367.5 446.8 367.3 447.2 367 447.6z"/>
      <path class="grande-st7" d="M332.9 473.8c0.3-0.1 0.6-0.2 0.9-0.4C333.5 473.6 333.2 473.7 332.9 473.8z"/>
      <path class="grande-st7" d="M345 468.1c0.3-0.2 0.7-0.4 1-0.6C345.6 467.7 345.3 467.9 345 468.1z"/>
      <path class="grande-st7" d="M350.9 464.2c0.3-0.2 0.6-0.5 1-0.7C351.5 463.7 351.2 464 350.9 464.2z"/>
      <path class="grande-st7" d="M347.8 466.3c0.2-0.2 0.5-0.3 0.7-0.5C348.3 466 348.1 466.2 347.8 466.3z"/>
      <path class="grande-st7" d="M355.7 460.3c0.3-0.2 0.6-0.5 0.8-0.7C356.3 459.8 356 460 355.7 460.3z"/>
      <path class="grande-st7" d="M353.3 462.4c0.3-0.3 0.7-0.5 1-0.8C353.9 461.8 353.6 462.1 353.3 462.4z"/>
      <path class="grande-st7" d="M339.1 471.2c0.2-0.1 0.4-0.2 0.5-0.2C339.5 471.1 339.3 471.2 339.1 471.2z"/>
      <path class="grande-st7" d="M329.7 474.9c0.1 0 0.2-0.1 0.3-0.1C329.9 474.8 329.8 474.9 329.7 474.9z"/>
      <path class="grande-st7" d="M257.2 455.3c-0.2-0.2-0.4-0.4-0.6-0.7C256.8 454.9 257 455.1 257.2 455.3z"/>
      <path class="grande-st7" d="M342.3 469.7c0.3-0.2 0.6-0.3 0.9-0.5C342.9 469.3 342.6 469.5 342.3 469.7z"/>
      <path class="grande-st7" d="M335.9 472.7c0.3-0.1 0.7-0.3 1-0.4C336.5 472.4 336.2 472.6 335.9 472.7z"/>
      <path class="grande-st7" d="M326 475.9c0.3-0.1 0.6-0.2 1-0.2C326.7 475.8 326.4 475.8 326 475.9z"/>
    </g>
  </g>
  <g>
    <g id="grande-daynight-disc" class="grande-left-center">
      <path class="grande-st8" d="M127.8 309.2c0-39.4 31.9-71.2 71.2-71.2s71.2 31.9 71.2 71.2"/>
      <path class="grande-st9" d="M270.2 309.2c0 39.4-31.9 71.2-71.2 71.2s-71.2-31.9-71.2-71.2"/>
    </g>
    <path class="grande-st10" d="M199 238.5c-38.9 0-70.5 31.6-70.5 70.5 0 38.9 31.6 70.5 70.5 70.5 38.9 0 70.5-31.6 70.5-70.5C269.5 270.1 237.9 238.5 199 238.5zM199 355c-11 0-20-9-20-20 0-11 9-20 20-20 11 0 20 9 20 20C219 346 210 355 199 355z"/>
    <line class="grande-st11" x1="199" y1="238" x2="199" y2="257"/>
    <line class="grande-st11" x1="199.5" y1="361" x2="199.5" y2="380"/>
    <line class="grande-st11" x1="270.2" y1="308.8" x2="251.2" y2="308.8"/>
    <line class="grande-st11" x1="147.2" y1="309.2" x2="128.2" y2="309.2"/>
    <line class="grande-st12" x1="260.6" y1="273.3" x2="244.2" y2="282.8"/>
    <line class="grande-st12" x1="154.3" y1="335.2" x2="137.9" y2="344.7"/>
    <line class="grande-st12" x1="234.5" y1="247.4" x2="225" y2="263.8"/>
    <line class="grande-st12" x1="173.5" y1="354.2" x2="164" y2="370.6"/>
    <line class="grande-st12" x1="163.5" y1="247.6" x2="173" y2="264.1"/>
    <line class="grande-st12" x1="225.5" y1="353.9" x2="235" y2="370.4"/>
    <line class="grande-st12" x1="137.6" y1="273.7" x2="154.1" y2="283.2"/>
    <line class="grande-st12" x1="244.4" y1="334.8" x2="260.9" y2="344.3"/>
    <line id="grande-chrono-hour-hand" class="grande-st12 grande-left-center" x1="199" y1="309" x2="199" y2="249"/>
  </g>
  <g>
    <g id="grande-year-indicator-disc" class="grande-right-center">
      <circle class="grande-st2" cx="419" cy="308.5" r="70.5"/>
      <line class="grande-st13" x1="418.5" y1="321.5" x2="418.5" y2="347.5"/>
      <line class="grande-st13" x1="406.5" y1="304" x2="380.5" y2="304"/>
      <line class="grande-st13" x1="406.5" y1="307" x2="380.5" y2="307"/>
      <line class="grande-st13" x1="406.5" y1="310" x2="380.5" y2="310"/>
      <line class="grande-st13" x1="406.5" y1="313" x2="380.5" y2="313"/>
      <line class="grande-st13" x1="431.5" y1="310" x2="457.5" y2="310"/>
      <line class="grande-st13" x1="431.5" y1="307" x2="457.5" y2="307"/>
      <line class="grande-st13" x1="422.5" y1="296" x2="422.5" y2="270"/>
      <line class="grande-st13" x1="419.5" y1="296" x2="419.5" y2="270"/>
      <line class="grande-st13" x1="416.5" y1="296" x2="416.5" y2="270"/>
    </g>
    <path class="grande-st10" d="M419 238.5c-38.9 0-70.5 31.6-70.5 70.5 0 38.9 31.6 70.5 70.5 70.5s70.5-31.6 70.5-70.5C489.5 270.1 457.9 238.5 419 238.5zM419 355c-11 0-20-9-20-20 0-11 9-20 20-20s20 9 20 20C439 346 430 355 419 355z"/>
    <line class="grande-st11" x1="419" y1="238" x2="419" y2="257"/>
    <line class="grande-st11" x1="419.5" y1="361" x2="419.5" y2="380"/>
    <line class="grande-st11" x1="490.2" y1="308.8" x2="471.2" y2="308.8"/>
    <line class="grande-st11" x1="367.2" y1="309.2" x2="348.2" y2="309.2"/>
    <line class="grande-st12" x1="480.6" y1="273.3" x2="464.2" y2="282.8"/>
    <line class="grande-st12" x1="374.3" y1="335.2" x2="357.9" y2="344.7"/>
    <line class="grande-st12" x1="454.5" y1="247.4" x2="445" y2="263.8"/>
    <line class="grande-st12" x1="393.5" y1="354.2" x2="384" y2="370.6"/>
    <line class="grande-st12" x1="383.5" y1="247.6" x2="393" y2="264.1"/>
    <line class="grande-st12" x1="445.5" y1="353.9" x2="455" y2="370.4"/>
    <line class="grande-st12" x1="357.6" y1="273.7" x2="374.1" y2="283.2"/>
    <line class="grande-st12" x1="464.4" y1="334.8" x2="480.9" y2="344.3"/>
    <line id="grande-chrono-minute-hand" class="grande-st12 grande-right-center" x1="419" y1="309" x2="419" y2="249"/>
  </g>
  <g>
    <circle class="grande-st19" cx="309" cy="309" r="279"/>
    <path class="grande-st20" d="M275.4 32c11-1.3 22.2-2 33.6-2s22.6 0.7 33.6 2"/>
    <g id="grande-week-display-ring" class="grande-primary-center">
      <circle class="grande-st21" cx="309" cy="309" r="279"/>
      <path d="M311 36.7h-2.5v-9.3c-0.9 0.8-2 1.5-3.2 1.9V27c0.6-0.2 1.3-0.6 2.1-1.2s1.3-1.3 1.6-2.1h2V36.7z"/>
      <path d="M280.7 36.3l0.3 2.3 -8.6 1c0-0.9 0.2-1.7 0.5-2.5 0.4-0.8 1.2-2 2.4-3.4 1-1.2 1.6-1.9 1.8-2.3 0.3-0.5 0.4-1.1 0.3-1.6 -0.1-0.5-0.3-0.9-0.6-1.2 -0.3-0.3-0.8-0.4-1.3-0.3 -0.5 0.1-0.9 0.3-1.2 0.6s-0.4 0.9-0.3 1.6l-2.5 0.1c0-1.4 0.3-2.4 1-3.1 0.7-0.7 1.6-1.1 2.8-1.2 1.3-0.2 2.3 0.1 3.1 0.7s1.3 1.4 1.4 2.4c0.1 0.6 0 1.1-0.1 1.7 -0.1 0.5-0.4 1.1-0.8 1.8 -0.3 0.4-0.7 1-1.4 1.8 -0.7 0.8-1.1 1.3-1.3 1.6 -0.2 0.3-0.3 0.5-0.4 0.7L280.7 36.3z"/>
      <path d="M238.7 42.2l2.3-0.9c0.2 0.6 0.5 1 0.9 1.2 0.4 0.2 0.8 0.3 1.3 0.2 0.5-0.1 0.9-0.4 1.1-0.9 0.2-0.5 0.3-1 0.1-1.6 -0.1-0.6-0.4-1-0.8-1.3 -0.4-0.3-0.9-0.4-1.3-0.2 -0.3 0.1-0.7 0.2-1.1 0.5l-0.2-2c0.7-0.1 1.1-0.4 1.4-0.8 0.3-0.4 0.3-0.8 0.2-1.3 -0.1-0.4-0.3-0.7-0.6-0.9 -0.3-0.2-0.7-0.2-1.1-0.1 -0.4 0.1-0.7 0.3-0.9 0.7 -0.2 0.4-0.3 0.8-0.2 1.4l-2.3 0.2c0-0.8 0-1.5 0.2-2 0.2-0.5 0.5-1 1-1.4s1.1-0.7 1.8-0.8c1.2-0.3 2.2-0.1 3.1 0.4 0.7 0.5 1.2 1.1 1.4 1.9 0.3 1.1-0.1 2.1-1.2 3.1 0.8 0 1.4 0.2 2 0.6 0.6 0.4 0.9 1 1.1 1.8 0.3 1.1 0.1 2.1-0.5 3.1 -0.6 1-1.5 1.6-2.7 1.9 -1.1 0.3-2.2 0.2-3.1-0.3C239.8 44 239.1 43.2 238.7 42.2z"/>
      <path d="M213.1 55.7l-0.9-2.4 -4.9 1.9 -0.8-2 2.3-9.6 1.9-0.7 2.9 7.6 1.5-0.6 0.8 2 -1.5 0.6 0.9 2.4L213.1 55.7zM211.4 51.2l-1.6-4.1 -1.2 5.2L211.4 51.2z"/>
      <path d="M178.1 68.4l2.1-1.4c0.3 0.5 0.7 0.8 1.2 0.9 0.5 0.1 0.9 0.1 1.3-0.1 0.5-0.2 0.7-0.6 0.9-1.2 0.1-0.5 0-1.2-0.4-1.9 -0.4-0.7-0.8-1.1-1.3-1.3 -0.5-0.2-1-0.1-1.5 0.1 -0.6 0.3-1 0.9-1.3 1.7l-1.9 0.7 -2-6.5 5.8-3 1.1 2 -4.1 2.2 0.7 2.1c0.4-0.5 0.8-0.9 1.3-1.1 1-0.5 2-0.6 3-0.2 1 0.4 1.9 1.1 2.5 2.2 0.5 0.9 0.7 1.9 0.5 2.9 -0.2 1.4-1 2.4-2.3 3.1 -1.1 0.6-2.1 0.7-3 0.5C179.5 69.8 178.7 69.2 178.1 68.4z"/>
      <path d="M152.9 75.5l-1.8 1.6c-0.3-0.4-0.7-0.6-1-0.6 -0.3-0.1-0.7 0-1 0.3 -0.4 0.3-0.7 0.7-0.7 1.3s0.3 1.5 1.1 2.8c0.1-0.9 0.5-1.7 1.3-2.2 0.8-0.6 1.8-0.8 2.9-0.5 1.1 0.2 1.9 0.9 2.6 1.9 0.7 1.1 1 2.2 0.8 3.3 -0.2 1.1-0.8 2-1.8 2.7 -1.1 0.7-2.2 0.9-3.5 0.6 -1.3-0.4-2.5-1.5-3.9-3.4 -1.3-1.9-1.9-3.6-1.8-4.9 0.1-1.4 0.8-2.4 1.9-3.2 0.8-0.6 1.6-0.8 2.5-0.7C151.4 74.3 152.1 74.7 152.9 75.5zM151.3 83.1c0.5 0.7 1 1.1 1.5 1.2 0.6 0.1 1 0.1 1.4-0.2 0.4-0.3 0.6-0.6 0.6-1.1 0-0.5-0.2-1-0.6-1.7 -0.5-0.7-1-1.1-1.4-1.2 -0.5-0.1-0.9-0.1-1.3 0.2 -0.4 0.3-0.6 0.7-0.7 1.1C150.7 81.9 150.9 82.5 151.3 83.1z"/>
      <path d="M119.6 101.4l-1.5-1.7 6.3-5.6 1.2 1.3c-0.1 1 0.1 2.2 0.4 3.6 0.3 1.4 0.8 2.8 1.5 4.2 0.7 1.3 1.4 2.4 2.1 3.3l-1.8 1.6c-1.2-1.4-2.1-3-2.8-4.8 -0.7-1.8-1.1-3.7-1.2-5.6L119.6 101.4z"/>
      <path d="M99.6 125.9c-0.6 0.3-1.2 0.4-1.8 0.3 -0.5-0.1-1-0.3-1.4-0.7 -0.7-0.6-1.1-1.4-1.1-2.3 0-0.9 0.4-1.8 1.2-2.8 0.8-0.9 1.7-1.4 2.6-1.5s1.7 0.2 2.5 0.8c0.4 0.4 0.7 0.9 0.9 1.4 0.1 0.5 0.1 1.1-0.1 1.7 0.7-0.3 1.4-0.5 2-0.4 0.7 0.1 1.3 0.4 1.8 0.8 0.9 0.8 1.4 1.7 1.4 2.8 0.1 1.1-0.3 2.1-1.2 3 -0.8 0.9-1.7 1.4-2.6 1.6 -1.2 0.2-2.2-0.1-3.2-1 -0.5-0.5-0.9-1-1.1-1.7C99.3 127.4 99.3 126.7 99.6 125.9zM98.1 123.9c0.4 0.3 0.7 0.5 1.1 0.5 0.4 0 0.7-0.2 1-0.6 0.3-0.4 0.5-0.7 0.4-1.1 0-0.4-0.2-0.8-0.6-1.1 -0.3-0.3-0.7-0.4-1.1-0.4s-0.7 0.2-1 0.5c-0.3 0.4-0.5 0.7-0.4 1.1C97.5 123.2 97.7 123.6 98.1 123.9zM102.1 127.7c0.5 0.5 1 0.7 1.5 0.7 0.5 0 0.9-0.2 1.3-0.6 0.3-0.4 0.5-0.8 0.4-1.3 -0.1-0.5-0.3-1-0.9-1.4 -0.5-0.4-0.9-0.6-1.4-0.6 -0.5 0-0.9 0.2-1.3 0.6 -0.4 0.5-0.5 0.9-0.4 1.4C101.5 127 101.7 127.4 102.1 127.7z"/>
      <path d="M79.9 156.3l1.1-2.1c0.4 0.2 0.8 0.3 1.1 0.2 0.3-0.1 0.6-0.3 0.8-0.6 0.3-0.4 0.3-0.9 0.2-1.5 -0.2-0.6-0.9-1.3-2-2.2 0.2 0.9 0.1 1.8-0.4 2.5 -0.6 0.8-1.4 1.3-2.5 1.5 -1.1 0.2-2.1-0.1-3.1-0.8 -1.1-0.7-1.7-1.7-1.9-2.8 -0.2-1.1 0-2.1 0.7-3.1 0.7-1.1 1.8-1.7 3.1-1.8 1.3-0.1 2.9 0.5 4.8 1.8 1.9 1.3 3.1 2.7 3.5 4s0.1 2.5-0.7 3.7c-0.6 0.8-1.3 1.3-2.1 1.6C81.8 156.9 80.9 156.8 79.9 156.3zM78.6 148.6c-0.7-0.5-1.3-0.7-1.8-0.6 -0.6 0.1-1 0.3-1.3 0.7 -0.3 0.4-0.3 0.8-0.2 1.2 0.1 0.5 0.5 0.9 1.2 1.4 0.7 0.5 1.3 0.7 1.8 0.6 0.5 0 0.9-0.3 1.2-0.7 0.3-0.4 0.3-0.8 0.2-1.3C79.6 149.5 79.2 149 78.6 148.6z"/>
      <path d="M67.2 184.4l-1.1 2.2 -8.2-4.3c0.3 1.2 0.4 2.4 0.2 3.7l-2-1c0.1-0.7 0.1-1.5-0.1-2.4 -0.2-0.9-0.5-1.7-1.1-2.3l0.9-1.8L67.2 184.4z"/>
      <path d="M58.6 173c0.6-1.1 1.4-1.8 2.5-2 1.3-0.3 3.1 0.2 5.2 1.3 2.2 1.1 3.5 2.3 4.1 3.6 0.5 1 0.4 2.1-0.2 3.2 -0.6 1.1-1.5 1.8-2.7 2 -1.2 0.2-2.9-0.2-5.1-1.4 -2.1-1.1-3.5-2.3-4-3.6C57.9 175.2 58 174.1 58.6 173zM60.4 174c-0.1 0.3-0.2 0.5-0.1 0.8 0.1 0.3 0.3 0.6 0.7 1 0.5 0.4 1.4 1 2.7 1.7 1.3 0.7 2.3 1.1 2.9 1.2 0.6 0.1 1 0.1 1.3 0 0.3-0.1 0.5-0.3 0.6-0.6 0.1-0.3 0.2-0.5 0.1-0.8 -0.1-0.3-0.3-0.6-0.7-1 -0.5-0.4-1.4-1-2.7-1.7 -1.3-0.7-2.3-1.1-2.9-1.2 -0.6-0.1-1-0.1-1.3 0S60.5 173.7 60.4 174z"/>
      <path d="M55.4 214l-0.9 2.3 -8.7-3.3c0.5 1.1 0.7 2.4 0.6 3.6l-2.1-0.8c0-0.7-0.1-1.5-0.4-2.4 -0.3-0.9-0.7-1.6-1.4-2.2l0.7-1.9L55.4 214z"/>
      <path d="M58 207.3l-0.9 2.3 -8.7-3.3c0.5 1.1 0.7 2.4 0.6 3.6l-2.1-0.8c0-0.7-0.1-1.5-0.4-2.4s-0.7-1.6-1.4-2.2l0.7-1.9L58 207.3z"/>
      <path d="M44.6 246.8l-0.6 2.4 -9-2.2c0.6 1.1 1 2.3 1.1 3.5l-2.2-0.5c-0.1-0.7-0.3-1.5-0.7-2.3 -0.4-0.9-0.9-1.5-1.6-2l0.5-1.9L44.6 246.8z"/>
      <path d="M44.8 236.3l2.2 0.6 -2.1 8.4c-0.8-0.3-1.5-0.8-2.2-1.4 -0.6-0.6-1.4-1.8-2.3-3.4 -0.7-1.3-1.3-2.2-1.6-2.5 -0.4-0.5-0.9-0.7-1.3-0.9 -0.5-0.1-1-0.1-1.3 0.1s-0.6 0.6-0.7 1.1c-0.1 0.5-0.1 0.9 0.2 1.3 0.2 0.4 0.7 0.7 1.4 0.9l-0.8 2.3c-1.3-0.5-2.1-1.1-2.5-2 -0.4-0.9-0.4-1.9-0.2-3 0.3-1.2 0.9-2.1 1.7-2.7 0.8-0.5 1.8-0.7 2.7-0.4 0.6 0.1 1.1 0.4 1.5 0.7 0.5 0.3 0.9 0.8 1.4 1.4 0.3 0.4 0.7 1 1.2 2 0.5 0.9 0.8 1.5 1 1.8 0.2 0.3 0.4 0.5 0.5 0.7L44.8 236.3z"/>
      <path d="M37.8 278.6l-0.3 2.5 -9.2-1.1c0.7 1 1.2 2.1 1.5 3.4l-2.2-0.3c-0.1-0.7-0.4-1.4-0.9-2.2 -0.5-0.8-1.1-1.4-1.9-1.8l0.2-2L37.8 278.6z"/>
      <path d="M34.6 276.4l0-2.4c0.6 0 1.1-0.1 1.5-0.4 0.4-0.3 0.6-0.7 0.6-1.1 0.1-0.5-0.1-1-0.4-1.3 -0.3-0.4-0.8-0.6-1.5-0.7 -0.6-0.1-1.1 0-1.5 0.3s-0.6 0.7-0.7 1.1c0 0.3 0 0.7 0 1.1l-2-0.5c0.1-0.7 0-1.2-0.2-1.6 -0.3-0.4-0.6-0.6-1.2-0.7 -0.4-0.1-0.8 0-1.1 0.3 -0.3 0.2-0.5 0.5-0.5 1 -0.1 0.4 0.1 0.8 0.3 1.1s0.7 0.6 1.2 0.7l-0.7 2.2c-0.8-0.3-1.3-0.6-1.8-0.9 -0.4-0.4-0.7-0.9-0.9-1.5 -0.2-0.6-0.2-1.3-0.2-2 0.1-1.2 0.6-2.1 1.5-2.8 0.7-0.5 1.4-0.7 2.2-0.6 1.1 0.1 1.9 0.9 2.5 2.2 0.2-0.7 0.7-1.3 1.3-1.6s1.3-0.5 2.1-0.4c1.1 0.1 2 0.7 2.7 1.6 0.7 0.9 1 2 0.8 3.2 -0.1 1.2-0.6 2.1-1.4 2.8S35.7 276.4 34.6 276.4z"/>
      <path d="M35.9 312.6l0 2.5 -9.3 0c0.8 0.9 1.5 2 1.9 3.2l-2.2 0c-0.2-0.6-0.6-1.3-1.2-2.1 -0.6-0.8-1.3-1.3-2.1-1.6l0-2L35.9 312.6z"/>
      <path d="M35.9 305.8l-2.6 0 0 5.3 -2.2 0 -8.2-5.6 0-2.1 8.2 0 0-1.6 2.2 0 0 1.6 2.6 0L35.9 305.8zM31.1 305.8l-4.4 0 4.4 3L31.1 305.8z"/>
      <path d="M38 344.6l0.3 2.5 -9.2 1.1c0.9 0.8 1.7 1.8 2.2 2.9l-2.2 0.3c-0.3-0.6-0.8-1.3-1.4-1.9 -0.7-0.7-1.4-1.1-2.2-1.3l-0.2-2L38 344.6z"/>
      <path d="M34.5 343.1l-0.5-2.4c0.5-0.1 1-0.4 1.2-0.8 0.3-0.4 0.4-0.8 0.3-1.2 -0.1-0.5-0.3-0.9-0.8-1.2 -0.5-0.3-1.1-0.4-1.9-0.3 -0.8 0.1-1.4 0.3-1.7 0.7s-0.5 0.9-0.4 1.4c0.1 0.7 0.5 1.3 1.2 1.8l0 2 -6.8-0.5 -0.8-6.5 2.3-0.3 0.6 4.6 2.2 0.1c-0.3-0.5-0.5-1.1-0.6-1.6 -0.1-1.1 0.2-2.1 0.9-2.9s1.7-1.4 2.9-1.5c1.1-0.1 2 0.1 2.9 0.6 1.2 0.7 1.9 1.8 2.1 3.3 0.1 1.2-0.1 2.2-0.6 3C36.4 342.3 35.6 342.8 34.5 343.1z"/>
      <path d="M43.2 376.8l0.6 2.4 -9 2.2c1 0.7 1.9 1.6 2.6 2.7l-2.2 0.5c-0.4-0.6-0.9-1.2-1.7-1.8s-1.5-0.9-2.4-1l-0.5-1.9L43.2 376.8z"/>
      <path d="M31.3 369.1l0.8 2.3c-0.5 0.2-0.8 0.4-0.9 0.7s-0.2 0.6-0.1 1c0.1 0.5 0.5 0.9 1 1.1s1.5 0.2 3 0c-0.9-0.4-1.4-1.1-1.6-2 -0.2-1-0.1-2 0.5-2.9 0.6-0.9 1.5-1.5 2.7-1.8 1.3-0.3 2.4-0.2 3.4 0.4s1.6 1.4 1.9 2.6c0.3 1.3 0.1 2.4-0.7 3.5 -0.8 1.1-2.3 1.9-4.5 2.4 -2.3 0.6-4 0.5-5.3-0.1 -1.2-0.6-2-1.6-2.3-2.9 -0.2-1-0.2-1.8 0.2-2.6C29.7 370.1 30.3 369.6 31.3 369.1zM37.9 373.3c0.8-0.2 1.3-0.5 1.7-1s0.4-0.9 0.3-1.4c-0.1-0.4-0.4-0.8-0.8-1 -0.4-0.2-1-0.2-1.8 0 -0.8 0.2-1.4 0.5-1.7 0.9 -0.3 0.4-0.4 0.9-0.3 1.3 0.1 0.5 0.4 0.8 0.8 1C36.6 373.4 37.2 373.5 37.9 373.3z"/>
      <path d="M55.4 408l0.9 2.3 -8.7 3.3c1.1 0.5 2.1 1.3 2.9 2.3l-2.1 0.8c-0.4-0.5-1-1-1.9-1.5 -0.8-0.5-1.6-0.7-2.5-0.7l-0.7-1.9L55.4 408z"/>
      <path d="M45 410l-2.1 0.8 -3-7.9 1.7-0.6c0.9 0.4 2.1 0.7 3.5 0.9 1.5 0.2 2.9 0.3 4.4 0.1 1.5-0.2 2.8-0.4 3.8-0.8l0.8 2.2c-1.7 0.6-3.5 0.9-5.5 0.9s-3.9-0.3-5.6-0.8L45 410z"/>
      <path d="M68.6 439.4l1.1 2.2 -8.2 4.3c1.2 0.4 2.2 1.1 3.1 2l-2 1c-0.5-0.5-1.2-0.9-2-1.3s-1.7-0.5-2.5-0.4l-0.9-1.8L68.6 439.4z"/>
      <path d="M60.6 439.1c0.1 0.7-0.1 1.3-0.3 1.8 -0.3 0.5-0.7 0.8-1.2 1.1 -0.9 0.4-1.7 0.5-2.6 0.2 -0.9-0.3-1.6-1-2.2-2.1 -0.6-1.1-0.7-2.1-0.5-3s0.8-1.6 1.6-2c0.5-0.3 1.1-0.4 1.6-0.3 0.6 0.1 1.1 0.3 1.6 0.7 -0.1-0.8 0-1.4 0.4-2 0.3-0.6 0.8-1 1.4-1.4 1.1-0.6 2.1-0.7 3.1-0.3 1 0.3 1.8 1 2.4 2.2 0.5 1 0.7 2 0.5 3 -0.2 1.2-0.9 2-2 2.6 -0.6 0.3-1.3 0.5-1.9 0.4C61.9 439.8 61.2 439.6 60.6 439.1zM58.1 439.8c0.4-0.2 0.7-0.5 0.8-0.9 0.1-0.4 0.1-0.8-0.1-1.2 -0.2-0.4-0.5-0.7-0.9-0.8 -0.4-0.1-0.8-0.1-1.2 0.2 -0.4 0.2-0.7 0.5-0.8 0.9 -0.1 0.4-0.1 0.8 0.1 1.2 0.2 0.4 0.5 0.7 0.9 0.8C57.3 440 57.7 440 58.1 439.8zM63.1 437.4c0.6-0.3 1-0.7 1.2-1.2s0.1-1-0.1-1.4c-0.2-0.5-0.6-0.7-1.1-0.9s-1 0-1.6 0.3c-0.5 0.3-0.9 0.7-1.1 1.1 -0.2 0.5-0.1 0.9 0.1 1.4 0.3 0.5 0.7 0.8 1.2 0.9S62.7 437.6 63.1 437.4z"/>
      <path d="M85.9 465.8l1.4 2 -7.7 5.3c1.2 0.3 2.3 0.8 3.4 1.6l-1.8 1.3c-0.5-0.4-1.3-0.8-2.2-1 -0.9-0.3-1.8-0.3-2.6-0.1l-1.1-1.7L85.9 465.8z"/>
      <path d="M82.3 465.9l-1.6-1.8c0.4-0.3 0.6-0.7 0.6-1 0.1-0.3 0-0.7-0.3-1 -0.3-0.4-0.7-0.6-1.3-0.7 -0.6 0-1.5 0.3-2.8 1.1 0.9 0.1 1.7 0.5 2.2 1.3 0.6 0.8 0.7 1.8 0.5 2.8 -0.2 1-0.9 1.9-1.9 2.6 -1.1 0.7-2.2 1-3.3 0.8 -1.1-0.2-2-0.8-2.7-1.8 -0.7-1.1-0.9-2.2-0.6-3.5 0.4-1.3 1.5-2.6 3.4-3.9 1.9-1.3 3.6-1.9 4.9-1.8 1.4 0.1 2.4 0.8 3.2 1.9 0.6 0.8 0.8 1.7 0.7 2.5C83.5 464.4 83.1 465.2 82.3 465.9zM74.7 464.4c-0.7 0.5-1.1 1-1.2 1.5 -0.2 0.6-0.1 1 0.2 1.4 0.3 0.4 0.6 0.6 1.1 0.6s1-0.2 1.7-0.6c0.7-0.5 1.1-1 1.2-1.4 0.1-0.5 0.1-0.9-0.2-1.3 -0.3-0.4-0.7-0.6-1.1-0.7C75.8 463.8 75.3 464 74.7 464.4z"/>
      <path d="M103.1 491.4l1.7-1.5 5.7 6.5c-0.7 0.5-1.5 0.8-2.4 1 -0.9 0.2-2.3 0.2-4.2 0 -1.5-0.1-2.5-0.2-2.9-0.1 -0.6 0.1-1.1 0.3-1.5 0.6 -0.4 0.4-0.6 0.8-0.7 1.2 0 0.4 0.1 0.8 0.5 1.2 0.3 0.4 0.7 0.6 1.2 0.6s0.9-0.2 1.5-0.6l1.4 2c-1.1 0.8-2.2 1.1-3.1 0.9 -1-0.2-1.8-0.7-2.6-1.6 -0.8-1-1.2-1.9-1.2-2.9 0-1 0.4-1.8 1.2-2.5 0.4-0.4 0.9-0.7 1.4-0.9 0.5-0.2 1.2-0.3 1.9-0.3 0.5 0 1.3 0 2.3 0.1 1.1 0.1 1.7 0.2 2 0.2 0.3 0 0.6 0 0.8-0.1L103.1 491.4z"/>
      <path d="M92.5 495.4c-0.8-0.9-1.1-2-0.9-3.1 0.2-1.3 1.3-2.8 3.1-4.4 1.8-1.6 3.4-2.5 4.8-2.5 1.1-0.1 2.1 0.4 2.9 1.3 0.8 0.9 1.1 2 0.9 3.2s-1.2 2.6-3.1 4.3c-1.8 1.6-3.4 2.4-4.8 2.5C94.3 496.8 93.3 496.3 92.5 495.4zM94 494c0.2 0.2 0.4 0.4 0.7 0.4s0.7 0 1.1-0.3c0.6-0.3 1.5-0.9 2.6-1.9 1.1-1 1.9-1.7 2.2-2.2 0.3-0.5 0.5-0.9 0.5-1.2 0-0.3-0.1-0.6-0.3-0.8s-0.4-0.4-0.7-0.4c-0.3 0-0.7 0-1.1 0.3 -0.6 0.3-1.4 0.9-2.6 1.9 -1.1 1-1.9 1.7-2.2 2.2 -0.3 0.5-0.5 0.9-0.5 1.2S93.8 493.8 94 494z"/>
      <path d="M126.6 514.3l1.5-1.7 6.5 5.7c-0.6 0.6-1.4 1-2.3 1.3 -0.9 0.3-2.2 0.4-4.1 0.5 -1.5 0-2.5 0.1-2.9 0.2 -0.6 0.2-1.1 0.4-1.4 0.8 -0.4 0.4-0.5 0.8-0.5 1.2 0 0.4 0.2 0.8 0.6 1.1 0.4 0.3 0.8 0.5 1.2 0.5 0.4 0 0.9-0.3 1.4-0.8l1.7 1.8c-1 0.9-2 1.3-3 1.3 -1-0.1-1.9-0.5-2.8-1.3 -1-0.8-1.5-1.8-1.6-2.8 -0.1-1 0.2-1.9 0.9-2.6 0.4-0.4 0.8-0.8 1.3-1 0.5-0.3 1.1-0.4 1.8-0.6 0.5-0.1 1.2-0.1 2.3-0.2 1.1 0 1.7 0 2.1-0.1s0.6-0.1 0.8-0.2L126.6 514.3z"/>
      <path d="M123.5 508.5l1.8 1.6 -6.2 7c1.2 0 2.4 0.2 3.6 0.7l-1.5 1.7c-0.6-0.3-1.4-0.4-2.4-0.5 -1-0.1-1.8 0.1-2.5 0.5l-1.5-1.3L123.5 508.5z"/>
      <path d="M152.1 535.4l1.3-1.9 7.1 4.9c-0.6 0.7-1.3 1.2-2.1 1.5s-2.2 0.7-4 1c-1.5 0.2-2.5 0.4-2.9 0.6 -0.6 0.2-1 0.5-1.3 1 -0.3 0.5-0.4 0.9-0.4 1.3 0.1 0.4 0.3 0.8 0.8 1.1 0.4 0.3 0.9 0.4 1.3 0.3 0.4-0.1 0.9-0.4 1.3-1l1.9 1.6c-0.9 1-1.8 1.6-2.8 1.6 -1 0-1.9-0.3-2.9-0.9 -1-0.7-1.7-1.6-1.9-2.6s0-1.9 0.6-2.7c0.3-0.5 0.7-0.9 1.2-1.2s1.1-0.6 1.8-0.8c0.5-0.1 1.2-0.3 2.3-0.4 1-0.1 1.7-0.3 2-0.3 0.3-0.1 0.6-0.2 0.8-0.3L152.1 535.4z"/>
      <path d="M145.3 530.7l1.3-1.9 7.1 4.9c-0.6 0.7-1.3 1.2-2.1 1.5 -0.8 0.4-2.2 0.7-4 1 -1.5 0.2-2.5 0.4-2.9 0.6 -0.6 0.2-1 0.5-1.3 1 -0.3 0.5-0.4 0.9-0.4 1.3 0.1 0.4 0.3 0.8 0.8 1.1 0.4 0.3 0.8 0.4 1.3 0.3 0.4-0.1 0.9-0.4 1.3-1l1.9 1.6c-0.9 1-1.8 1.6-2.8 1.6 -1 0-1.9-0.3-2.9-0.9 -1-0.7-1.7-1.6-1.9-2.6 -0.2-1 0-1.9 0.6-2.7 0.3-0.5 0.7-0.9 1.2-1.2 0.5-0.3 1.1-0.6 1.8-0.8 0.5-0.1 1.2-0.3 2.3-0.4 1-0.1 1.7-0.3 2-0.3 0.3-0.1 0.6-0.2 0.8-0.3L145.3 530.7z"/>
      <path d="M181.8 552.5l1.1-2 7.7 4c-0.5 0.7-1.1 1.3-1.9 1.8 -0.8 0.5-2.1 0.9-3.9 1.4 -1.5 0.4-2.4 0.7-2.8 0.9 -0.5 0.3-0.9 0.7-1.2 1.1 -0.3 0.5-0.3 0.9-0.2 1.3s0.4 0.7 0.9 1c0.5 0.2 0.9 0.3 1.3 0.2 0.4-0.1 0.8-0.5 1.2-1.1l2.1 1.4c-0.8 1.1-1.6 1.8-2.6 1.9 -1 0.2-2 0-3-0.6 -1.1-0.6-1.8-1.4-2.2-2.3 -0.3-0.9-0.2-1.9 0.2-2.8 0.3-0.5 0.6-1 1-1.3 0.4-0.4 1-0.7 1.6-1 0.4-0.2 1.2-0.4 2.2-0.7 1-0.3 1.7-0.5 2-0.6s0.5-0.2 0.8-0.4L181.8 552.5z"/>
      <path d="M181.4 553.6l-2.2-0.9c0.2-0.6 0.3-1.1 0.1-1.5s-0.4-0.8-0.8-1c-0.5-0.2-0.9-0.3-1.4-0.1s-0.9 0.6-1.2 1.1c-0.3 0.5-0.4 1.1-0.2 1.5s0.4 0.8 0.8 1.1c0.3 0.1 0.6 0.3 1.1 0.4l-1.2 1.7c-0.6-0.3-1.1-0.4-1.6-0.3 -0.5 0.1-0.8 0.4-1 0.8 -0.2 0.4-0.2 0.8-0.1 1.1 0.1 0.3 0.4 0.6 0.7 0.8 0.4 0.2 0.8 0.2 1.2 0.1 0.4-0.1 0.8-0.4 1.1-0.9l1.8 1.4c-0.5 0.6-1 1.1-1.5 1.3s-1.1 0.4-1.7 0.3c-0.6 0-1.3-0.2-1.9-0.5 -1.1-0.6-1.8-1.4-2-2.4 -0.2-0.8-0.2-1.6 0.2-2.3 0.5-1 1.5-1.5 2.9-1.5 -0.6-0.5-0.9-1.1-1.1-1.8 -0.1-0.7 0-1.4 0.3-2.1 0.5-1 1.3-1.7 2.4-2 1.1-0.3 2.2-0.2 3.3 0.4 1 0.5 1.7 1.3 2.1 2.2C181.8 551.6 181.8 552.5 181.4 553.6z"/>
      <path d="M212.6 565.6l0.8-2.1 8.1 3.1c-0.4 0.8-1 1.4-1.7 2 -0.7 0.6-1.9 1.2-3.7 1.9 -1.4 0.6-2.3 1-2.7 1.2 -0.5 0.4-0.8 0.8-1 1.2 -0.2 0.5-0.2 1 0 1.3s0.5 0.7 1 0.9c0.5 0.2 0.9 0.2 1.3 0 0.4-0.2 0.7-0.6 1-1.3l2.2 1.1c-0.6 1.2-1.4 2-2.3 2.2 -0.9 0.3-1.9 0.2-3-0.2 -1.2-0.5-2-1.1-2.4-2 -0.4-0.9-0.5-1.8-0.1-2.8 0.2-0.5 0.5-1 0.9-1.4s0.9-0.8 1.5-1.2c0.4-0.2 1.1-0.6 2.1-1 1-0.4 1.6-0.7 1.9-0.8 0.3-0.1 0.5-0.3 0.7-0.5L212.6 565.6z"/>
      <path d="M209 561.7l-0.9 2.4 4.9 1.9 -0.8 2 -8.1 5.7 -1.9-0.7 2.9-7.6 -1.5-0.6 0.8-2 1.5 0.6 0.9-2.4L209 561.7zM207.3 566.2l-1.6 4.1 4.3-3.1L207.3 566.2z"/>
      <path d="M243.5 575.7l0.6-2.2 8.4 2.1c-0.3 0.8-0.8 1.5-1.4 2.2 -0.6 0.6-1.8 1.4-3.4 2.3 -1.3 0.7-2.2 1.3-2.5 1.6 -0.5 0.4-0.7 0.9-0.9 1.3 -0.1 0.5-0.1 1 0.1 1.3 0.2 0.4 0.6 0.6 1.1 0.7 0.5 0.1 0.9 0.1 1.3-0.2 0.4-0.2 0.7-0.7 0.9-1.4l2.3 0.8c-0.5 1.3-1.2 2.1-2 2.5 -0.9 0.4-1.9 0.4-3 0.2 -1.2-0.3-2.1-0.9-2.7-1.7s-0.7-1.8-0.4-2.7c0.1-0.6 0.4-1.1 0.7-1.5 0.3-0.5 0.8-0.9 1.4-1.4 0.4-0.3 1-0.7 2-1.2 0.9-0.5 1.5-0.8 1.8-1 0.3-0.2 0.5-0.4 0.7-0.5L243.5 575.7z"/>
      <path d="M243.3 576.7l-2.5-0.3c0.1-0.6 0-1-0.3-1.4 -0.3-0.4-0.6-0.7-1-0.8 -0.5-0.1-1 0-1.4 0.3 -0.4 0.3-0.8 0.9-1 1.7 -0.2 0.8-0.2 1.4 0.1 1.9 0.2 0.5 0.6 0.8 1.2 0.9 0.7 0.2 1.4 0 2.1-0.5l1.9 0.8 -2.8 6.2 -6.3-1.6 0.6-2.2 4.5 1.1 0.9-2c-0.6 0.1-1.2 0.1-1.7 0 -1.1-0.3-1.9-0.9-2.4-1.8 -0.5-1-0.7-2.1-0.4-3.3 0.3-1 0.8-1.9 1.6-2.5 1.1-0.9 2.4-1.2 3.8-0.8 1.2 0.3 2 0.8 2.6 1.6C243.2 574.7 243.5 575.6 243.3 576.7z"/>
      <path d="M275.6 580.8l0.3-2.3 8.6 1.1c-0.2 0.8-0.6 1.6-1.1 2.3 -0.6 0.7-1.6 1.6-3.1 2.7 -1.2 0.9-2 1.5-2.3 1.8 -0.4 0.5-0.6 0.9-0.7 1.4 -0.1 0.5 0 1 0.3 1.3 0.3 0.3 0.6 0.5 1.2 0.6 0.5 0.1 0.9 0 1.3-0.3 0.3-0.3 0.6-0.8 0.7-1.5l2.4 0.5c-0.3 1.3-0.9 2.2-1.7 2.7 -0.8 0.5-1.8 0.7-3 0.5 -1.3-0.2-2.2-0.6-2.8-1.4 -0.6-0.8-0.9-1.7-0.8-2.7 0.1-0.6 0.2-1.1 0.5-1.6s0.7-1 1.2-1.5c0.3-0.3 0.9-0.8 1.8-1.4 0.9-0.6 1.4-1 1.6-1.2 0.2-0.2 0.4-0.4 0.6-0.6L275.6 580.8z"/>
      <path d="M266.5 587.2l2.4 0c0 0.5 0.1 0.9 0.3 1.1 0.2 0.3 0.5 0.4 0.9 0.5 0.5 0.1 1-0.1 1.4-0.5 0.4-0.4 0.8-1.4 1-2.8 -0.7 0.6-1.5 0.9-2.4 0.8 -1-0.1-1.9-0.6-2.5-1.5 -0.6-0.9-0.9-1.9-0.7-3.2 0.2-1.3 0.7-2.3 1.5-3 0.9-0.7 1.9-1 3.1-0.8 1.3 0.2 2.3 0.8 3 1.9 0.7 1.1 0.9 2.8 0.6 5.1 -0.3 2.3-0.9 4-1.9 4.9 -1 0.9-2.2 1.3-3.6 1.1 -1-0.1-1.7-0.5-2.3-1.1C266.8 589.1 266.5 588.3 266.5 587.2zM272.7 582.5c0.1-0.8 0-1.4-0.3-1.9 -0.3-0.5-0.7-0.7-1.2-0.8 -0.5-0.1-0.9 0.1-1.2 0.4 -0.3 0.3-0.6 0.9-0.7 1.7 -0.1 0.8 0 1.5 0.3 1.9 0.3 0.4 0.7 0.7 1.1 0.7 0.5 0.1 0.9-0.1 1.3-0.4C272.4 583.8 272.6 583.3 272.7 582.5z"/>
      <path d="M308.8 582.9l0-2.3 8.7 0c-0.1 0.9-0.4 1.7-0.8 2.5 -0.5 0.8-1.4 1.8-2.8 3.1 -1.1 1-1.8 1.7-2.1 2.1 -0.3 0.5-0.5 1-0.5 1.5 0 0.6 0.1 1 0.4 1.3 0.3 0.3 0.7 0.4 1.2 0.4 0.5 0 0.9-0.2 1.2-0.5 0.3-0.3 0.5-0.8 0.5-1.5l2.5 0.2c-0.1 1.4-0.6 2.3-1.4 2.9s-1.7 0.9-2.9 0.9c-1.3 0-2.3-0.3-3-1s-1.1-1.5-1.1-2.6c0-0.6 0.1-1.1 0.3-1.7 0.2-0.5 0.5-1.1 1-1.6 0.3-0.4 0.8-0.9 1.6-1.6 0.8-0.7 1.3-1.2 1.5-1.4 0.2-0.2 0.4-0.5 0.5-0.7L308.8 582.9z"/>
      <path d="M308.9 591.1l0 2.3 -8.4 0 0-1.8c0.7-0.7 1.4-1.7 2.1-3 0.7-1.3 1.3-2.6 1.7-4.1 0.4-1.4 0.6-2.7 0.6-3.9l2.4 0c0 1.8-0.4 3.6-1.1 5.4s-1.6 3.5-2.8 5L308.9 591.1z"/>
      <path d="M342.1 581l-0.3-2.3 8.6-1c0 0.9-0.2 1.7-0.5 2.5 -0.4 0.8-1.2 2-2.4 3.4 -1 1.2-1.6 1.9-1.8 2.3 -0.3 0.5-0.4 1.1-0.3 1.6 0.1 0.5 0.3 0.9 0.6 1.2 0.3 0.3 0.8 0.4 1.3 0.3 0.5-0.1 0.9-0.3 1.2-0.6 0.3-0.3 0.4-0.9 0.3-1.6l2.5 0c0 1.4-0.3 2.4-1 3.1 -0.7 0.7-1.6 1.1-2.8 1.2 -1.3 0.2-2.3-0.1-3.1-0.7 -0.8-0.6-1.3-1.4-1.4-2.4 -0.1-0.6 0-1.1 0.1-1.7 0.1-0.5 0.4-1.1 0.8-1.8 0.3-0.4 0.7-1 1.4-1.8 0.7-0.8 1.1-1.3 1.3-1.6 0.2-0.3 0.3-0.5 0.4-0.7L342.1 581z"/>
      <path d="M340.7 585.9c0.7 0.2 1.2 0.5 1.5 0.9s0.5 0.9 0.6 1.5c0.1 1-0.1 1.8-0.7 2.5 -0.6 0.7-1.5 1.1-2.7 1.3 -1.2 0.1-2.2-0.1-2.9-0.6 -0.7-0.5-1.2-1.3-1.3-2.2 -0.1-0.6 0-1.1 0.3-1.6 0.3-0.5 0.6-0.9 1.2-1.2 -0.7-0.2-1.3-0.6-1.8-1.1 -0.4-0.5-0.7-1.1-0.8-1.8 -0.1-1.2 0.1-2.2 0.8-3 0.7-0.8 1.6-1.3 2.9-1.5 1.2-0.1 2.2 0 3 0.6 1 0.6 1.6 1.5 1.7 2.8 0.1 0.7 0 1.3-0.3 2C341.9 585 341.4 585.5 340.7 585.9zM340.1 582.9c-0.1-0.7-0.3-1.2-0.7-1.5s-0.8-0.5-1.4-0.4c-0.5 0.1-0.9 0.3-1.2 0.7s-0.4 0.9-0.3 1.6c0.1 0.6 0.3 1.1 0.7 1.4s0.8 0.5 1.3 0.4c0.6-0.1 1-0.3 1.3-0.8C340 583.9 340.1 583.4 340.1 582.9zM340.5 588.4c-0.1-0.5-0.2-0.9-0.6-1.1 -0.3-0.2-0.7-0.3-1.2-0.3 -0.5 0.1-0.8 0.2-1.1 0.5 -0.2 0.3-0.3 0.7-0.3 1.2 0.1 0.5 0.2 0.8 0.5 1.1 0.3 0.2 0.7 0.3 1.1 0.3 0.5-0.1 0.8-0.2 1.1-0.6C340.4 589.3 340.5 588.9 340.5 588.4z"/>
      <path d="M374.6 574l-0.5-2.2 8.4-2.1c0.1 0.9 0 1.7-0.2 2.6 -0.3 0.9-0.9 2.1-2 3.7 -0.8 1.3-1.3 2.1-1.5 2.5 -0.2 0.6-0.3 1.1-0.1 1.6 0.1 0.5 0.4 0.9 0.7 1.1 0.4 0.2 0.8 0.3 1.3 0.1 0.5-0.1 0.9-0.4 1.1-0.7 0.2-0.4 0.3-0.9 0.1-1.6l2.4-0.3c0.2 1.4 0 2.4-0.6 3.2 -0.6 0.8-1.5 1.3-2.6 1.6 -1.2 0.3-2.3 0.2-3.2-0.3 -0.9-0.5-1.4-1.2-1.7-2.2 -0.1-0.6-0.2-1.1-0.1-1.7 0.1-0.6 0.3-1.2 0.6-1.8 0.2-0.4 0.6-1.1 1.2-2 0.6-0.9 1-1.5 1.1-1.7 0.1-0.3 0.3-0.5 0.3-0.8L374.6 574z"/>
      <path d="M374.8 574.7l-2.3 0.8c-0.2-0.5-0.4-0.8-0.7-0.9s-0.6-0.2-1-0.1c-0.5 0.1-0.9 0.5-1.1 1 -0.2 0.5-0.2 1.5 0 3 0.4-0.8 1.1-1.4 2-1.6 1-0.2 1.9-0.1 2.8 0.5 0.9 0.6 1.5 1.5 1.8 2.7 0.3 1.3 0.2 2.4-0.4 3.3s-1.4 1.6-2.6 1.9c-1.3 0.3-2.4 0.1-3.5-0.7 -1.1-0.8-1.9-2.3-2.4-4.5 -0.6-2.3-0.5-4 0.1-5.3 0.6-1.2 1.6-2 2.9-2.3 1-0.2 1.8-0.2 2.6 0.2C373.8 573 374.4 573.7 374.8 574.7zM370.7 581.3c0.2 0.8 0.5 1.3 1 1.7 0.5 0.3 0.9 0.5 1.4 0.3 0.4-0.1 0.8-0.4 1-0.8s0.2-1 0-1.8c-0.2-0.8-0.5-1.4-0.9-1.7s-0.9-0.4-1.3-0.3c-0.5 0.1-0.8 0.4-1 0.8C370.5 580 370.5 580.6 370.7 581.3z"/>
      <path d="M414.5 564.1l-2.1 1.1c-0.3-0.5-0.6-0.9-1.1-1.1 -0.4-0.2-0.9-0.2-1.3 0 -0.5 0.2-0.8 0.5-1 1 -0.2 0.5-0.2 1 0.1 1.6 0.2 0.6 0.5 1 1 1.2 0.4 0.2 0.9 0.2 1.3 0.1 0.3-0.1 0.6-0.3 1-0.6l0.5 2c-0.6 0.2-1.1 0.5-1.3 0.9 -0.2 0.4-0.2 0.9-0.1 1.3 0.2 0.4 0.4 0.7 0.7 0.8s0.7 0.1 1.1 0c0.4-0.1 0.7-0.4 0.9-0.8 0.2-0.4 0.2-0.8 0.1-1.4l2.3-0.4c0.1 0.8 0.1 1.5 0 2s-0.4 1-0.9 1.5c-0.4 0.5-1 0.8-1.7 1.1 -1.1 0.4-2.2 0.4-3.1-0.1 -0.8-0.4-1.3-0.9-1.6-1.7 -0.4-1.1-0.1-2.1 0.8-3.2 -0.7 0.1-1.4 0-2-0.4s-1-0.9-1.3-1.6c-0.4-1.1-0.4-2.1 0.1-3.1 0.5-1 1.3-1.8 2.5-2.2 1.1-0.4 2.1-0.4 3.1-0.1S414 563.1 414.5 564.1z"/>
      <path d="M406.2 577.4c-1.2 0.4-2.2 0.4-3.2-0.2 -1.2-0.7-2.2-2.2-3-4.5 -0.9-2.3-1.1-4.1-0.7-5.4 0.3-1.1 1.1-1.8 2.3-2.3 1.2-0.4 2.3-0.3 3.3 0.3s2 2.1 2.9 4.4c0.9 2.3 1.1 4.1 0.7 5.3C408.1 576.2 407.3 577 406.2 577.4zM405.4 575.5c0.3-0.1 0.5-0.3 0.6-0.5 0.2-0.3 0.2-0.6 0.1-1.2 -0.1-0.7-0.4-1.7-0.9-3.1 -0.5-1.4-1-2.4-1.3-2.8 -0.3-0.5-0.7-0.8-0.9-0.9 -0.3-0.1-0.6-0.1-0.8 0 -0.3 0.1-0.5 0.3-0.6 0.5 -0.2 0.3-0.2 0.6-0.1 1.2 0.1 0.7 0.4 1.7 0.9 3.1s1 2.4 1.3 2.8c0.3 0.5 0.7 0.8 0.9 0.9C404.9 575.6 405.1 575.6 405.4 575.5z"/>
      <path d="M444.9 550l-2 1.4c-0.3-0.5-0.7-0.8-1.2-1 -0.4-0.1-0.9-0.1-1.3 0.1 -0.5 0.2-0.7 0.6-0.9 1.1 -0.1 0.5 0 1 0.3 1.6 0.3 0.5 0.7 0.9 1.1 1.1 0.5 0.2 0.9 0.1 1.3-0.1 0.3-0.1 0.6-0.4 0.9-0.7l0.7 1.9c-0.6 0.3-1 0.7-1.2 1.1s-0.1 0.9 0.1 1.3c0.2 0.4 0.5 0.6 0.8 0.7 0.3 0.1 0.7 0.1 1.1-0.1 0.4-0.2 0.6-0.5 0.8-0.9s0.1-0.9-0.1-1.4l2.2-0.7c0.2 0.8 0.3 1.4 0.2 2s-0.3 1.1-0.7 1.6c-0.4 0.5-0.9 0.9-1.5 1.2 -1.1 0.6-2.1 0.7-3.1 0.3 -0.8-0.3-1.4-0.8-1.8-1.5 -0.5-1-0.4-2.1 0.4-3.3 -0.7 0.2-1.4 0.2-2.1-0.1 -0.6-0.3-1.2-0.8-1.5-1.5 -0.5-1-0.6-2-0.2-3.1 0.4-1.1 1.1-1.9 2.2-2.5 1-0.5 2-0.7 3-0.5C443.5 548.5 444.3 549.1 444.9 550z"/>
      <path d="M430.3 553.7l2.2-1.1 4.3 8.2c0.4-1.2 1.1-2.2 2-3.1l1 2c-0.5 0.5-0.9 1.2-1.3 2 -0.4 0.9-0.5 1.7-0.4 2.5l-1.8 0.9L430.3 553.7z"/>
      <path d="M472.3 530.9l-1.8 1.6c-0.4-0.5-0.8-0.7-1.3-0.8 -0.5-0.1-0.9 0-1.3 0.3 -0.4 0.3-0.7 0.7-0.7 1.2 -0.1 0.5 0.1 1 0.5 1.6 0.4 0.5 0.8 0.8 1.2 0.9 0.5 0.1 0.9 0 1.3-0.2 0.3-0.2 0.5-0.4 0.8-0.8l0.9 1.8c-0.6 0.4-0.9 0.8-1 1.2s0 0.9 0.3 1.3c0.2 0.4 0.5 0.6 0.9 0.6 0.4 0.1 0.7 0 1.1-0.3 0.3-0.2 0.6-0.6 0.6-1 0.1-0.4 0-0.9-0.3-1.4l2.1-1c0.3 0.7 0.5 1.4 0.5 1.9 0 0.6-0.2 1.1-0.5 1.7 -0.3 0.5-0.8 1-1.4 1.4 -1 0.7-2 0.9-3.1 0.7 -0.9-0.2-1.5-0.6-2-1.3 -0.6-0.9-0.6-2 0-3.3 -0.7 0.3-1.4 0.3-2.1 0.1 -0.7-0.2-1.2-0.6-1.7-1.3 -0.6-0.9-0.8-2-0.6-3.1 0.2-1.1 0.9-2 1.9-2.7 1-0.7 1.9-0.9 3-0.8C470.7 529.6 471.5 530 472.3 530.9z"/>
      <path d="M457.9 539.4l-1.3-1.9 7.1-4.9c0.4 0.8 0.6 1.6 0.7 2.5s-0.1 2.3-0.5 4.1c-0.3 1.5-0.5 2.5-0.5 2.9 0 0.6 0.2 1.1 0.4 1.5 0.3 0.5 0.7 0.7 1.1 0.8 0.4 0.1 0.8 0 1.3-0.3 0.4-0.3 0.7-0.7 0.8-1.1 0.1-0.4-0.1-1-0.4-1.6l2.2-1.2c0.6 1.2 0.8 2.3 0.5 3.2 -0.3 0.9-0.9 1.7-1.9 2.4 -1 0.7-2.1 1-3.1 0.9s-1.8-0.6-2.3-1.5c-0.3-0.5-0.6-1-0.7-1.5 -0.1-0.5-0.2-1.2-0.1-1.9 0-0.5 0.2-1.2 0.4-2.3 0.2-1 0.4-1.7 0.4-2 0-0.3 0-0.6 0-0.9L457.9 539.4z"/>
      <path d="M497.6 509.7l-1.6 1.8c-0.5-0.4-0.9-0.6-1.4-0.6 -0.5 0-0.9 0.1-1.2 0.4 -0.4 0.3-0.6 0.8-0.6 1.3 0 0.5 0.2 1 0.6 1.5 0.4 0.5 0.9 0.7 1.4 0.8 0.5 0.1 0.9-0.1 1.3-0.4 0.2-0.2 0.5-0.5 0.7-0.9l1.1 1.7c-0.5 0.4-0.8 0.9-0.9 1.3 -0.1 0.5 0.1 0.9 0.4 1.3 0.3 0.3 0.6 0.5 1 0.5 0.4 0 0.7-0.1 1-0.4 0.3-0.3 0.5-0.6 0.5-1 0-0.4-0.1-0.9-0.4-1.3l2-1.2c0.4 0.7 0.6 1.3 0.7 1.9 0.1 0.6 0 1.1-0.3 1.7 -0.3 0.6-0.6 1.1-1.2 1.6 -0.9 0.8-1.9 1.2-3 1.1 -0.9-0.1-1.6-0.4-2.1-1 -0.7-0.8-0.9-1.9-0.4-3.3 -0.7 0.4-1.3 0.5-2 0.4 -0.7-0.1-1.3-0.5-1.8-1.1 -0.7-0.8-1.1-1.8-1-3 0.1-1.1 0.6-2.1 1.5-2.9 0.9-0.8 1.8-1.2 2.8-1.2C495.9 508.6 496.8 508.9 497.6 509.7z"/>
      <path d="M491.5 515.1l-1.6 1.8c-0.5-0.4-0.9-0.6-1.4-0.6 -0.5 0-0.9 0.1-1.2 0.4 -0.4 0.3-0.6 0.8-0.6 1.3 0 0.5 0.2 1 0.6 1.5 0.4 0.5 0.9 0.7 1.4 0.8 0.5 0.1 0.9-0.1 1.3-0.4 0.2-0.2 0.5-0.5 0.7-0.9l1.1 1.7c-0.5 0.4-0.8 0.9-0.9 1.3 -0.1 0.5 0.1 0.9 0.4 1.3 0.3 0.3 0.6 0.5 1 0.5 0.4 0 0.7-0.1 1-0.4 0.3-0.3 0.5-0.6 0.5-1 0-0.4-0.1-0.9-0.4-1.3l2-1.2c0.4 0.7 0.6 1.3 0.7 1.9 0.1 0.6 0 1.1-0.3 1.7 -0.3 0.6-0.6 1.1-1.2 1.6 -0.9 0.8-1.9 1.2-3 1.1 -0.9-0.1-1.6-0.4-2.1-1 -0.7-0.8-0.9-1.9-0.4-3.3 -0.7 0.4-1.3 0.5-2 0.4 -0.7-0.1-1.3-0.5-1.8-1.1 -0.7-0.8-1.1-1.8-1-3 0.1-1.1 0.6-2.1 1.5-2.9 0.9-0.8 1.8-1.2 2.8-1.2C489.8 514 490.7 514.4 491.5 515.1z"/>
      <path d="M521 485.4l-1.4 2c-0.5-0.3-1-0.5-1.5-0.5 -0.5 0-0.9 0.2-1.2 0.6 -0.3 0.4-0.5 0.8-0.4 1.3 0.1 0.5 0.3 1 0.8 1.4 0.5 0.4 0.9 0.6 1.4 0.6 0.5 0 0.9-0.2 1.2-0.6 0.2-0.2 0.4-0.6 0.6-1l1.3 1.5c-0.5 0.5-0.7 1-0.7 1.4 0 0.5 0.2 0.9 0.6 1.2 0.3 0.3 0.7 0.4 1 0.4 0.4 0 0.7-0.2 1-0.5 0.3-0.3 0.4-0.7 0.4-1.1 0-0.4-0.2-0.8-0.6-1.3l1.8-1.4c0.5 0.6 0.8 1.2 0.9 1.8 0.1 0.5 0.1 1.1-0.1 1.7 -0.2 0.6-0.5 1.2-1 1.7 -0.8 0.9-1.7 1.4-2.8 1.4 -0.9 0-1.6-0.2-2.2-0.7 -0.8-0.8-1.1-1.8-0.8-3.2 -0.6 0.4-1.3 0.7-2 0.6 -0.7 0-1.3-0.3-1.9-0.8 -0.8-0.8-1.3-1.7-1.3-2.8 0-1.1 0.3-2.2 1.2-3.1 0.8-0.9 1.7-1.4 2.7-1.5S520.1 484.8 521 485.4z"/>
      <path d="M509.7 493l1.9 1.7 3.5-3.9 1.6 1.4 2.4 9.6 -1.4 1.5 -6.1-5.4 -1.1 1.2 -1.6-1.4 1.1-1.2 -1.9-1.7L509.7 493zM513.3 496.1l3.3 2.9 -1.3-5.1L513.3 496.1z"/>
      <path d="M540.3 459.2l-1.1 2.1c-0.5-0.3-1-0.4-1.5-0.3 -0.5 0.1-0.8 0.3-1.1 0.7 -0.3 0.4-0.4 0.9-0.3 1.4 0.1 0.5 0.4 0.9 1 1.3 0.5 0.4 1 0.5 1.5 0.4s0.9-0.3 1.1-0.7c0.2-0.3 0.3-0.6 0.5-1l1.5 1.4c-0.4 0.5-0.6 1-0.5 1.5 0.1 0.5 0.3 0.8 0.7 1.1 0.4 0.2 0.7 0.3 1.1 0.3s0.7-0.3 0.9-0.6c0.2-0.3 0.3-0.7 0.3-1.1 -0.1-0.4-0.3-0.8-0.7-1.2l1.6-1.7c0.6 0.6 0.9 1.1 1.1 1.7 0.2 0.5 0.2 1.1 0.1 1.7 -0.1 0.6-0.4 1.2-0.8 1.8 -0.7 1-1.6 1.6-2.6 1.7 -0.9 0.1-1.6 0-2.3-0.5 -0.9-0.6-1.3-1.7-1.2-3.1 -0.6 0.5-1.2 0.8-1.9 0.8 -0.7 0.1-1.4-0.1-2-0.6 -0.9-0.6-1.5-1.5-1.7-2.7 -0.2-1.1 0.1-2.2 0.8-3.2 0.7-1 1.5-1.6 2.5-1.8C538.4 458.5 539.3 458.6 540.3 459.2z"/>
      <path d="M535.5 465.9l-1.2 2.2c-0.5-0.3-1-0.3-1.4-0.2 -0.5 0.1-0.8 0.3-1.1 0.7 -0.3 0.4-0.4 0.9-0.2 1.4 0.1 0.5 0.6 1 1.3 1.5 0.6 0.5 1.2 0.6 1.8 0.6 0.5-0.1 1-0.3 1.3-0.8 0.4-0.6 0.5-1.3 0.3-2.1l1.4-1.5 4.8 4.9 -3.7 5.4 -1.9-1.3 2.7-3.8 -1.6-1.6c-0.1 0.6-0.3 1.1-0.6 1.6 -0.6 0.9-1.5 1.4-2.6 1.6 -1.1 0.2-2.2-0.1-3.2-0.8 -0.9-0.6-1.5-1.4-1.8-2.4 -0.5-1.3-0.3-2.6 0.6-3.8 0.7-1 1.5-1.6 2.4-1.8C533.5 465.3 534.5 465.5 535.5 465.9z"/>
      <path d="M556.6 429.8l-0.9 2.2c-0.6-0.2-1.1-0.3-1.5-0.1s-0.8 0.4-1 0.8c-0.2 0.5-0.3 0.9-0.1 1.4s0.6 0.9 1.1 1.2c0.5 0.3 1.1 0.4 1.5 0.2 0.5-0.1 0.8-0.4 1.1-0.8 0.1-0.3 0.3-0.6 0.4-1.1l1.7 1.2c-0.3 0.6-0.4 1.1-0.3 1.6 0.1 0.5 0.4 0.8 0.8 1 0.4 0.2 0.8 0.2 1.1 0.1 0.3-0.1 0.6-0.4 0.8-0.7 0.2-0.4 0.2-0.8 0.1-1.2 -0.1-0.4-0.4-0.8-0.9-1.1l1.4-1.8c0.6 0.5 1.1 1 1.3 1.5 0.3 0.5 0.4 1.1 0.3 1.7 0 0.6-0.2 1.3-0.5 1.9 -0.6 1.1-1.4 1.8-2.4 2 -0.8 0.2-1.6 0.2-2.3-0.2 -1-0.5-1.5-1.5-1.5-2.9 -0.5 0.6-1.1 0.9-1.8 1.1 -0.7 0.1-1.4 0-2.1-0.3 -1-0.5-1.7-1.3-2-2.4 -0.3-1.1-0.2-2.2 0.4-3.3 0.5-1 1.3-1.7 2.2-2.1C554.6 429.4 555.6 429.5 556.6 429.8z"/>
      <path d="M554.4 447.5l0.9-2.2c0.5 0.2 0.9 0.2 1.2 0.1 0.3-0.1 0.6-0.3 0.8-0.7 0.2-0.5 0.2-1 0-1.5s-1-1.2-2.3-2c0.4 0.9 0.3 1.7-0.1 2.5 -0.5 0.9-1.2 1.5-2.3 1.8 -1 0.3-2.1 0.1-3.2-0.4 -1.2-0.6-1.9-1.5-2.3-2.5 -0.3-1.1-0.2-2.1 0.3-3.2 0.6-1.2 1.6-1.9 2.8-2.1 1.3-0.3 2.9 0.1 5 1.2 2.1 1.1 3.4 2.3 3.9 3.5s0.4 2.5-0.2 3.7c-0.5 0.9-1.1 1.5-1.9 1.8C556.3 447.9 555.4 447.9 554.4 447.5zM552.2 440.1c-0.7-0.4-1.3-0.5-1.9-0.4 -0.6 0.1-0.9 0.4-1.2 0.8 -0.2 0.4-0.2 0.8-0.1 1.3 0.2 0.4 0.6 0.8 1.3 1.2 0.7 0.4 1.4 0.5 1.9 0.4 0.5-0.1 0.9-0.4 1.1-0.8 0.2-0.4 0.2-0.9 0.1-1.3C553.3 440.8 552.9 440.4 552.2 440.1z"/>
      <path d="M568.8 399.5l-0.6 2.3c-0.6-0.1-1.1-0.1-1.5 0.1s-0.7 0.5-0.9 1c-0.2 0.5-0.2 0.9 0.1 1.4 0.2 0.5 0.7 0.8 1.3 1 0.6 0.2 1.1 0.2 1.6 0.1 0.5-0.2 0.8-0.5 0.9-0.9 0.1-0.3 0.2-0.7 0.2-1.1l1.8 1c-0.3 0.6-0.3 1.1-0.1 1.6 0.2 0.4 0.5 0.7 1 0.9 0.4 0.2 0.8 0.2 1.1 0 0.3-0.1 0.6-0.4 0.7-0.8 0.2-0.4 0.1-0.8 0-1.2s-0.5-0.7-1-1l1.2-2c0.7 0.4 1.2 0.9 1.5 1.3 0.3 0.5 0.5 1 0.6 1.6 0 0.6-0.1 1.3-0.3 1.9 -0.4 1.1-1.1 1.9-2.1 2.3 -0.8 0.3-1.6 0.4-2.3 0.1 -1.1-0.4-1.7-1.3-1.9-2.7 -0.4 0.6-1 1.1-1.6 1.3 -0.7 0.2-1.4 0.2-2.1-0.1 -1.1-0.4-1.8-1.1-2.3-2.2s-0.5-2.2 0-3.3c0.4-1.1 1.1-1.9 2-2.4C566.8 399.3 567.8 399.2 568.8 399.5z"/>
      <path d="M572.4 409.8l2.1 0.8 -3 7.9 -1.7-0.6c-0.4-0.9-1.1-1.9-2-3 -0.9-1.1-2-2.1-3.2-3 -1.2-0.9-2.4-1.5-3.4-1.9l0.8-2.2c1.6 0.7 3.2 1.7 4.7 3s2.7 2.8 3.6 4.4L572.4 409.8z"/>
      <path d="M579 367.1l-0.3 2.4c-0.6-0.1-1.1 0-1.5 0.3 -0.4 0.2-0.6 0.6-0.8 1.1 -0.1 0.5 0 1 0.3 1.4 0.3 0.4 0.8 0.7 1.4 0.9 0.6 0.1 1.1 0.1 1.6-0.1 0.4-0.2 0.7-0.6 0.8-1.1 0.1-0.3 0.1-0.7 0.1-1.1l1.9 0.8c-0.2 0.6-0.2 1.2 0.1 1.6s0.6 0.7 1.1 0.8c0.4 0.1 0.8 0.1 1.1-0.1s0.5-0.5 0.6-0.9c0.1-0.4 0-0.8-0.2-1.2 -0.2-0.4-0.6-0.6-1.1-0.8l0.9-2.1c0.7 0.3 1.3 0.7 1.6 1.1 0.4 0.4 0.6 0.9 0.7 1.6 0.1 0.6 0.1 1.3-0.1 2 -0.3 1.2-0.9 2-1.8 2.6 -0.8 0.4-1.5 0.6-2.3 0.4 -1.1-0.3-1.8-1.1-2.2-2.5 -0.3 0.7-0.8 1.2-1.5 1.5 -0.6 0.3-1.3 0.4-2.1 0.2 -1.1-0.3-1.9-0.9-2.5-1.9s-0.7-2.1-0.4-3.3c0.3-1.1 0.8-2 1.7-2.6C577 367.2 578 367 579 367.1z"/>
      <path d="M580 378.1c0.4-0.6 0.9-0.9 1.4-1.1 0.5-0.2 1.1-0.2 1.6 0 0.9 0.2 1.6 0.7 2.1 1.6 0.4 0.8 0.5 1.8 0.2 3 -0.3 1.2-0.8 2-1.6 2.5 -0.8 0.5-1.6 0.6-2.6 0.4 -0.6-0.1-1.1-0.4-1.4-0.8s-0.6-0.9-0.7-1.5c-0.5 0.6-1 1.1-1.6 1.3 -0.6 0.2-1.3 0.3-2 0.1 -1.2-0.3-2-0.9-2.5-1.8 -0.5-0.9-0.7-2-0.4-3.2 0.3-1.1 0.8-2 1.6-2.6 0.9-0.7 2-0.9 3.2-0.6 0.7 0.2 1.3 0.5 1.7 1C579.5 376.7 579.8 377.3 580 378.1zM576.9 377.6c-0.7-0.2-1.2-0.1-1.7 0.1 -0.5 0.2-0.7 0.6-0.9 1.1 -0.1 0.5 0 0.9 0.2 1.4 0.3 0.4 0.7 0.7 1.4 0.9 0.6 0.1 1.1 0.1 1.5-0.1 0.4-0.2 0.7-0.6 0.8-1.1 0.1-0.6 0.1-1.1-0.3-1.5C577.8 378 577.4 377.8 576.9 377.6zM582.2 379.2c-0.5-0.1-0.9-0.1-1.2 0.1 -0.3 0.2-0.6 0.5-0.7 1 -0.1 0.5-0.1 0.9 0.1 1.2 0.2 0.3 0.5 0.6 1 0.7 0.4 0.1 0.8 0.1 1.2-0.1 0.3-0.2 0.6-0.5 0.7-1 0.1-0.5 0.1-0.9-0.1-1.2S582.7 379.3 582.2 379.2z"/>
      <path d="M584.2 333.7l0 2.4c-0.6 0-1.1 0.1-1.5 0.4 -0.4 0.3-0.6 0.7-0.6 1.1 -0.1 0.5 0.1 1 0.4 1.3 0.3 0.4 0.8 0.6 1.5 0.7 0.6 0.1 1.1 0 1.5-0.3 0.4-0.3 0.6-0.7 0.7-1.1 0-0.3 0-0.7 0-1.1l2 0.5c-0.1 0.7 0 1.2 0.2 1.6 0.3 0.4 0.6 0.6 1.2 0.7 0.4 0.1 0.8 0 1.1-0.3 0.3-0.2 0.5-0.5 0.5-1 0.1-0.4 0-0.8-0.3-1.1 -0.3-0.3-0.7-0.6-1.2-0.7l0.7-2.2c0.8 0.3 1.3 0.6 1.8 0.9 0.4 0.4 0.7 0.9 0.9 1.5 0.2 0.6 0.2 1.3 0.2 2 -0.1 1.2-0.7 2.1-1.5 2.8 -0.7 0.5-1.4 0.7-2.2 0.6 -1.1-0.1-1.9-0.9-2.5-2.2 -0.2 0.7-0.7 1.3-1.3 1.6s-1.3 0.5-2.1 0.4c-1.1-0.1-2-0.7-2.7-1.6 -0.7-0.9-1-2-0.8-3.2 0.1-1.2 0.6-2.1 1.4-2.8C582.2 334.1 583.1 333.7 584.2 333.7z"/>
      <path d="M582.7 342l0 2.4c-0.5 0-0.9 0.1-1.1 0.3 -0.3 0.2-0.4 0.5-0.5 0.9 -0.1 0.5 0.1 1 0.5 1.4 0.4 0.4 1.4 0.8 2.8 1 -0.6-0.7-0.9-1.5-0.8-2.4 0.1-1 0.6-1.8 1.5-2.5s1.9-0.9 3.2-0.7c1.3 0.2 2.3 0.7 3 1.5 0.7 0.9 1 1.9 0.8 3.1 -0.2 1.3-0.8 2.3-1.9 3 -1.1 0.7-2.8 0.9-5.1 0.6 -2.3-0.3-4-0.9-4.9-1.9 -0.9-1-1.3-2.2-1.1-3.6 0.1-1 0.5-1.8 1.1-2.3C580.8 342.3 581.7 342 582.7 342zM587.4 348.2c0.8 0.1 1.4 0 1.9-0.3 0.5-0.3 0.8-0.7 0.8-1.2 0.1-0.5-0.1-0.9-0.4-1.2 -0.3-0.3-0.9-0.6-1.7-0.7 -0.8-0.1-1.5 0-1.9 0.3 -0.4 0.3-0.7 0.7-0.7 1.1 -0.1 0.5 0.1 0.9 0.4 1.3S586.7 348.1 587.4 348.2z"/>
      <path d="M580.9 305.3l2.6 0 0-5.3 2.2 0 8.2 5.6 0 2.1 -8.2 0 0 1.6 -2.2 0 0-1.6 -2.6 0L580.9 305.3zM585.6 305.3l4.4 0 -4.4-3L585.6 305.3z"/>
      <path d="M593.8 312.8c0 1.2-0.5 2.2-1.3 2.9 -1.1 0.8-2.8 1.3-5.2 1.2 -2.4 0-4.2-0.4-5.3-1.3 -0.9-0.7-1.3-1.7-1.3-2.9 0-1.3 0.5-2.3 1.5-3s2.7-1.1 5.2-1.1c2.4 0 4.2 0.4 5.2 1.3C593.4 310.6 593.8 311.6 593.8 312.8zM591.7 312.8c0-0.3-0.1-0.6-0.3-0.8s-0.5-0.4-1-0.5c-0.6-0.2-1.7-0.3-3.2-0.3 -1.5 0-2.6 0.1-3.1 0.2 -0.6 0.2-0.9 0.3-1.1 0.6 -0.2 0.2-0.3 0.5-0.3 0.8s0.1 0.6 0.3 0.8c0.2 0.2 0.5 0.4 1 0.5 0.6 0.2 1.7 0.3 3.2 0.3 1.5 0 2.6-0.1 3.1-0.2 0.6-0.2 0.9-0.3 1.1-0.6S591.7 313.1 591.7 312.8z"/>
      <path d="M578.5 272.2l2.6-0.3 -0.6-5.2 2.1-0.3 8.8 4.6 0.2 2.1 -8.1 1 0.2 1.6 -2.2 0.3 -0.2-1.6 -2.6 0.3L578.5 272.2zM583.3 271.7l4.4-0.5 -4.7-2.4L583.3 271.7z"/>
      <path d="M579.7 281.8l-0.3-2.5 9.2-1.1c-0.9-0.8-1.7-1.8-2.2-2.9l2.2-0.3c0.3 0.6 0.8 1.3 1.4 1.9 0.7 0.7 1.4 1.1 2.2 1.3l0.2 2L579.7 281.8z"/>
      <path d="M573.2 239.1l2.5-0.6 -1.3-5.1 2.1-0.5 9.3 3.5 0.5 2 -7.9 1.9 0.4 1.6 -2.1 0.5 -0.4-1.6 -2.5 0.6L573.2 239.1zM577.8 238l4.3-1 -5-1.8L577.8 238z"/>
      <path d="M578.2 249.9l-2.2 0.5 -2.1-8.4c0.9-0.1 1.7 0 2.6 0.2 0.9 0.3 2.1 0.9 3.7 2 1.3 0.8 2.1 1.3 2.5 1.5 0.6 0.2 1.1 0.3 1.6 0.1 0.5-0.1 0.9-0.4 1.1-0.7 0.2-0.4 0.3-0.8 0.1-1.3 -0.1-0.5-0.4-0.9-0.7-1.1s-0.9-0.3-1.6-0.1l-0.3-2.4c1.4-0.2 2.4 0 3.2 0.6 0.8 0.6 1.3 1.5 1.6 2.6 0.3 1.2 0.2 2.3-0.3 3.2s-1.2 1.4-2.2 1.7c-0.6 0.1-1.1 0.2-1.7 0.1 -0.6-0.1-1.2-0.3-1.8-0.6 -0.4-0.2-1.1-0.6-2-1.2 -0.9-0.6-1.5-1-1.7-1.1 -0.3-0.1-0.5-0.3-0.8-0.3L578.2 249.9z"/>
      <path d="M562.9 207.9l2.4-0.9 -1.9-4.9 2-0.8 9.6 2.3 0.7 1.9 -7.6 2.9 0.6 1.5 -2 0.8 -0.6-1.5 -2.4 0.9L562.9 207.9zM567.3 206.2l4.1-1.6 -5.2-1.2L567.3 206.2z"/>
      <path d="M567.2 209.8l1.1 2.1c-0.5 0.3-0.9 0.6-1.1 1.1 -0.2 0.4-0.2 0.9 0 1.3 0.2 0.5 0.5 0.8 1 1 0.5 0.2 1 0.2 1.6-0.1 0.6-0.2 1-0.5 1.2-1 0.2-0.4 0.2-0.9 0.1-1.3 -0.1-0.3-0.3-0.6-0.6-1l2-0.5c0.2 0.6 0.5 1.1 0.9 1.3 0.4 0.2 0.9 0.2 1.3 0.1 0.4-0.2 0.7-0.4 0.8-0.7s0.1-0.7 0-1.1c-0.1-0.4-0.4-0.7-0.8-0.9 -0.4-0.2-0.8-0.2-1.4-0.1l-0.4-2.3c0.8-0.1 1.5-0.1 2 0s1 0.4 1.5 0.9c0.5 0.4 0.8 1 1.1 1.7 0.4 1.1 0.4 2.2-0.1 3.1 -0.4 0.8-0.9 1.3-1.7 1.6 -1.1 0.4-2.1 0.1-3.2-0.8 0.1 0.7 0 1.4-0.4 2s-0.9 1-1.6 1.3c-1.1 0.4-2.1 0.4-3.1-0.1 -1-0.5-1.8-1.3-2.2-2.5 -0.4-1.1-0.4-2.1-0.1-3.1C565.6 211 566.2 210.3 567.2 209.8z"/>
      <path d="M549.5 179.6l2.3-1.2 -2.4-4.7 1.9-1 9.8 1.2 1 1.8 -7.2 3.8 0.7 1.4 -1.9 1 -0.7-1.4 -2.3 1.2L549.5 179.6zM553.7 177.4l3.9-2 -5.3-0.6L553.7 177.4z"/>
      <path d="M553.3 186.9l2.3-1.2 -2.4-4.7 1.9-1 9.8 1.2 1 1.8 -7.2 3.8 0.7 1.4 -1.9 1 -0.7-1.4 -2.3 1.2L553.3 186.9zM557.5 184.7l3.9-2 -5.3-0.6L557.5 184.7z"/>
      <path d="M532.1 150.3l2.1-1.5 -3-4.3 1.8-1.2 9.9 0 1.2 1.7 -6.7 4.6 0.9 1.3 -1.8 1.2 -0.9-1.3 -2.1 1.5L532.1 150.3zM536 147.6l3.6-2.5 -5.3 0.1L536 147.6z"/>
      <path d="M536.7 151.2l1.6 1.9c-0.4 0.4-0.7 0.8-0.7 1.3s0 0.9 0.3 1.3c0.3 0.4 0.7 0.7 1.3 0.7 0.5 0.1 1.2-0.2 1.9-0.6 0.7-0.4 1-0.9 1.2-1.4s0-1-0.3-1.5c-0.4-0.6-1-0.9-1.9-1l-0.9-1.8 6.2-2.8 3.7 5.4 -1.9 1.3 -2.6-3.8 -2 0.9c0.5 0.3 1 0.7 1.3 1.2 0.6 0.9 0.8 1.9 0.6 3 -0.2 1.1-0.9 2-1.9 2.7 -0.9 0.6-1.8 0.9-2.9 0.8 -1.4 0-2.5-0.7-3.4-1.9 -0.7-1-1-2-0.9-2.9C535.5 152.8 535.9 151.9 536.7 151.2z"/>
      <path d="M510.6 125.9l1.9-1.7 -3.5-4 1.6-1.4 9.8-1.2 1.4 1.6 -6.1 5.4 1.1 1.2 -1.6 1.4 -1.1-1.2 -1.9 1.7L510.6 125.9zM514.2 122.7l3.3-2.9 -5.3 0.7L514.2 122.7z"/>
      <path d="M525.7 128.2l-1.8-1.6c0.3-0.4 0.5-0.7 0.5-1.1s-0.1-0.7-0.4-1c-0.3-0.4-0.8-0.6-1.4-0.5 -0.6 0-1.5 0.5-2.6 1.4 1 0 1.7 0.3 2.3 1 0.7 0.8 1 1.7 0.9 2.8 -0.1 1.1-0.6 2-1.6 2.8 -1 0.9-2 1.3-3.1 1.2 -1.1-0.1-2.1-0.5-2.9-1.4 -0.9-1-1.2-2.1-1-3.4s1.2-2.7 2.9-4.2c1.8-1.6 3.3-2.4 4.7-2.4 1.4 0 2.5 0.5 3.4 1.5 0.6 0.7 1 1.5 1 2.4C526.6 126.6 526.3 127.4 525.7 128.2zM517.9 127.6c-0.6 0.5-0.9 1.1-1 1.6 -0.1 0.6 0 1 0.3 1.4 0.3 0.3 0.7 0.5 1.2 0.5 0.5 0 1-0.3 1.6-0.8 0.6-0.6 1-1.1 1.1-1.6s-0.1-0.9-0.4-1.3c-0.3-0.4-0.7-0.5-1.2-0.5C519 126.9 518.5 127.1 517.9 127.6z"/>
      <path d="M486.1 102.4l1.7-1.9 -3.9-3.5 1.4-1.6 9.6-2.4 1.5 1.4 -5.4 6.1 1.2 1.1 -1.4 1.6 -1.2-1.1 -1.7 1.9L486.1 102.4zM489.2 98.8l2.9-3.3 -5.1 1.3L489.2 98.8z"/>
      <path d="M495.5 96.8l1.5-1.7 6.3 5.6 -1.2 1.3c-1 0-2.2 0.3-3.6 0.8 -1.4 0.5-2.7 1.1-4 2 -1.2 0.8-2.2 1.7-3 2.5l-1.8-1.6c1.2-1.3 2.7-2.4 4.4-3.3 1.7-0.9 3.5-1.5 5.4-1.9L495.5 96.8z"/>
      <path d="M460.5 82.9l1.5-2.1 -4.3-3 1.2-1.8 9.3-3.5 1.7 1.2 -4.7 6.7 1.3 0.9 -1.2 1.8 -1.3-0.9 -1.5 2.1L460.5 82.9zM463.2 78.9l2.5-3.6 -4.9 1.9L463.2 78.9z"/>
      <path d="M469 80.3c-0.4-0.6-0.5-1.2-0.5-1.7s0.2-1.1 0.5-1.5c0.5-0.8 1.3-1.2 2.2-1.4s1.9 0.2 2.9 0.9c1 0.7 1.6 1.5 1.8 2.4 0.2 0.9 0 1.7-0.5 2.5 -0.3 0.5-0.8 0.8-1.3 1 -0.5 0.2-1.1 0.2-1.7 0.1 0.4 0.6 0.6 1.3 0.6 2 0 0.7-0.2 1.3-0.6 1.9 -0.7 1-1.5 1.6-2.6 1.7 -1 0.2-2.1-0.1-3.1-0.8 -1-0.7-1.6-1.5-1.9-2.4 -0.3-1.1-0.2-2.2 0.6-3.2 0.4-0.6 0.9-1 1.5-1.3C467.5 80.2 468.2 80.1 469 80.3zM467.5 82.9c-0.4 0.6-0.5 1.1-0.5 1.6 0.1 0.5 0.3 0.9 0.7 1.2 0.4 0.3 0.9 0.4 1.4 0.3 0.5-0.1 0.9-0.4 1.3-1 0.3-0.5 0.5-1 0.4-1.5 -0.1-0.5-0.3-0.9-0.7-1.2 -0.5-0.3-1-0.4-1.5-0.3C468.1 82.2 467.7 82.5 467.5 82.9zM470.8 78.5c-0.3 0.4-0.4 0.8-0.3 1.2 0.1 0.4 0.3 0.7 0.7 1 0.4 0.3 0.8 0.4 1.2 0.3 0.4-0.1 0.7-0.3 1-0.7 0.3-0.4 0.4-0.8 0.3-1.2 -0.1-0.4-0.3-0.7-0.7-1 -0.4-0.3-0.8-0.4-1.2-0.3C471.4 77.9 471.1 78.1 470.8 78.5z"/>
      <path d="M431.8 66.3l1.2-2.3 -4.7-2.5 1-1.9 8.8-4.6 1.8 1 -3.8 7.2 1.4 0.7 -1 1.9 -1.4-0.7 -1.2 2.3L431.8 66.3zM434.1 62.1l2.1-3.9 -4.7 2.5L434.1 62.1z"/>
      <path d="M436.3 65.2l2.2 0.9c-0.2 0.5-0.2 0.8-0.1 1.2s0.3 0.6 0.7 0.8c0.5 0.2 0.9 0.2 1.5 0 0.5-0.2 1.2-1 2-2.3 -0.9 0.3-1.7 0.3-2.6-0.1 -0.9-0.5-1.5-1.2-1.8-2.3s-0.1-2.1 0.5-3.2c0.6-1.2 1.4-1.9 2.5-2.2 1.1-0.3 2.1-0.2 3.2 0.3 1.2 0.6 1.9 1.6 2.1 2.8 0.3 1.3-0.1 3-1.2 5 -1.1 2.1-2.3 3.4-3.5 3.9 -1.3 0.5-2.5 0.4-3.7-0.2 -0.9-0.5-1.5-1.1-1.8-1.9C435.9 67.2 435.9 66.3 436.3 65.2zM443.7 63.1c0.4-0.7 0.5-1.3 0.4-1.9s-0.4-1-0.8-1.2c-0.4-0.2-0.8-0.2-1.3-0.1 -0.4 0.2-0.8 0.6-1.2 1.4 -0.4 0.7-0.5 1.4-0.4 1.9 0.1 0.5 0.4 0.9 0.8 1.1 0.4 0.2 0.9 0.2 1.3 0.1C443 64.1 443.4 63.7 443.7 63.1z"/>
      <path d="M399.8 48.8l2.4 0.6c-0.1 0.5-0.1 1 0.1 1.5 0.2 0.4 0.5 0.7 0.9 0.9 0.5 0.2 1 0.1 1.4-0.1 0.5-0.3 0.9-0.8 1.2-1.6 0.3-0.7 0.3-1.4 0.1-1.9s-0.6-0.8-1.1-1c-0.7-0.3-1.4-0.2-2.1 0.2l-1.8-1 3.6-5.8 6.1 2.3 -0.8 2.2 -4.4-1.7 -1.1 1.9c0.6-0.1 1.2 0 1.7 0.2 1 0.4 1.7 1.1 2.2 2.1 0.4 1 0.4 2.1 0 3.3 -0.4 1-1 1.8-1.9 2.3 -1.2 0.8-2.5 0.9-3.9 0.3 -1.1-0.4-1.9-1.1-2.4-1.9C399.7 50.9 399.6 49.9 399.8 48.8z"/>
      <path d="M414.8 44.3c1.2 0.4 1.9 1.2 2.3 2.3 0.4 1.3 0.2 3.1-0.7 5.3 -0.9 2.3-1.9 3.8-3.1 4.5 -1 0.6-2 0.6-3.2 0.2 -1.2-0.4-1.9-1.3-2.3-2.4 -0.4-1.2-0.1-2.9 0.8-5.2 0.9-2.3 1.9-3.7 3.1-4.4C412.6 43.9 413.6 43.8 414.8 44.3zM414.1 46.2c-0.3-0.1-0.6-0.1-0.8 0 -0.3 0.1-0.6 0.3-0.9 0.8 -0.4 0.5-0.9 1.5-1.4 2.9 -0.5 1.4-0.8 2.4-0.9 3 -0.1 0.6 0 1 0.1 1.3 0.1 0.3 0.4 0.4 0.6 0.5 0.3 0.1 0.6 0.1 0.8 0 0.3-0.1 0.6-0.3 0.9-0.8 0.4-0.5 0.8-1.5 1.4-2.9 0.5-1.4 0.8-2.4 0.9-3s0-1-0.1-1.3S414.3 46.3 414.1 46.2z"/>
      <path d="M366.5 39.6l2.4 0.3c-0.1 0.6 0 1 0.3 1.4 0.3 0.4 0.6 0.7 1 0.8 0.5 0.1 1 0 1.4-0.3 0.4-0.3 0.8-0.9 1-1.7 0.2-0.8 0.2-1.4-0.1-1.9 -0.2-0.5-0.6-0.8-1.2-0.9 -0.7-0.2-1.4 0-2.1 0.5l-1.9-0.8 2.9-6.2 6.3 1.6 -0.6 2.2 -4.5-1.1 -0.9 2c0.6-0.1 1.2-0.1 1.7 0 1.1 0.3 1.9 0.9 2.4 1.8 0.5 1 0.7 2.1 0.4 3.3 -0.3 1-0.8 1.9-1.6 2.5 -1.1 0.9-2.4 1.2-3.8 0.8 -1.2-0.3-2-0.8-2.6-1.6C366.6 41.7 366.3 40.7 366.5 39.6z"/>
      <path d="M379.7 46.4l-2.4-0.6 2.3-9c-1.1 0.6-2.3 0.9-3.5 1l0.5-2.2c0.7 0 1.5-0.3 2.3-0.7s1.5-0.9 2-1.6l1.9 0.5L379.7 46.4z"/>
      <path d="M334.1 34.5l2.5 0c0 0.6 0.2 1 0.5 1.4 0.3 0.4 0.7 0.6 1.1 0.6 0.5 0.1 1-0.1 1.4-0.5 0.4-0.4 0.7-1 0.8-1.8 0.1-0.8 0-1.4-0.3-1.8 -0.3-0.4-0.7-0.7-1.3-0.8 -0.7-0.1-1.4 0.1-2 0.7l-2-0.5 2.1-6.5 6.5 0.8 -0.3 2.3 -4.6-0.6 -0.7 2.1c0.6-0.2 1.2-0.3 1.7-0.2 1.1 0.1 2 0.6 2.6 1.5 0.7 0.9 0.9 2 0.8 3.2 -0.1 1.1-0.6 2-1.3 2.7 -1 1-2.2 1.4-3.7 1.3 -1.2-0.1-2.1-0.6-2.8-1.3C334.4 36.5 334.1 35.6 334.1 34.5z"/>
      <path d="M350.4 37.5l-0.3 2.3 -8.6-1.1c0.2-0.8 0.6-1.6 1.1-2.3 0.6-0.7 1.6-1.6 3.1-2.7 1.2-0.9 2-1.5 2.3-1.8 0.4-0.5 0.6-0.9 0.7-1.4 0.1-0.5 0-1-0.3-1.3 -0.3-0.3-0.6-0.5-1.2-0.6 -0.5-0.1-0.9 0-1.3 0.3 -0.3 0.3-0.6 0.8-0.7 1.5l-2.4-0.5c0.3-1.3 0.9-2.2 1.7-2.7 0.8-0.5 1.8-0.7 3-0.5 1.3 0.2 2.2 0.6 2.8 1.4 0.6 0.8 0.9 1.7 0.8 2.7 -0.1 0.6-0.2 1.1-0.5 1.6 -0.3 0.5-0.7 1-1.2 1.5 -0.3 0.3-0.9 0.8-1.8 1.4 -0.9 0.6-1.4 1-1.6 1.2 -0.2 0.2-0.4 0.4-0.6 0.6L350.4 37.5z"/>
    </g>
  </g>
  <g>
    <line id="grande-chrono-second-hand" class="grande-st14 grande-bottom-center" x1="309" y1="408" x2="309" y2="338"/>
    <line id="grande-chrono-tenth-second-hand" class="grande-st15 grande-primary-center" x1="309" y1="309" x2="309" y2="19"/>
    <line id="grande-second-hand" class="grande-st16 grande-primary-center" x1="309" y1="309" x2="309" y2="19"/>
    <line id="grande-minute-hand" class="grande-st17 grande-primary-center" x1="309" y1="308.5" x2="309" y2="30.5"/>
    <line id="grande-hour-hand" class="grande-st18 grande-primary-center" x1="309" y1="308.5" x2="309" y2="126.5"/>
  </g>
</svg>
