<svg xmlns="http://www.w3.org/2000/svg" version="1.1" id="Layer_1" x="0" y="0" viewBox="0 0 250 250" xml:space="preserve">
  <style type="text/css">
    
	.st0{fill:#FFFFFF;}
	.st1{fill:none;stroke:#000000;stroke-width:5;stroke-miterlimit:10;}
	.st2{fill:#272727;}
	.st3{fill:none;stroke:#007486;stroke-width:2;stroke-miterlimit:10;}

  </style>
  <path class="st0" d="M125 245C58.8 245 5 191.2 5 125S58.8 5 125 5s120 53.8 120 120S191.2 245 125 245z"/>
  <path d="M125 10c30.7 0 59.6 12 81.3 33.7S240 94.3 240 125s-12 59.6-33.7 81.3S155.7 240 125 240s-59.6-12-81.3-33.7S10 155.7 10 125s12-59.6 33.7-81.3S94.3 10 125 10M125 0C56 0 0 56 0 125s56 125 125 125 125-56 125-125S194 0 125 0L125 0z"/>
  <line class="st1" x1="125.3" y1="0.2" x2="125.3" y2="29.2"/>
  <line class="st1" x1="125.3" y1="220.8" x2="125.3" y2="249.8"/>
  <line class="st1" x1="187.7" y1="17" x2="173.2" y2="42.1"/>
  <line class="st1" x1="77.4" y1="207.9" x2="62.9" y2="233"/>
  <line class="st1" x1="233.4" y1="62.6" x2="208.2" y2="77.1"/>
  <line class="st1" x1="42.4" y1="172.9" x2="17.3" y2="187.4"/>
  <line class="st1" x1="250.1" y1="125" x2="221.1" y2="125"/>
  <line class="st1" x1="29.6" y1="125" x2="0.6" y2="125"/>
  <line class="st1" x1="233.4" y1="187.4" x2="208.2" y2="172.9"/>
  <line class="st1" x1="42.4" y1="77.1" x2="17.3" y2="62.6"/>
  <line class="st1" x1="187.7" y1="233" x2="173.2" y2="207.9"/>
  <line class="st1" x1="77.4" y1="42.1" x2="62.9" y2="17"/>
  <rect id="retrograde-sec-minute-hand" x="123" y="15.2" class="st2" width="4" height="110"/>
  <rect id="retrograde-sec-hour-hand" x="121.5" y="46.3" width="7" height="79"/>
  <path class="st0" d="M172.5 131.5c14.3 8.3 19.3 26.6 11 41s-26.6 19.3-41 11"/>
  <path d="M172.5 131.5c3.6 1.7 6.8 4.2 9.4 7.3 2.6 3.1 4.6 6.7 5.7 10.6 1.2 3.9 1.5 8.1 1 12.2 -0.5 4.1-1.8 8.1-3.9 11.6 -2.1 3.6-4.9 6.7-8.2 9.2 -3.3 2.4-7.1 4.3-11.1 5.2 -4 1-8.1 1.1-12.1 0.4 -4-0.7-7.7-2.2-11-4.5 7.1 3.4 15.2 4 22.5 1.9 7.2-2.2 13.5-7.1 17.2-13.6 3.8-6.5 4.9-14.4 3.2-21.7C183.6 142.7 179 136 172.5 131.5z"/>
  <line id="retrograe-second-hand-two" class="st3" x1="142.5" y1="183.5" x2="157.5" y2="157.5"/>
  <path class="st0" d="M107.5 183.5c-14.3 8.3-32.7 3.4-41-11s-3.4-32.7 11-41"/>
  <path d="M107.5 183.5c-3.2 2.2-7 3.8-11 4.5 -4 0.7-8.1 0.6-12.1-0.4 -4-0.9-7.7-2.7-11.1-5.2 -3.3-2.5-6.1-5.6-8.2-9.2 -2-3.6-3.4-7.6-3.9-11.6 -0.5-4.1-0.1-8.3 1-12.2 1.2-3.9 3.1-7.6 5.7-10.6 2.6-3.1 5.8-5.6 9.4-7.3C71 136 66.4 142.7 64.7 150c-1.7 7.4-0.6 15.3 3.2 21.7 3.7 6.5 10 11.4 17.2 13.6C92.3 187.5 100.4 186.9 107.5 183.5z"/>
  <line id="retrograde-second-hand-one" class="st3" x1="92.5" y1="157.5" x2="107.5" y2="183.5"/>
</svg>
