<svg xmlns="http://www.w3.org/2000/svg" version="1.1" id="Layer_1" x="0" y="0" viewBox="0 0 250 250" xml:space="preserve">
  <style type="text/css">
    
	.st0{fill:#FFFFFF;}
	.st1{fill:#CCCCCC;stroke:#000000;stroke-width:0.5;stroke-miterlimit:10;}
	.st2{fill:none;stroke:#000000;stroke-width:5;stroke-miterlimit:10;}
	.st3{fill:none;stroke:#007486;stroke-width:3;stroke-miterlimit:10;}
	.st4{fill:#007486;}
	.st5{fill:#272727;}

  </style>
  <path class="st0" d="M125 245C58.8 245 5 191.2 5 125S58.8 5 125 5s120 53.8 120 120S191.2 245 125 245z"/>
  <path class="st1" d="M125 47.6c-42.7 0-77.4 34.7-77.4 77.4s34.7 77.4 77.4 77.4 77.4-34.7 77.4-77.4S167.7 47.6 125 47.6zM125 190c-35.9 0-65-29.1-65-65s29.1-65 65-65 65 29.1 65 65S160.9 190 125 190z"/>
  <path d="M125 10c30.7 0 59.6 12 81.3 33.7S240 94.3 240 125s-12 59.6-33.7 81.3S155.7 240 125 240s-59.6-12-81.3-33.7S10 155.7 10 125s12-59.6 33.7-81.3S94.3 10 125 10M125 0C56 0 0 56 0 125s56 125 125 125 125-56 125-125S194 0 125 0L125 0z"/>
  <line class="st2" x1="125.3" y1="0.2" x2="125.3" y2="29.2"/>
  <line class="st2" x1="125.3" y1="220.8" x2="125.3" y2="249.8"/>
  <line class="st2" x1="187.7" y1="17" x2="173.2" y2="42.1"/>
  <line class="st2" x1="77.4" y1="207.9" x2="62.9" y2="233"/>
  <line class="st2" x1="233.4" y1="62.6" x2="208.2" y2="77.1"/>
  <line class="st2" x1="42.4" y1="172.9" x2="17.3" y2="187.4"/>
  <line class="st2" x1="250.1" y1="125" x2="221.1" y2="125"/>
  <line class="st2" x1="29.6" y1="125" x2="0.6" y2="125"/>
  <line class="st2" x1="233.4" y1="187.4" x2="208.2" y2="172.9"/>
  <line class="st2" x1="42.4" y1="77.1" x2="17.3" y2="62.6"/>
  <line class="st2" x1="187.7" y1="233" x2="173.2" y2="207.9"/>
  <line class="st2" x1="77.4" y1="42.1" x2="62.9" y2="17"/>
  <g id="date-arrow">
    <line class="st3" x1="125" y1="124" x2="80.4" y2="143"/>
    <polygon class="st4" points="81.8 142.4 84.7 149.1 77.4 148.3 70.1 147.4 74.5 141.5 78.9 135.7 "/>
  </g>
  <rect id="second-hand" x="124" y="15.2" class="st4" width="2" height="110"/>
  <rect id="minute-hand" x="123" y="15.2" class="st5" width="4" height="110"/>
  <rect id="hour-hand" x="121.5" y="46.3" width="7" height="79"/>
  <path d="M61.1 150.2l0.3 0.8 -5.1 2c0.3 0.1 0.5 0.3 0.8 0.5 0.3 0.2 0.6 0.5 0.7 0.7l-0.8 0.3c-0.4-0.4-0.8-0.7-1.2-0.9 -0.4-0.2-0.8-0.3-1.1-0.4l-0.2-0.5L61.1 150.2z"/>
  <path d="M56.2 146.5c-0.3 0.1-0.6 0.1-0.9-0.1s-0.5-0.4-0.6-0.7c-0.1-0.3-0.1-0.6 0.1-0.9 0.2-0.3 0.4-0.5 0.7-0.6 0.3-0.1 0.6-0.1 0.9 0.1 0.3 0.2 0.5 0.4 0.6 0.7 0.1 0.3 0.1 0.6-0.1 0.9C56.8 146.2 56.6 146.4 56.2 146.5z"/>
  <path d="M56.2 140.2l-0.3-0.8c0.5-0.2 0.8-0.4 0.9-0.7 0.2-0.3 0.2-0.6 0.2-0.9 -0.1-0.4-0.3-0.7-0.6-0.9 -0.3-0.2-0.7-0.3-1.1-0.2 -0.4 0.1-0.7 0.2-0.9 0.5 -0.2 0.3-0.3 0.6-0.2 1 0 0.2 0.1 0.4 0.2 0.6l-0.8 0c0-0.1 0-0.1 0-0.1 -0.1-0.4-0.2-0.7-0.4-0.9 -0.2-0.3-0.5-0.3-0.9-0.3 -0.3 0.1-0.5 0.2-0.7 0.4 -0.2 0.2-0.2 0.5-0.2 0.9 0.1 0.3 0.2 0.6 0.5 0.8 0.2 0.2 0.6 0.3 1 0.3l0 0.9c-0.6 0-1.1-0.2-1.4-0.5s-0.6-0.7-0.7-1.3c-0.1-0.4 0-0.7 0.1-1.1 0.1-0.3 0.3-0.6 0.5-0.8 0.2-0.2 0.5-0.3 0.8-0.4 0.3-0.1 0.6 0 0.8 0.1 0.3 0.1 0.5 0.3 0.7 0.6 0-0.4 0.2-0.8 0.4-1 0.3-0.3 0.6-0.5 1-0.5 0.6-0.1 1.1 0 1.6 0.4 0.5 0.4 0.8 0.9 0.9 1.5 0.1 0.6 0 1.1-0.3 1.6C57.2 139.8 56.8 140.1 56.2 140.2z"/>
  <path d="M53.5 132.2c-0.3 0-0.6-0.1-0.9-0.3 -0.3-0.2-0.4-0.5-0.4-0.8 0-0.3 0.1-0.6 0.3-0.9 0.2-0.3 0.5-0.4 0.8-0.4 0.3 0 0.6 0.1 0.9 0.3 0.3 0.2 0.4 0.5 0.4 0.8 0 0.3-0.1 0.6-0.3 0.9C54.1 132.1 53.8 132.2 53.5 132.2z"/>
  <path d="M54.8 126.1l0-0.9c0.4-0.1 0.8-0.2 1-0.4 0.2-0.2 0.3-0.5 0.4-0.9 0-0.4-0.1-0.8-0.4-1.1 -0.3-0.3-0.7-0.4-1.2-0.5 -0.5 0-0.9 0.1-1.2 0.4 -0.3 0.3-0.4 0.6-0.5 1.1 0 0.3 0 0.5 0.2 0.8 0.1 0.2 0.3 0.4 0.5 0.5l-0.1 0.8 -3.5-0.8 0.1-3.5 0.8 0 -0.1 2.8 1.9 0.4c-0.3-0.4-0.4-0.9-0.4-1.3 0-0.6 0.2-1.1 0.7-1.5 0.4-0.4 1-0.6 1.6-0.6 0.6 0 1.2 0.2 1.6 0.6 0.5 0.5 0.8 1.1 0.8 1.9 0 0.6-0.2 1.1-0.6 1.5C55.9 125.9 55.4 126.1 54.8 126.1z"/>
  <path d="M53.7 117.7c-0.3 0-0.6-0.2-0.8-0.5 -0.2-0.3-0.3-0.6-0.2-0.9 0-0.3 0.2-0.6 0.5-0.8 0.3-0.2 0.6-0.3 0.9-0.2 0.3 0 0.6 0.2 0.8 0.5 0.2 0.3 0.3 0.6 0.2 0.9 0 0.3-0.2 0.6-0.5 0.8S54 117.7 53.7 117.7z"/>
  <path d="M52.1 110.9l-0.8-0.2 1-4.4 0.6 0.2c0.4 0.5 0.9 1.1 1.5 1.7 0.7 0.6 1.4 1.1 2.1 1.5 0.5 0.3 1.1 0.6 1.8 0.8l-0.2 0.9c-0.5-0.1-1.1-0.4-1.9-0.8 -0.7-0.4-1.4-0.8-2-1.4 -0.6-0.5-1.1-1.1-1.5-1.6L52.1 110.9z"/>
  <path d="M56.9 103.5c-0.3-0.1-0.5-0.3-0.7-0.6 -0.1-0.3-0.2-0.6-0.1-0.9 0.1-0.3 0.3-0.5 0.6-0.7 0.3-0.1 0.6-0.2 0.9-0.1s0.5 0.3 0.7 0.6c0.1 0.3 0.2 0.6 0.1 0.9 -0.1 0.3-0.3 0.5-0.6 0.7C57.5 103.6 57.2 103.6 56.9 103.5z"/>
  <path d="M60.7 98.4l0.3-0.8c0.4 0.1 0.7 0.1 0.9 0 0.2-0.1 0.4-0.3 0.6-0.6 0.1-0.2 0.2-0.5 0.1-0.7 0-0.2-0.1-0.4-0.2-0.6 -0.1-0.2-0.3-0.4-0.6-0.6 -0.3-0.2-0.6-0.4-0.9-0.6 0 0-0.1 0-0.2-0.1 0.2 0.3 0.3 0.6 0.3 0.9 0 0.3 0 0.7-0.2 1 -0.2 0.5-0.6 0.9-1.2 1.1 -0.5 0.2-1.1 0.1-1.7-0.2 -0.6-0.3-1.1-0.7-1.3-1.3s-0.2-1.1 0.1-1.7c0.2-0.4 0.5-0.7 0.9-1 0.4-0.2 0.8-0.3 1.3-0.3 0.5 0 1.1 0.2 1.9 0.6 0.8 0.4 1.4 0.8 1.8 1.2 0.4 0.4 0.6 0.8 0.7 1.3 0.1 0.5 0 0.9-0.2 1.4 -0.2 0.5-0.6 0.8-1 1C61.7 98.5 61.2 98.5 60.7 98.4zM59.4 93.9c-0.4-0.2-0.9-0.3-1.2-0.1 -0.4 0.1-0.6 0.3-0.8 0.7 -0.2 0.3-0.2 0.7 0 1.1 0.2 0.4 0.5 0.7 0.9 0.9 0.4 0.2 0.8 0.2 1.1 0.1s0.6-0.4 0.8-0.7c0.2-0.4 0.2-0.7 0-1.1C60.2 94.4 59.9 94.1 59.4 93.9z"/>
  <path d="M62.8 90.2c-0.3-0.2-0.5-0.4-0.5-0.7 -0.1-0.3 0-0.6 0.1-0.9 0.2-0.3 0.4-0.5 0.7-0.6 0.3-0.1 0.6 0 0.9 0.1 0.3 0.2 0.5 0.4 0.6 0.7 0.1 0.3 0 0.6-0.1 0.9 -0.2 0.3-0.4 0.5-0.7 0.5C63.4 90.4 63.1 90.4 62.8 90.2z"/>
  <path d="M70.7 84.4l-0.5 0.7 -4.4-3.2c0 0.3 0 0.6 0 1 0 0.4-0.1 0.7-0.2 1L65 83.4c0.1-0.5 0.1-1 0.1-1.5S65 81 64.8 80.7l0.3-0.4L70.7 84.4z"/>
  <path d="M74.1 80.4L73.5 81l-4.1-3.6c0 0.3 0 0.6-0.1 1 -0.1 0.4-0.2 0.7-0.3 1l-0.6-0.5c0.1-0.5 0.2-1 0.2-1.5 0-0.5-0.1-0.9-0.2-1.2l0.4-0.4L74.1 80.4z"/>
  <path d="M75.1 74.4c-0.2-0.2-0.3-0.5-0.3-0.9 0-0.3 0.1-0.6 0.4-0.8 0.2-0.2 0.5-0.3 0.9-0.3s0.6 0.1 0.8 0.4c0.2 0.2 0.3 0.5 0.3 0.9 0 0.3-0.1 0.6-0.4 0.8 -0.2 0.2-0.5 0.3-0.9 0.3S75.4 74.6 75.1 74.4z"/>
  <path d="M84.4 71l-0.7 0.5 -3.3-4.3c0 0.3-0.1 0.6-0.3 1 -0.1 0.4-0.3 0.7-0.4 0.9l-0.5-0.7c0.2-0.5 0.4-0.9 0.5-1.4 0.1-0.5 0.1-0.9 0-1.2l0.4-0.3L84.4 71z"/>
  <path d="M85 68.3l0.7-0.6c0.3 0.4 0.7 0.6 1 0.6 0.3 0.1 0.6 0 0.9-0.2 0.3-0.2 0.5-0.5 0.6-0.9 0.1-0.4 0-0.7-0.2-1.1 -0.2-0.3-0.5-0.5-0.8-0.6 -0.4-0.1-0.7 0-1 0.2 -0.1 0.1-0.3 0.2-0.5 0.4l-0.3-0.7c0.1 0 0.1 0 0.1-0.1 0.3-0.2 0.5-0.5 0.7-0.8 0.1-0.3 0.1-0.6-0.1-1 -0.2-0.3-0.4-0.4-0.7-0.5 -0.3-0.1-0.6 0-0.9 0.2 -0.3 0.2-0.5 0.4-0.5 0.7 -0.1 0.3 0 0.6 0.1 1l-0.8 0.3c-0.2-0.5-0.3-1-0.1-1.5 0.1-0.5 0.4-0.8 0.9-1.1 0.3-0.2 0.7-0.3 1-0.4 0.4 0 0.7 0 1 0.2 0.3 0.1 0.5 0.4 0.7 0.6 0.2 0.3 0.2 0.5 0.2 0.8s-0.1 0.6-0.3 0.9c0.4-0.1 0.8-0.2 1.1 0 0.4 0.1 0.7 0.4 0.9 0.8 0.3 0.5 0.4 1.1 0.3 1.7 -0.1 0.6-0.5 1.1-1.1 1.4 -0.5 0.3-1 0.5-1.6 0.4C85.8 69 85.4 68.7 85 68.3z"/>
  <path d="M91.3 62.6c-0.2-0.3-0.2-0.6-0.1-0.9 0.1-0.3 0.3-0.5 0.6-0.7 0.3-0.1 0.6-0.2 0.9-0.1 0.3 0.1 0.5 0.3 0.7 0.6 0.2 0.3 0.2 0.6 0.1 0.9 -0.1 0.3-0.3 0.6-0.6 0.7 -0.3 0.1-0.6 0.2-0.9 0.1C91.7 63.1 91.5 62.9 91.3 62.6z"/>
  <path d="M101.1 62l-0.8 0.3 -2-5.1c-0.1 0.3-0.3 0.5-0.5 0.8 -0.2 0.3-0.5 0.5-0.7 0.7L96.9 58c0.4-0.4 0.7-0.8 0.9-1.2 0.2-0.4 0.3-0.8 0.4-1.1l0.5-0.2L101.1 62z"/>
  <path d="M102.6 59.5l0.8-0.3c0.2 0.4 0.4 0.7 0.7 0.8 0.3 0.1 0.6 0.2 0.9 0.1 0.4-0.1 0.7-0.4 0.9-0.7 0.2-0.4 0.2-0.8 0.1-1.3 -0.1-0.5-0.4-0.8-0.7-1 -0.3-0.2-0.7-0.2-1.1-0.1 -0.3 0.1-0.5 0.2-0.7 0.4 -0.2 0.2-0.3 0.4-0.4 0.6l-0.8 0.1 -0.4-3.6 3.3-1 0.2 0.8 -2.7 0.8 0.2 1.9c0.3-0.4 0.7-0.7 1.1-0.8 0.6-0.2 1.1-0.1 1.7 0.2 0.5 0.3 0.9 0.7 1.1 1.4 0.2 0.6 0.2 1.2-0.1 1.7 -0.3 0.7-0.8 1.1-1.5 1.3 -0.6 0.2-1.2 0.2-1.6-0.1C103.1 60.4 102.8 60 102.6 59.5z"/>
  <path d="M110.2 55.8c-0.1-0.3 0-0.6 0.2-0.9 0.2-0.3 0.4-0.4 0.8-0.5 0.3-0.1 0.6 0 0.9 0.2 0.3 0.2 0.4 0.4 0.5 0.8 0.1 0.3 0 0.6-0.2 0.9 -0.2 0.3-0.4 0.4-0.8 0.5 -0.3 0.1-0.6 0-0.9-0.2C110.4 56.4 110.2 56.1 110.2 55.8z"/>
  <path d="M119.8 57.8l-0.8 0.1 -0.5-5.4c-0.2 0.2-0.4 0.4-0.8 0.7 -0.3 0.2-0.6 0.4-0.9 0.5l-0.1-0.8c0.5-0.3 0.8-0.6 1.2-0.9 0.3-0.4 0.6-0.7 0.7-1l0.5-0.1L119.8 57.8z"/>
  <path d="M121.8 51.6l0-0.8 4.5-0.1 0 0.7c-0.4 0.5-0.9 1.1-1.3 1.9 -0.4 0.8-0.8 1.6-1 2.4 -0.2 0.6-0.3 1.2-0.3 1.9l-0.9 0c0-0.5 0.1-1.2 0.3-2 0.2-0.8 0.5-1.5 0.9-2.3 0.4-0.7 0.8-1.3 1.2-1.8L121.8 51.6z"/>
  <path d="M130.2 54.4c0-0.3 0.2-0.6 0.4-0.8 0.3-0.2 0.5-0.3 0.9-0.3 0.3 0 0.6 0.2 0.8 0.4 0.2 0.3 0.3 0.5 0.3 0.9 0 0.3-0.2 0.6-0.4 0.8 -0.3 0.2-0.5 0.3-0.9 0.3 -0.3 0-0.6-0.2-0.8-0.4C130.3 55 130.2 54.8 130.2 54.4z"/>
  <path d="M138.8 59.1l-0.8-0.2 1-5.3c-0.2 0.2-0.5 0.3-0.9 0.4 -0.4 0.1-0.7 0.2-1 0.3l0.2-0.8c0.5-0.1 1-0.3 1.4-0.6 0.4-0.2 0.7-0.5 0.9-0.8l0.5 0.1L138.8 59.1z"/>
  <path d="M141.4 58l0.8 0.1c0 0.4 0 0.7 0.2 0.9 0.1 0.2 0.4 0.4 0.7 0.5 0.3 0.1 0.5 0.1 0.7 0 0.2-0.1 0.4-0.2 0.6-0.3s0.3-0.4 0.5-0.7c0.2-0.3 0.3-0.6 0.4-1 0 0 0-0.1 0-0.2 -0.2 0.2-0.5 0.4-0.9 0.5 -0.3 0.1-0.7 0.1-1 0 -0.6-0.2-1-0.5-1.2-1 -0.3-0.5-0.3-1.1-0.1-1.8 0.2-0.7 0.5-1.2 1.1-1.5 0.5-0.3 1.1-0.4 1.7-0.2 0.4 0.1 0.8 0.3 1.1 0.7 0.3 0.3 0.5 0.7 0.5 1.2 0.1 0.5 0 1.1-0.2 2 -0.2 0.9-0.5 1.5-0.8 2 -0.3 0.5-0.7 0.8-1.1 0.9 -0.4 0.2-0.9 0.2-1.4 0 -0.5-0.1-0.9-0.4-1.2-0.8S141.3 58.5 141.4 58zM145.6 55.9c0.1-0.5 0.1-0.9-0.1-1.2 -0.2-0.3-0.4-0.6-0.8-0.7 -0.4-0.1-0.7 0-1.1 0.2 -0.4 0.2-0.6 0.6-0.7 1 -0.1 0.4-0.1 0.8 0.1 1.1s0.5 0.6 0.8 0.7c0.4 0.1 0.7 0.1 1.1-0.1C145.2 56.7 145.5 56.4 145.6 55.9z"/>
  <path d="M149.8 58.7c0.1-0.3 0.3-0.5 0.6-0.7 0.3-0.1 0.6-0.1 0.9 0 0.3 0.1 0.5 0.3 0.7 0.6 0.1 0.3 0.1 0.6 0 0.9 -0.1 0.3-0.3 0.5-0.6 0.7 -0.3 0.1-0.6 0.1-0.9 0 -0.3-0.1-0.5-0.3-0.7-0.6C149.7 59.3 149.7 59 149.8 58.7z"/>
  <path d="M158.3 65.4l-0.4 0.7 -4.1-2.1c0.1-0.2 0.2-0.3 0.4-0.5 0.2-0.2 0.6-0.4 0.9-0.6s0.9-0.3 1.5-0.4c1-0.2 1.6-0.4 2-0.6 0.4-0.2 0.7-0.4 0.8-0.7 0.2-0.3 0.2-0.6 0.1-0.9 -0.1-0.3-0.3-0.6-0.7-0.7 -0.4-0.2-0.7-0.2-1-0.1 -0.3 0.1-0.6 0.4-0.8 0.7l-0.7-0.5c0.3-0.6 0.8-0.9 1.3-1 0.5-0.1 1.1 0 1.6 0.3 0.6 0.3 1 0.7 1.2 1.2s0.1 1-0.1 1.5c-0.1 0.2-0.3 0.5-0.5 0.7 -0.2 0.2-0.5 0.4-0.9 0.5 -0.4 0.1-0.9 0.3-1.7 0.5 -0.7 0.2-1.1 0.3-1.3 0.3 -0.2 0.1-0.4 0.2-0.5 0.2L158.3 65.4z"/>
  <path d="M161.4 68.1l-0.7-0.4 2.8-4.6c-0.3 0.1-0.6 0.1-1 0.1 -0.4 0-0.7 0-1-0.1l0.4-0.7c0.5 0.1 1 0 1.5 0 0.5-0.1 0.8-0.2 1.1-0.4l0.5 0.3L161.4 68.1z"/>
  <path d="M167.4 68.1c0.2-0.3 0.5-0.4 0.8-0.5 0.3 0 0.6 0 0.9 0.2 0.3 0.2 0.4 0.5 0.5 0.8 0 0.3 0 0.6-0.2 0.9 -0.2 0.3-0.5 0.4-0.8 0.5 -0.3 0-0.6 0-0.9-0.2 -0.3-0.2-0.4-0.5-0.5-0.8C167.1 68.7 167.2 68.4 167.4 68.1z"/>
  <path d="M173.8 76.9l-0.6 0.6 -3.4-3.1c0.1-0.2 0.3-0.3 0.5-0.4 0.3-0.1 0.6-0.2 1-0.3 0.4 0 0.9 0 1.5 0 1 0.1 1.7 0.1 2.1 0 0.4-0.1 0.8-0.2 1-0.5 0.2-0.2 0.3-0.5 0.3-0.9 0-0.3-0.2-0.6-0.5-0.9 -0.3-0.3-0.6-0.4-1-0.4 -0.3 0-0.7 0.2-1 0.5l-0.6-0.7c0.5-0.4 1-0.6 1.5-0.6s1 0.3 1.5 0.7c0.5 0.5 0.7 1 0.8 1.5 0 0.5-0.1 1-0.5 1.4 -0.2 0.2-0.4 0.4-0.7 0.5 -0.3 0.1-0.6 0.2-1 0.2 -0.4 0-1 0-1.8 0 -0.7 0-1.1 0-1.3 0 -0.2 0-0.4 0-0.6 0.1L173.8 76.9z"/>
  <path d="M175.1 76.8l0.7 0.6c-0.3 0.4-0.4 0.8-0.4 1.1 0 0.3 0.1 0.6 0.3 0.9 0.3 0.3 0.6 0.5 1 0.5 0.4 0 0.7-0.1 1-0.4 0.3-0.3 0.4-0.6 0.5-0.9 0-0.4-0.1-0.7-0.4-1 -0.1-0.1-0.3-0.2-0.5-0.4l0.6-0.4c0 0 0.1 0.1 0.1 0.1 0.2 0.3 0.5 0.4 0.9 0.5 0.3 0.1 0.7 0 0.9-0.3 0.2-0.2 0.3-0.5 0.4-0.8 0-0.3-0.1-0.6-0.3-0.8 -0.2-0.2-0.5-0.4-0.8-0.4 -0.3 0-0.6 0.1-1 0.3l-0.5-0.7c0.5-0.3 1-0.4 1.5-0.4 0.5 0.1 0.9 0.3 1.3 0.7 0.3 0.3 0.4 0.6 0.5 0.9 0.1 0.3 0.1 0.7 0 1 -0.1 0.3-0.3 0.6-0.5 0.8 -0.2 0.2-0.5 0.3-0.8 0.4 -0.3 0-0.6 0-0.9-0.1 0.2 0.4 0.3 0.7 0.2 1.1 -0.1 0.4-0.3 0.7-0.6 1 -0.4 0.4-1 0.6-1.6 0.6 -0.6 0-1.1-0.3-1.6-0.8 -0.4-0.4-0.6-0.9-0.6-1.5C174.6 77.8 174.8 77.3 175.1 76.8z"/>
  <path d="M181.8 82.1c0.3-0.2 0.6-0.3 0.9-0.2s0.6 0.2 0.8 0.5c0.2 0.3 0.3 0.6 0.2 0.9 0 0.3-0.2 0.6-0.5 0.8 -0.3 0.2-0.6 0.3-0.9 0.2 -0.3 0-0.6-0.2-0.8-0.5 -0.2-0.3-0.3-0.6-0.2-0.9C181.4 82.6 181.5 82.3 181.8 82.1z"/>
  <path d="M185.5 92.3l-0.7 0.4 -2.4-3.9c0.2-0.1 0.4-0.2 0.6-0.2 0.3-0.1 0.7-0.1 1.1 0 0.4 0.1 0.9 0.2 1.5 0.4 0.9 0.3 1.6 0.5 2 0.6 0.4 0 0.8 0 1.1-0.2 0.3-0.2 0.5-0.4 0.5-0.8 0.1-0.3 0-0.7-0.2-1 -0.2-0.4-0.5-0.6-0.8-0.7 -0.3-0.1-0.7 0-1.1 0.2l-0.4-0.8c0.6-0.3 1.1-0.3 1.6-0.2s0.9 0.5 1.3 1.1c0.3 0.6 0.5 1.1 0.3 1.6 -0.1 0.5-0.4 0.9-0.9 1.2 -0.2 0.1-0.5 0.2-0.8 0.3 -0.3 0-0.6 0-1 0 -0.4-0.1-1-0.2-1.7-0.5 -0.6-0.2-1.1-0.4-1.3-0.4 -0.2 0-0.4-0.1-0.6-0.1L185.5 92.3z"/>
  <path d="M186.8 92.6l0.5 0.8c-0.4 0.3-0.6 0.5-0.7 0.9 -0.1 0.3-0.1 0.6 0.1 0.9 0.2 0.4 0.5 0.6 0.9 0.7 0.4 0.1 0.8 0.1 1.3-0.2 0.4-0.2 0.7-0.5 0.8-0.9 0.1-0.4 0.1-0.8-0.1-1.1 -0.1-0.2-0.3-0.4-0.5-0.6 -0.2-0.1-0.4-0.2-0.7-0.3l-0.3-0.8 3.5-1 1.5 3.1 -0.7 0.4 -1.2-2.5 -1.8 0.5c0.4 0.2 0.8 0.6 1 1 0.3 0.5 0.3 1.1 0.1 1.7 -0.2 0.6-0.6 1-1.2 1.3 -0.6 0.3-1.1 0.4-1.7 0.2 -0.7-0.1-1.2-0.6-1.6-1.3 -0.3-0.6-0.4-1.1-0.2-1.6C185.9 93.4 186.3 92.9 186.8 92.6z"/>
  <path d="M191.7 99.6c0.3-0.1 0.6-0.1 0.9 0 0.3 0.1 0.5 0.4 0.6 0.7 0.1 0.3 0.1 0.6 0 0.9 -0.1 0.3-0.4 0.5-0.7 0.6 -0.3 0.1-0.6 0.1-0.9 0 -0.3-0.1-0.5-0.4-0.6-0.7 -0.1-0.3-0.1-0.6 0-0.9C191.2 99.9 191.4 99.7 191.7 99.6z"/>
  <path d="M192.4 110.4l-0.8 0.2 -1.2-4.4c0.2-0.1 0.4-0.1 0.6-0.1 0.3 0 0.7 0.1 1 0.3 0.4 0.2 0.8 0.4 1.3 0.8 0.8 0.6 1.4 0.9 1.8 1.1 0.4 0.2 0.8 0.2 1.1 0.1 0.3-0.1 0.6-0.3 0.7-0.6 0.2-0.3 0.2-0.6 0.1-1 -0.1-0.4-0.3-0.7-0.6-0.9 -0.3-0.2-0.7-0.2-1.1-0.1l-0.1-0.9c0.6-0.1 1.2 0 1.6 0.3 0.4 0.3 0.7 0.8 0.9 1.4 0.2 0.6 0.1 1.2-0.1 1.7 -0.3 0.5-0.7 0.8-1.2 0.9 -0.3 0.1-0.5 0.1-0.8 0 -0.3 0-0.6-0.2-1-0.3 -0.4-0.2-0.9-0.5-1.5-1 -0.5-0.4-0.9-0.6-1.1-0.7 -0.2-0.1-0.4-0.2-0.5-0.2L192.4 110.4z"/>
  <path d="M197.7 110.3l0.8-0.2 0.8 4.4 -0.7 0.1c-0.5-0.3-1.2-0.7-2.1-1 -0.8-0.3-1.7-0.5-2.6-0.6 -0.6-0.1-1.2-0.1-1.9 0l-0.2-0.9c0.5-0.1 1.2-0.1 2 0 0.8 0.1 1.6 0.2 2.4 0.5s1.4 0.5 2 0.9L197.7 110.3z"/>
  <path d="M196.4 119c0.3 0 0.6 0.1 0.9 0.3 0.3 0.2 0.4 0.5 0.4 0.8 0 0.3-0.1 0.6-0.3 0.9 -0.2 0.3-0.5 0.4-0.8 0.4 -0.3 0-0.6-0.1-0.9-0.3 -0.3-0.2-0.4-0.5-0.4-0.8 0-0.3 0.1-0.6 0.3-0.9C195.8 119.2 196.1 119 196.4 119z"/>
  <path d="M194.1 129.6l-0.8 0 0.1-4.6c0.2 0 0.4 0 0.6 0.1 0.3 0.1 0.6 0.3 0.9 0.6 0.3 0.3 0.6 0.6 1 1.1 0.6 0.8 1.1 1.3 1.4 1.6 0.4 0.3 0.7 0.4 1 0.4 0.3 0 0.6-0.1 0.9-0.3 0.2-0.2 0.4-0.6 0.4-0.9 0-0.4-0.1-0.7-0.3-1 -0.2-0.3-0.6-0.4-1-0.4l0.1-0.9c0.7 0.1 1.1 0.3 1.5 0.7 0.3 0.4 0.5 0.9 0.5 1.6 0 0.7-0.2 1.2-0.6 1.6 -0.4 0.4-0.8 0.6-1.4 0.6 -0.3 0-0.5-0.1-0.8-0.2 -0.3-0.1-0.5-0.3-0.8-0.6 -0.3-0.3-0.7-0.7-1.2-1.3 -0.4-0.5-0.7-0.9-0.9-1 -0.2-0.1-0.3-0.3-0.5-0.4L194.1 129.6z"/>
  <path d="M194.8 130.7l0 0.8c-0.4 0-0.7 0.1-0.9 0.3 -0.2 0.2-0.3 0.4-0.3 0.7 0 0.3 0 0.5 0.1 0.7 0.1 0.2 0.2 0.4 0.4 0.5 0.2 0.1 0.4 0.3 0.8 0.4 0.3 0.1 0.7 0.2 1 0.2 0 0 0.1 0 0.2 0 -0.3-0.2-0.5-0.5-0.6-0.8 -0.1-0.3-0.2-0.6-0.2-1 0.1-0.6 0.3-1 0.8-1.4 0.5-0.4 1-0.5 1.7-0.4 0.7 0.1 1.2 0.3 1.6 0.8 0.4 0.5 0.6 1 0.5 1.6 0 0.4-0.2 0.8-0.5 1.2s-0.7 0.6-1.1 0.7 -1.1 0.2-2 0.1c-0.9-0.1-1.6-0.3-2.1-0.5 -0.5-0.2-0.9-0.6-1.1-1 -0.2-0.4-0.3-0.9-0.3-1.4 0.1-0.5 0.2-1 0.6-1.3C193.8 130.9 194.3 130.7 194.8 130.7zM197.5 134.4c0.5 0 0.9 0 1.2-0.3 0.3-0.2 0.5-0.5 0.5-0.9 0-0.4-0.1-0.7-0.4-1 -0.3-0.3-0.7-0.5-1.2-0.5 -0.4 0-0.8 0.1-1.1 0.3 -0.3 0.2-0.5 0.6-0.5 0.9 0 0.4 0.1 0.7 0.3 1C196.7 134.2 197.1 134.4 197.5 134.4z"/>
  <path d="M195.6 139.1c0.3 0.1 0.6 0.2 0.8 0.5 0.2 0.3 0.2 0.6 0.2 0.9 -0.1 0.3-0.2 0.6-0.5 0.8 -0.3 0.2-0.6 0.2-0.9 0.2 -0.3-0.1-0.6-0.2-0.8-0.5s-0.2-0.6-0.2-0.9c0.1-0.3 0.2-0.6 0.5-0.8C194.9 139.1 195.2 139 195.6 139.1z"/>
  <path d="M192.7 144.6l-0.1 0.8c-0.5 0-0.9 0-1.1 0.2 -0.3 0.2-0.5 0.4-0.6 0.7 -0.1 0.4-0.1 0.7 0.1 1.1 0.2 0.3 0.5 0.6 0.9 0.7 0.4 0.1 0.7 0.1 1-0.1s0.5-0.4 0.7-0.8c0-0.2 0.1-0.4 0.1-0.6l0.7 0.3c0 0.1 0 0.1 0 0.1 -0.1 0.3-0.1 0.7 0 1 0.1 0.3 0.3 0.6 0.7 0.7 0.3 0.1 0.6 0.1 0.8-0.1 0.3-0.1 0.4-0.4 0.5-0.7 0.1-0.3 0.1-0.6-0.1-0.9 -0.1-0.3-0.4-0.5-0.8-0.7l0.4-0.8c0.5 0.3 0.9 0.6 1.1 1.1 0.2 0.4 0.2 0.9 0 1.5 -0.1 0.4-0.3 0.7-0.5 0.9 -0.3 0.3-0.5 0.4-0.9 0.5 -0.3 0.1-0.6 0.1-0.9 0 -0.3-0.1-0.5-0.2-0.7-0.5 -0.2-0.2-0.3-0.5-0.3-0.9 -0.2 0.4-0.5 0.6-0.8 0.7 -0.4 0.1-0.7 0.1-1.2 0 -0.6-0.2-1-0.5-1.3-1.1 -0.3-0.5-0.3-1.1-0.1-1.8 0.2-0.6 0.5-1 1-1.3C191.6 144.6 192.1 144.5 192.7 144.6z"/>
  <path d="M188.2 152.1l0.3-0.8 5.1 2c-0.1-0.3-0.2-0.6-0.2-1 -0.1-0.4-0.1-0.7-0.1-1l0.8 0.3c0 0.5 0.1 1 0.3 1.5 0.2 0.5 0.4 0.8 0.6 1l-0.2 0.5L188.2 152.1z"/>
</svg>
