<svg width="304" height="37" viewBox="0 0 304 37" fill="none" xmlns="http://www.w3.org/2000/svg">
<path d="M22.3999 19.248H3.53593V36H0.12793V1.63202H3.53593V16.32H22.3999V1.63202H25.8079V36H22.3999V19.248Z" fill="white"/>
<path d="M48.5134 0.864014C53.6334 0.864014 57.6654 2.72001 60.6094 6.43201C63.1694 9.69602 64.4494 13.824 64.4494 18.816C64.4494 24.576 62.8014 29.12 59.5054 32.448C56.6254 35.328 52.9614 36.768 48.5134 36.768C43.4254 36.768 39.4094 34.912 36.4654 31.2C33.9054 27.968 32.6254 23.84 32.6254 18.816C32.6254 13.056 34.2734 8.51201 37.5694 5.18402C40.4494 2.30401 44.0974 0.864014 48.5134 0.864014ZM48.5134 3.79202C44.6414 3.79202 41.5214 5.28002 39.1534 8.25602C37.0734 10.88 36.0334 14.4 36.0334 18.816C36.0334 23.648 37.3294 27.456 39.9214 30.24C42.1614 32.64 45.0414 33.84 48.5614 33.84C52.5614 33.84 55.7134 32.288 58.0174 29.184C60.0334 26.496 61.0414 23.04 61.0414 18.816C61.0414 14.464 60.0014 10.944 57.9214 8.25602C55.6174 5.28002 52.4814 3.79202 48.5134 3.79202Z" fill="white"/>
<path d="M74.6922 20.4V36H71.2842V1.63202H85.6842C89.2682 1.63202 91.9402 2.35202 93.7002 3.79202C95.5562 5.29602 96.4842 7.58402 96.4842 10.656C96.4842 14.528 94.6922 17.296 91.1082 18.96C92.5802 19.632 93.6362 20.544 94.2762 21.696C94.9482 22.848 95.3482 24.496 95.4762 26.64L95.7642 31.104C95.8602 32.32 96.0522 33.264 96.3402 33.936C96.6282 34.608 97.1562 35.296 97.9242 36H93.3642C92.8842 34.816 92.5802 33.52 92.4522 32.112L92.1162 28.176C91.8922 25.2 91.3002 23.168 90.3402 22.08C89.3802 20.96 87.7322 20.4 85.3962 20.4H74.6922ZM74.6922 17.664H85.0602C87.9402 17.664 89.9882 17.12 91.2042 16.032C92.4842 14.88 93.1242 13.248 93.1242 11.136C93.1242 9.02401 92.4842 7.37601 91.2042 6.19201C89.9882 5.10401 87.9402 4.56001 85.0602 4.56001H74.6922V17.664Z" fill="white"/>
<path d="M118.873 0.864014C123.993 0.864014 128.025 2.72001 130.969 6.43201C133.529 9.69602 134.809 13.824 134.809 18.816C134.809 24.576 133.161 29.12 129.865 32.448C126.985 35.328 123.321 36.768 118.873 36.768C113.785 36.768 109.769 34.912 106.825 31.2C104.265 27.968 102.985 23.84 102.985 18.816C102.985 13.056 104.633 8.51201 107.929 5.18402C110.809 2.30401 114.457 0.864014 118.873 0.864014ZM118.873 3.79202C115.001 3.79202 111.881 5.28002 109.513 8.25602C107.433 10.88 106.393 14.4 106.393 18.816C106.393 23.648 107.689 27.456 110.281 30.24C112.521 32.64 115.401 33.84 118.921 33.84C122.921 33.84 126.073 32.288 128.377 29.184C130.393 26.496 131.401 23.04 131.401 18.816C131.401 14.464 130.361 10.944 128.281 8.25602C125.977 5.28002 122.841 3.79202 118.873 3.79202Z" fill="white"/>
<path d="M145.052 1.63202V33.072H161.66V36H141.644V1.63202H145.052Z" fill="white"/>
<path d="M181.029 0.864014C186.149 0.864014 190.181 2.72001 193.125 6.43201C195.685 9.69602 196.965 13.824 196.965 18.816C196.965 24.576 195.317 29.12 192.021 32.448C189.141 35.328 185.477 36.768 181.029 36.768C175.941 36.768 171.925 34.912 168.981 31.2C166.421 27.968 165.141 23.84 165.141 18.816C165.141 13.056 166.789 8.51201 170.085 5.18402C172.965 2.30401 176.613 0.864014 181.029 0.864014ZM181.029 3.79202C177.157 3.79202 174.037 5.28002 171.669 8.25602C169.589 10.88 168.549 14.4 168.549 18.816C168.549 23.648 169.845 27.456 172.437 30.24C174.677 32.64 177.557 33.84 181.077 33.84C185.077 33.84 188.229 32.288 190.533 29.184C192.549 26.496 193.557 23.04 193.557 18.816C193.557 14.464 192.517 10.944 190.437 8.25602C188.133 5.28002 184.997 3.79202 181.029 3.79202Z" fill="white"/>
<path d="M218.008 18.48H232.504V36H229.768V30.288C226.76 34.608 222.808 36.768 217.912 36.768C212.888 36.768 208.952 34.928 206.104 31.248C203.608 28.048 202.36 23.936 202.36 18.912C202.36 13.056 204.024 8.48001 207.352 5.18402C210.232 2.30401 213.928 0.864014 218.44 0.864014C222.44 0.864014 225.688 1.95201 228.184 4.12801C230.328 6.04801 231.656 8.60801 232.168 11.808H228.856C228.28 9.24801 227.08 7.28001 225.256 5.90401C223.464 4.49602 221.208 3.79202 218.488 3.79202C214.392 3.79202 211.176 5.32802 208.84 8.40001C206.792 11.088 205.768 14.528 205.768 18.72C205.768 23.552 207.064 27.376 209.656 30.192C211.896 32.624 214.712 33.84 218.104 33.84C220.184 33.84 222.072 33.36 223.768 32.4C225.496 31.408 226.824 30.08 227.752 28.416C228.776 26.496 229.368 24.096 229.528 21.216H218.008V18.48Z" fill="white"/>
<path d="M243.677 1.63202V36H240.269V1.63202H243.677Z" fill="white"/>
<path d="M274.692 11.184H271.236C271.108 9.07201 270.484 7.42402 269.364 6.24002C267.764 4.60802 265.46 3.79202 262.452 3.79202C259.732 3.79202 257.604 4.46402 256.068 5.80802C254.756 6.99202 254.1 8.51202 254.1 10.368C254.1 13.28 255.988 15.136 259.764 15.936L266.196 17.28C269.332 17.952 271.604 18.96 273.012 20.304C274.612 21.872 275.412 23.904 275.412 26.4C275.412 29.76 274.116 32.384 271.524 34.272C269.284 35.936 266.404 36.768 262.884 36.768C258.052 36.768 254.468 35.264 252.132 32.256C250.724 30.464 249.972 27.92 249.876 24.624H253.332C253.428 30.768 256.66 33.84 263.028 33.84C265.94 33.84 268.212 33.104 269.844 31.632C271.284 30.352 272.004 28.704 272.004 26.688C272.004 24.992 271.444 23.664 270.324 22.704C269.236 21.712 267.412 20.944 264.852 20.4L258.708 19.056C253.332 17.904 250.644 15.024 250.644 10.416C250.644 7.28001 251.86 4.84801 254.292 3.12001C256.404 1.61601 259.156 0.864014 262.548 0.864014C267.188 0.864014 270.564 2.24001 272.676 4.99201C273.86 6.52801 274.532 8.59201 274.692 11.184Z" fill="white"/>
<path d="M292.5 4.56001V36H289.092V4.56001H278.148V1.63202H303.444V4.56001H292.5Z" fill="white"/>
</svg>
