<svg width="100" height="100" viewBox="0 0 100 100" fill="none" xmlns="http://www.w3.org/2000/svg">
<g clip-path="url(#clip0_410_1057)">
<rect width="100" height="100" fill="white"/>
<rect width="100" height="100" fill="#161616"/>
<path d="M50 50L100 0V100H0L50 50Z" fill="black"/>
<path d="M57.225 71.25C58.525 71.25 59.65 70.8 60.6 69.9C61.55 69 62.05 67.9 62.1 66.6V47.475H38.475V66.75C38.475 72.75 36.95 77.525 33.9 81.075C31.5 83.875 28.05 85.275 23.55 85.275C22.1 85.275 20.525 85.1 18.825 84.75L18.675 84C22.375 82.45 24.75 80.15 25.8 77.1C26.75 74.5 27.225 71.05 27.225 66.75V24.9C27.175 23.6 26.675 22.5 25.725 21.6C24.825 20.7 23.725 20.25 22.425 20.25H21.45V19.5H44.25V20.25H43.275C41.475 20.25 40.125 21 39.225 22.5C38.775 23.2 38.525 24 38.475 24.9V44.25H62.1V26.25C62.1 20.4 63.925 15.75 67.575 12.3C70.475 9.45 74.125 8.025 78.525 8.025C79.525 8.025 80.575 8.1 81.675 8.25L81.825 9C78.175 10.3 75.8 12.6 74.7 15.9C73.8 18.6 73.325 22.05 73.275 26.25V66.525C73.325 68.325 74.125 69.675 75.675 70.575C76.425 71.025 77.25 71.25 78.15 71.25H79.05V72H56.325V71.25H57.225Z" fill="#F2643D"/>
</g>
<defs>
<clipPath id="clip0_410_1057">
<rect width="100" height="100" fill="white"/>
</clipPath>
</defs>
</svg>
