<svg width="200" height="200" viewBox="0 0 200 200" fill="none" xmlns="http://www.w3.org/2000/svg">
<g clip-path="url(#clip0_410_1058)">
<rect width="200" height="200" fill="white"/>
<rect width="200" height="200" fill="#161616"/>
<path d="M100 100L200 0V200H0L100 100Z" fill="black"/>
<path d="M113.45 143.5C116.05 143.5 118.3 142.6 120.2 140.8C122.1 139 123.1 136.8 123.2 134.2V95.95H75.95V134.5C75.95 146.5 72.9 156.05 66.8 163.15C62 168.75 55.1 171.55 46.1 171.55C43.2 171.55 40.05 171.2 36.65 170.5L36.35 169C43.75 165.9 48.5 161.3 50.6 155.2C52.5 150 53.45 143.1 53.45 134.5V50.8C53.35 48.2 52.35 46 50.45 44.2C48.65 42.4 46.45 41.5 43.85 41.5H41.9V40H87.5V41.5H85.55C81.95 41.5 79.25 43 77.45 46C76.55 47.4 76.05 49 75.95 50.8V89.5H123.2V53.5C123.2 41.8 126.85 32.5 134.15 25.6C139.95 19.9 147.25 17.05 156.05 17.05C158.05 17.05 160.15 17.2 162.35 17.5L162.65 19C155.35 21.6 150.6 26.2 148.4 32.8C146.6 38.2 145.65 45.1 145.55 53.5V134.05C145.65 137.65 147.25 140.35 150.35 142.15C151.85 143.05 153.5 143.5 155.3 143.5H157.1V145H111.65V143.5H113.45Z" fill="#F2643D"/>
</g>
<defs>
<clipPath id="clip0_410_1058">
<rect width="200" height="200" fill="white"/>
</clipPath>
</defs>
</svg>
